<svg width="72" height="72" viewBox="0 0 72 72" fill="none" xmlns="http://www.w3.org/2000/svg">
<rect x="1" y="1" width="70" height="70" rx="9" stroke="#E9E9E9" stroke-width="2" stroke-dasharray="10 10"/>
<path d="M49.7143 38.2857H38.2857V49.7143C38.2857 50.3205 38.0449 50.9019 37.6162 51.3305C37.1876 51.7592 36.6062 52 36 52C35.3938 52 34.8124 51.7592 34.3838 51.3305C33.9551 50.9019 33.7143 50.3205 33.7143 49.7143V38.2857H22.2857C21.6795 38.2857 21.0981 38.0449 20.6695 37.6162C20.2408 37.1876 20 36.6062 20 36C20 35.3938 20.2408 34.8124 20.6695 34.3838C21.0981 33.9551 21.6795 33.7143 22.2857 33.7143H33.7143V22.2857C33.7143 21.6795 33.9551 21.0981 34.3838 20.6695C34.8124 20.2408 35.3938 20 36 20C36.6062 20 37.1876 20.2408 37.6162 20.6695C38.0449 21.0981 38.2857 21.6795 38.2857 22.2857V33.7143H49.7143C50.3205 33.7143 50.9019 33.9551 51.3305 34.3838C51.7592 34.8124 52 35.3938 52 36C52 36.6062 51.7592 37.1876 51.3305 37.6162C50.9019 38.0449 50.3205 38.2857 49.7143 38.2857Z" fill="#E9E9E9"/>
</svg>
