<svg width="227" height="151" viewBox="0 0 227 151" fill="none" xmlns="http://www.w3.org/2000/svg">
<path d="M121.312 105.383V106.728C121.312 108.13 121.312 109.666 120.914 111.791H122.989V113.285H117.029V119.494H115.17V113.285H109.31V111.791H119.038C119.453 109.749 119.47 108.222 119.47 106.877H110.92V105.383H121.312ZM137.698 112.106V113.567H123.985V112.106H137.698ZM136.005 104.785V108.637H127.555V109.716H136.304V111.127H125.729V107.292H134.162V106.229H125.679V104.785H136.005ZM136.055 114.646V119.295H125.778V114.646H136.055ZM127.588 116.107V117.801H134.229V116.107H127.588ZM151.179 104.47V119.494H149.319V104.47H151.179ZM143.094 105.565C145.352 105.565 146.995 107.624 147.012 110.861C146.995 114.132 145.352 116.174 143.094 116.174C140.819 116.174 139.176 114.132 139.176 110.861C139.176 107.624 140.819 105.565 143.094 105.565ZM143.094 107.226C141.815 107.226 140.952 108.57 140.952 110.861C140.952 113.169 141.815 114.514 143.094 114.514C144.355 114.514 145.219 113.169 145.219 110.861C145.219 108.57 144.355 107.226 143.094 107.226ZM157.869 105.399C160.177 105.399 161.937 106.894 161.953 109.019C161.937 110.853 160.642 112.206 158.815 112.555V114.763C160.061 114.705 161.314 114.605 162.484 114.447L162.617 115.825C159.479 116.39 156.043 116.406 153.47 116.373L153.204 114.862C154.333 114.862 155.628 114.862 156.973 114.829V112.555C155.088 112.239 153.785 110.878 153.802 109.019C153.785 106.894 155.512 105.399 157.869 105.399ZM157.869 106.96C156.558 106.977 155.595 107.757 155.595 109.019C155.595 110.28 156.558 111.077 157.869 111.061C159.164 111.077 160.127 110.28 160.127 109.019C160.127 107.757 159.164 106.977 157.869 106.96ZM165.19 104.47V110.463H167.365V112.023H165.19V119.478H163.348V104.47H165.19ZM183.95 104.47V108.271H186.042V109.815H183.95V113.518H182.107V104.47H183.95ZM183.95 114.231V119.295H174.255V114.231H183.95ZM176.081 115.692V117.801H182.124V115.692H176.081ZM181.028 105.914V107.392H172.13V105.914H175.666V104.37H177.509V105.914H181.028ZM176.579 107.939C178.754 107.939 180.231 109.035 180.248 110.629C180.231 112.239 178.754 113.318 176.579 113.318C174.388 113.318 172.894 112.239 172.894 110.629C172.894 109.035 174.388 107.939 176.579 107.939ZM176.579 109.334C175.434 109.334 174.687 109.815 174.687 110.629C174.687 111.459 175.434 111.94 176.579 111.94C177.725 111.94 178.488 111.459 178.488 110.629C178.488 109.815 177.725 109.334 176.579 109.334ZM190.508 106.229C190.491 109.766 190.093 113.186 188.101 116.141L186.656 115.36C188.316 113.028 188.798 110.596 188.914 107.724H187.088V106.229H190.508ZM193.861 106.229C193.853 107.516 193.828 108.853 193.695 110.181H195.206V104.835H196.949V118.764H195.206V111.675H193.496C193.164 113.534 192.558 115.344 191.454 116.971L190.043 116.174C191.844 113.592 192.193 110.704 192.268 107.724H190.956V106.229H193.861ZM199.854 104.47V119.478H198.078V104.47H199.854ZM33.7061 131.316C36.9268 131.316 39.3008 132.927 39.3008 135.367C39.3008 137.617 37.3667 139.119 34.6191 139.385V142.141H40.5957V143.651H26.8828V142.141H32.793V139.385C30.062 139.119 28.1279 137.617 28.1445 135.367C28.1279 132.927 30.502 131.316 33.7061 131.316ZM33.7061 132.811C31.5146 132.794 29.9375 133.79 29.9541 135.367C29.9375 136.994 31.5146 137.957 33.7061 137.957C35.9307 137.957 37.4912 136.994 37.4912 135.367C37.4912 133.79 35.9307 132.794 33.7061 132.811ZM53.6943 133.707V135.185H43.335V130.669H45.1445V133.707H53.6943ZM55.2715 136.33V137.808H41.5586V136.33H55.2715ZM53.5947 138.854V142.688H45.0615V143.851H54.0928V145.295H43.2021V141.344H51.7686V140.281H43.1855V138.854H53.5947ZM61.1318 131.516C63.5059 131.499 65.249 133.01 65.2656 135.135C65.249 137.276 63.5059 138.771 61.1318 138.771C58.7744 138.771 57.0146 137.276 57.0146 135.135C57.0146 133.01 58.7744 131.499 61.1318 131.516ZM61.1318 133.109C59.8203 133.109 58.8408 133.89 58.8408 135.135C58.8408 136.396 59.8203 137.16 61.1318 137.16C62.46 137.16 63.4561 136.396 63.4561 135.135C63.4561 133.89 62.46 133.109 61.1318 133.109ZM68.7686 130.47V145.494H66.9258V130.47H68.7686ZM56.334 140.846C59.04 140.846 62.792 140.812 66.0293 140.348L66.1787 141.692C62.8086 142.34 59.2061 142.356 56.5664 142.356L56.334 140.846ZM87.1963 131.798V133.159C87.1797 134.985 87.2129 137.077 86.5322 140.248L84.7227 140.065C84.98 138.862 85.1377 137.791 85.2373 136.828L76.3887 137.326L76.123 135.749L85.3369 135.417C85.3701 134.637 85.3784 133.939 85.3867 133.292H76.5879V131.798H87.1963ZM88.6738 142.107V143.635H74.9941V142.107H80.041V138.405H81.8672V142.107H88.6738ZM102.171 130.47V145.494H100.312V130.47H102.171ZM97.8545 131.831V133.342H92.4756V140.314C95.2397 140.306 96.9746 140.223 98.9668 139.866L99.1494 141.394C97.0078 141.792 95.0654 141.875 91.8945 141.875H90.6162V131.831H97.8545ZM118.075 137.276V138.671H104.362V137.276H118.075ZM116.415 139.567V142.987H107.815V144.033H116.863V145.312H105.973V141.792H114.589V140.862H105.956V139.567H116.415ZM116.382 130.802V134.188H107.932V135.168H116.647V136.43H106.105V132.993H114.539V132.08H106.056V130.802H116.382ZM135.092 131.051V131.98C135.092 132.894 135.092 134.072 134.826 135.55L133 135.384C133.199 134.213 133.241 133.3 133.249 132.512H124.699V131.051H135.092ZM136.752 136.23V137.675H123.139V136.23H128.418V133.89H130.244V136.23H136.752ZM135.125 138.754V142.622H126.542V143.884H135.507V145.328H124.699V141.36H133.282V140.231H124.683V138.754H135.125ZM149.552 130.47V136.23H151.859V137.774H149.552V145.494H147.726V130.47H149.552ZM145.302 131.781V137.442H140.255V140.431C142.629 140.414 144.48 140.314 146.58 139.949L146.746 141.443C144.438 141.858 142.38 141.958 139.657 141.958H138.429V135.965H143.459V133.275H138.396V131.781H145.302ZM166.203 142.157V143.668H152.49V142.157H158.4V139.235H154.001V131.466H155.844V133.923H162.8V131.466H164.643V139.235H160.227V142.157H166.203ZM155.844 137.741H162.8V135.4H155.844V137.741ZM171.864 134.404C171.864 136.828 172.711 139.352 174.736 140.63L173.724 142.041C172.371 141.228 171.491 139.825 171.001 138.173C170.453 139.991 169.49 141.526 168.079 142.39L166.934 141.012C169.108 139.684 170.088 137.044 170.088 134.487V131.798H171.864V134.404ZM180.132 130.47V145.478H178.355V130.47H180.132ZM177.011 130.735V144.747H175.268V137.16H173.126V135.633H175.268V130.735H177.011ZM195.588 142.141V143.651H181.875V142.141H185.046V138.339C183.851 137.658 183.128 136.587 183.137 135.251C183.12 132.86 185.478 131.283 188.698 131.283C191.936 131.283 194.293 132.86 194.293 135.251C194.293 136.562 193.596 137.617 192.434 138.306V142.141H195.588ZM188.698 132.744C186.457 132.744 184.93 133.69 184.946 135.251C184.93 136.795 186.457 137.758 188.698 137.758C190.939 137.758 192.483 136.795 192.483 135.251C192.483 133.69 190.939 132.744 188.698 132.744ZM186.872 142.141H190.558V139.003C189.985 139.136 189.362 139.202 188.698 139.202C188.051 139.202 187.437 139.136 186.872 139.02V142.141ZM199.655 131.98L199.473 140.464H197.597L197.397 131.98H199.655ZM198.543 144.133C197.829 144.133 197.248 143.552 197.248 142.838C197.248 142.141 197.829 141.56 198.543 141.56C199.224 141.56 199.821 142.141 199.821 142.838C199.821 143.552 199.224 144.133 198.543 144.133Z" fill="#141414"/>
<g filter="url(#filter0_f_962_20551)">
<ellipse cx="53.5" cy="111" rx="34.5" ry="3" fill="#5E617B" fill-opacity="0.25"/>
</g>
<path d="M49.299 92.6722C49.6049 83.7253 34.7383 82.044 33.637 92.372C33.2088 98.6168 33.0252 104.982 33.0864 110.686C33.0864 111.527 36.9407 111.647 44.2211 111.587C51.5015 111.527 51.8074 110.326 48.9319 108.104C49.0543 101.439 49.0543 98.0764 49.299 92.6722Z" fill="#829BF0"/>
<path d="M72.2004 92.389C72.0246 82.9437 57.4316 82.706 57.4316 92.8642C57.3144 97.7948 57.373 102.904 57.666 109.616C57.7832 110.329 61.4754 110.329 67.5119 110.151C74.8377 109.973 75.5995 108.666 72.6106 106.409C72.3176 102.725 72.259 98.2107 72.2004 92.389Z" fill="#829BF0"/>
<path d="M84.7503 72.1843C86.4827 76.2267 89.1111 82.5875 91.0227 86.4516C92.1577 88.7106 91.9188 90.6723 91.1422 92.3963C90.0669 94.7742 87.4385 96.3792 85.288 96.6764C79.2545 97.5681 75.4313 90.1373 73.5794 85.976C71.2497 80.7447 68.5018 75.0378 71.5484 70.3415C75.2521 64.7535 82.4803 66.8936 84.7503 72.1843Z" fill="#829BF0"/>
<path d="M44.2056 17.3847C62.5783 15.3651 79.8806 24.097 83.6859 43.343C108.361 44.4716 112.048 75.0632 94.0317 88.0126C86.2427 93.4776 77.0266 94.725 53.9568 94.725C30.4708 94.725 20.3629 94.725 11.2063 87.5375C-1.33939 77.6769 0.0281477 56.4113 15.0711 50.6493C14.3576 32.829 27.7952 19.642 44.2056 17.3847Z" fill="#BFCBF5"/>
<path d="M37.8046 78.7151C36.1035 82.8257 33.4638 89.294 32.1147 93.4046C31.3521 95.8226 29.7683 97.0921 28.0085 97.6966C25.6035 98.6034 22.6705 97.8779 20.9694 96.548C16.1594 92.8001 18.799 84.8206 20.4415 80.5286C22.4946 75.1485 24.6063 69.043 30.0616 67.8944C36.5141 66.5645 40.0336 73.335 37.8046 78.7151Z" fill="#829BF0"/>
<path d="M48.4121 50.85C49.2896 50.85 50.0321 52.2675 50.3021 53.685C50.5721 55.2375 49.7621 56.79 48.4796 56.79C47.2646 56.79 46.4546 55.3725 46.5896 53.8875C46.6571 52.47 47.6021 50.85 48.4121 50.85Z" fill="#4B4682"/>
<path d="M68.6621 50.85C69.5396 50.85 70.2821 52.2675 70.5521 53.685C70.8221 55.2375 70.0121 56.79 68.7296 56.79C67.5146 56.79 66.7046 55.3725 66.8396 53.8875C66.9071 52.47 67.8521 50.85 68.6621 50.85Z" fill="#4B4682"/>
<path fill-rule="evenodd" clip-rule="evenodd" d="M66.5172 63.4327C66.6585 63.0597 66.543 62.572 66.369 62.4493C66.3232 62.4312 66.2576 62.4116 66.2388 62.4073C66.2135 62.4019 66.1928 62.3991 66.191 62.3988C66.1843 62.3979 66.1788 62.3972 66.1757 62.3968C66.1651 62.3955 66.1543 62.3945 66.1482 62.3939C66.133 62.3924 66.1119 62.3905 66.0861 62.3883C66.0339 62.3838 65.9561 62.3774 65.8548 62.3695C65.6522 62.3539 65.3534 62.3323 64.9743 62.3084C64.2161 62.2605 63.1348 62.2032 61.8564 62.1649C59.3035 62.0886 55.9471 62.0879 52.8015 62.3956C52.5436 62.4209 52.3229 62.5915 52.2336 62.8347C52.1442 63.0779 52.6212 64.5013 52.8014 64.6875C54.6749 68.4 57.3749 69.4125 60.0749 69.4125C61.8564 69.4125 64.5073 68.7375 66.5172 63.4327Z" fill="#4B4682"/>
<g filter="url(#filter1_d_962_20551)">
<path fill-rule="evenodd" clip-rule="evenodd" d="M131.561 43H121L131 33L131.17 33.68C132.831 17.5669 146.448 5 163 5H184C201.673 5 216 19.3269 216 37C216 54.6731 201.673 69 184 69H163C147.378 69 134.37 57.8052 131.561 43Z" fill="#EDEEFA"/>
</g>
<path fill-rule="evenodd" clip-rule="evenodd" d="M162.594 22.7468C163.583 21.7408 164.929 21.1717 166.335 21.1647C167.731 21.1581 169.776 20.7568 170.41 22.4105C170.668 23.0838 171.123 23.6622 171.715 24.069C172.308 24.4758 173.009 24.6918 173.725 24.6884C174.442 24.6849 175.141 24.4623 175.729 24.0499C176.318 23.6374 176.767 23.0547 177.019 22.379C177.637 20.7211 179.687 21.1028 181.082 21.0962C182.487 21.0898 183.837 21.6453 184.836 22.6407L191.421 29.206C192.087 29.8703 192.463 30.7736 192.468 31.7173C192.472 32.661 192.104 33.5679 191.445 34.2385L188.845 36.881C187.931 37.8107 186.649 38.1176 185.492 37.833L186.018 47.497C186.058 48.2194 185.951 48.9423 185.704 49.6219C185.458 50.3014 185.076 50.9234 184.584 51.45C184.091 51.9766 183.497 52.3968 182.838 52.6852C182.179 52.9736 181.469 53.1242 180.75 53.1276L166.972 53.1934C166.254 53.1967 165.542 53.053 164.88 52.7709C164.218 52.4888 163.621 52.0742 163.123 51.5523C162.625 51.0304 162.238 50.4122 161.985 49.735C161.732 49.0578 161.618 48.336 161.65 47.6132L162.085 37.9447C161.493 38.0975 160.873 38.0931 160.283 37.9318C159.694 37.7706 159.156 37.458 158.723 37.0247L156.098 34.407C155.432 33.7428 155.056 32.8395 155.051 31.8958C155.047 30.9521 155.415 30.0452 156.074 29.3746L162.594 22.7468Z" fill="#829BF0"/>
<defs>
<filter id="filter0_f_962_20551" x="15" y="104" width="77" height="14" filterUnits="userSpaceOnUse" color-interpolation-filters="sRGB">
<feFlood flood-opacity="0" result="BackgroundImageFix"/>
<feBlend mode="normal" in="SourceGraphic" in2="BackgroundImageFix" result="shape"/>
<feGaussianBlur stdDeviation="2" result="effect1_foregroundBlur_962_20551"/>
</filter>
<filter id="filter1_d_962_20551" x="112" y="0" width="115" height="84" filterUnits="userSpaceOnUse" color-interpolation-filters="sRGB">
<feFlood flood-opacity="0" result="BackgroundImageFix"/>
<feColorMatrix in="SourceAlpha" type="matrix" values="0 0 0 0 0 0 0 0 0 0 0 0 0 0 0 0 0 0 127 0" result="hardAlpha"/>
<feOffset dx="1" dy="5"/>
<feGaussianBlur stdDeviation="5"/>
<feComposite in2="hardAlpha" operator="out"/>
<feColorMatrix type="matrix" values="0 0 0 0 0.369278 0 0 0 0 0.379051 0 0 0 0 0.481667 0 0 0 0.2 0"/>
<feBlend mode="normal" in2="BackgroundImageFix" result="effect1_dropShadow_962_20551"/>
<feBlend mode="normal" in="SourceGraphic" in2="effect1_dropShadow_962_20551" result="shape"/>
</filter>
</defs>
</svg>
