<svg width="30" height="30" viewBox="0 0 30 30" fill="none" xmlns="http://www.w3.org/2000/svg">
<g filter="url(#filter0_d_759_19065)">
<circle cx="15.1335" cy="15.1335" r="10.6667" fill="white"/>
</g>
<path d="M20.6191 16.0477H16.0477V20.6191C16.0477 20.8616 15.9514 21.0941 15.7799 21.2656C15.6084 21.4371 15.3759 21.5334 15.1334 21.5334C14.8909 21.5334 14.6584 21.4371 14.4869 21.2656C14.3154 21.0941 14.2191 20.8616 14.2191 20.6191V16.0477H9.64768C9.4052 16.0477 9.17265 15.9514 9.00119 15.7799C8.82972 15.6084 8.7334 15.3759 8.7334 15.1334C8.7334 14.8909 8.82972 14.6584 9.00119 14.4869C9.17265 14.3154 9.4052 14.2191 9.64768 14.2191H14.2191V9.64768C14.2191 9.4052 14.3154 9.17265 14.4869 9.00119C14.6584 8.82972 14.8909 8.7334 15.1334 8.7334C15.3759 8.7334 15.6084 8.82972 15.7799 9.00119C15.9514 9.17265 16.0477 9.4052 16.0477 9.64768V14.2191H20.6191C20.8616 14.2191 21.0941 14.3154 21.2656 14.4869C21.4371 14.6584 21.5334 14.8909 21.5334 15.1334C21.5334 15.3759 21.4371 15.6084 21.2656 15.7799C21.0941 15.9514 20.8616 16.0477 20.6191 16.0477Z" fill="#829BF0"/>
<defs>
<filter id="filter0_d_759_19065" x="0.466797" y="0.466797" width="29.3335" height="29.3335" filterUnits="userSpaceOnUse" color-interpolation-filters="sRGB">
<feFlood flood-opacity="0" result="BackgroundImageFix"/>
<feColorMatrix in="SourceAlpha" type="matrix" values="0 0 0 0 0 0 0 0 0 0 0 0 0 0 0 0 0 0 127 0" result="hardAlpha"/>
<feOffset/>
<feGaussianBlur stdDeviation="2"/>
<feComposite in2="hardAlpha" operator="out"/>
<feColorMatrix type="matrix" values="0 0 0 0 0.00533854 0 0 0 0 0.00533854 0 0 0 0 0.00533854 0 0 0 0.1 0"/>
<feBlend mode="normal" in2="BackgroundImageFix" result="effect1_dropShadow_759_19065"/>
<feBlend mode="normal" in="SourceGraphic" in2="effect1_dropShadow_759_19065" result="shape"/>
</filter>
</defs>
</svg>
