<svg width="29" height="36" viewBox="0 0 29 36" fill="none" xmlns="http://www.w3.org/2000/svg">
<path d="M6.94843 8.43366e-09C6.04268 -6.06225e-05 5.16873 0.326795 4.49394 0.917978C3.81914 1.50916 3.39093 2.32312 3.2913 3.204L3.24715 3.6H25.7528L25.7087 3.204C25.6091 2.32312 25.1809 1.50916 24.5061 0.917978C23.8313 0.326795 22.9573 -6.06225e-05 22.0516 8.43366e-09H6.94843ZM25.7528 3.6H3.24715L0.0223274 32.004C-0.0345447 32.5068 0.0175275 33.0157 0.175149 33.4975C0.33277 33.9793 0.592402 34.4232 0.937116 34.8003C1.28183 35.1773 1.70389 35.479 2.17577 35.6857C2.64765 35.8924 3.15876 35.9995 3.67578 36H9.34175C10.179 36.0003 10.9914 35.7211 11.6446 35.2086C12.2978 34.6961 12.7528 33.9809 12.9345 33.1812L14.5 20.898L16.0637 33.1812C16.2453 33.9806 16.7 34.6956 17.3529 35.208C18.0057 35.7205 18.8176 35.9999 19.6546 36H25.3205C25.8379 36 26.3494 35.8933 26.8217 35.6868C27.294 35.4803 27.7165 35.1787 28.0617 34.8016C28.4068 34.4245 28.6667 33.9804 28.8246 33.4984C28.9824 33.0163 29.0346 32.5071 28.9777 32.004L25.7528 3.6Z" fill="#99BD0F"/>
</svg>
