<svg width="80" height="80" viewBox="0 0 80 80" fill="none" xmlns="http://www.w3.org/2000/svg">
<path d="M37.0571 61.2502C37.2746 54.888 26.7028 53.6924 25.9197 61.0367C25.6152 65.4775 25.4847 70.0037 25.5282 74.0601C25.5282 74.6579 28.269 74.7433 33.4462 74.7006C38.6233 74.6579 38.8408 73.804 36.7961 72.2241C36.8831 67.4844 36.8831 65.0932 37.0571 61.2502Z" fill="#829BF0"/>
<path d="M53.3425 61.0488C53.2175 54.3321 42.8403 54.1632 42.8403 61.3868C42.7569 64.893 42.7986 68.5259 43.007 73.2994C43.0904 73.8063 45.7159 73.8063 50.0085 73.6796C55.2179 73.5529 55.7597 72.6235 53.6343 71.0183C53.4259 68.3992 53.3842 65.1887 53.3425 61.0488Z" fill="#829BF0"/>
<path d="M62.2668 46.6811C63.4987 49.5557 65.3678 54.079 66.7272 56.8267C67.5343 58.4331 67.3644 59.8281 66.8122 61.0541C66.0475 62.745 64.1784 63.8864 62.6491 64.0977C58.3587 64.7318 55.6399 59.4477 54.3231 56.4885C52.6664 52.7685 50.7123 48.7102 52.8788 45.3707C55.5125 41.397 60.6526 42.9188 62.2668 46.6811Z" fill="#829BF0"/>
<path d="M33.4351 7.71249C46.5 6.2763 58.804 12.4857 61.51 26.1717C79.0568 26.9743 81.6782 48.7283 68.8669 57.9368C63.3281 61.823 56.7744 62.71 40.3692 62.71C23.6681 62.71 16.4802 62.71 9.96888 57.5989C1.0475 50.5869 2.01997 35.4647 12.7172 31.3673C12.2098 18.6951 21.7654 9.31764 33.4351 7.71249Z" fill="#BFCBF5"/>
<path d="M28.8832 51.3252C27.6736 54.2483 25.7965 58.848 24.8371 61.7711C24.2948 63.4906 23.1685 64.3933 21.9171 64.8232C20.2069 65.468 18.1212 64.9521 16.9116 64.0064C13.4911 61.3412 15.3682 55.6669 16.5361 52.6148C17.9961 48.7889 19.4978 44.4472 23.3771 43.6305C27.9656 42.6848 30.4683 47.4993 28.8832 51.3252Z" fill="#829BF0"/>
<path d="M36.4263 31.51C37.0503 31.51 37.5783 32.518 37.7703 33.526C37.9623 34.63 37.3863 35.734 36.4743 35.734C35.6103 35.734 35.0343 34.726 35.1303 33.67C35.1783 32.662 35.8503 31.51 36.4263 31.51Z" fill="#4B4682"/>
<path d="M50.8262 31.51C51.4502 31.51 51.9782 32.518 52.1702 33.526C52.3622 34.63 51.7862 35.734 50.8742 35.734C50.0102 35.734 49.4342 34.726 49.5302 33.67C49.5782 32.662 50.2502 31.51 50.8262 31.51Z" fill="#4B4682"/>
<path fill-rule="evenodd" clip-rule="evenodd" d="M38.4843 40.001C38.5931 39.7592 38.8772 39.6514 39.119 39.7602C42.8389 41.4342 46.4334 41.4275 49.848 39.7663C50.0864 39.6503 50.3737 39.7496 50.4896 39.988C50.6056 40.2264 50.5064 40.5136 50.268 40.6296C46.5786 42.4244 42.6851 42.4177 38.725 40.6357C38.4833 40.5269 38.3755 40.2427 38.4843 40.001Z" fill="#4B4682"/>
</svg>
