<svg width="154" height="154" viewBox="0 0 154 154" fill="none" xmlns="http://www.w3.org/2000/svg">
<rect width="154" height="154" rx="15" fill="#A8B9F5"/>
<g clip-path="url(#clip0_1419_11429)">
<mask id="mask0_1419_11429" style="mask-type:luminance" maskUnits="userSpaceOnUse" x="5" y="5" width="144" height="144">
<path d="M149 5H5V149H149V5Z" fill="white"/>
</mask>
<g mask="url(#mask0_1419_11429)">
<path d="M132.532 68.8311C130.856 64.891 128.447 61.3563 125.384 58.3194C122.334 55.2954 118.773 52.9124 114.819 51.2505C110.892 49.6007 106.742 48.7365 102.462 48.6578C102.043 47.0611 101.493 45.49 100.839 43.9456C99.0713 39.8087 96.5581 36.1038 93.3505 32.9232C90.1435 29.7418 86.4126 27.2547 82.2628 25.5136C77.9557 23.7072 73.4002 22.7905 68.6999 22.7905C64.0008 22.7905 59.4452 23.7072 55.1383 25.5136C50.9884 27.2547 47.2574 29.7547 44.0506 32.9232C40.843 36.1038 38.3163 39.8087 36.5623 43.9456C34.7297 48.2393 33.8002 52.7947 33.8002 57.4814C33.8002 58.3584 33.8392 59.2227 33.9051 60.0868C30.9857 61.6708 28.3281 63.7386 26.0633 66.2527C21.2194 71.6065 18.5623 78.5054 18.5623 85.6658C18.5623 89.5931 19.3479 93.4163 20.8921 97.0291C22.3719 100.485 24.4921 103.601 27.189 106.271C28.1446 107.214 29.1526 108.091 30.213 108.889L34.3499 99.3594C30.7628 95.8772 28.5115 91.0205 28.5115 85.6792C28.5115 75.9136 35.9863 67.7969 45.5423 66.6712C44.4039 63.8307 43.7493 60.7414 43.7493 57.4942C43.7493 43.8275 54.9157 32.7525 68.6999 32.7525C82.4853 32.7525 93.6514 43.8275 93.6514 57.4942C93.6514 58.4109 93.5992 59.3012 93.4948 60.1911C96.0995 59.1963 98.9275 58.6205 101.899 58.6205C114.768 58.6205 125.214 68.9622 125.214 81.7386C125.214 89.5152 121.339 96.4005 115.396 100.59L113.288 112.817C118.289 111.01 122.805 108.025 126.457 104.046C132.074 97.9456 135.163 90.0253 135.163 81.7386C135.163 77.2616 134.273 72.9156 132.532 68.8311Z" fill="white"/>
<path d="M88.0615 64.0529C86.6475 64.0529 85.2343 63.4508 84.2525 62.2855C82.4852 60.191 82.7464 57.0493 84.8409 55.282C89.8423 51.0671 96.2042 48.7366 102.763 48.7366C105.512 48.7366 107.737 50.9622 107.737 53.7114C107.737 56.4607 105.512 58.6855 102.763 58.6855C98.5602 58.6855 94.4631 60.1782 91.2557 62.8878C90.3264 63.6607 89.1879 64.0529 88.0615 64.0529Z" fill="white"/>
<mask id="mask1_1419_11429" style="mask-type:luminance" maskUnits="userSpaceOnUse" x="-18" y="6" width="145" height="145">
<path d="M-17.9092 6.30908H126.091V150.309H-17.9092V6.30908Z" fill="white"/>
</mask>
<g mask="url(#mask1_1419_11429)">
<path d="M40.1422 131.484C39.3566 131.484 38.5582 131.301 37.8124 130.895C35.3904 129.599 34.4735 126.588 35.7564 124.167L38.2969 119.401C39.5926 116.98 42.6038 116.063 45.0251 117.346C47.4471 118.643 48.3636 121.653 47.0807 124.075L44.5413 128.84C43.6508 130.529 41.9231 131.484 40.1422 131.484Z" fill="white"/>
</g>
<mask id="mask2_1419_11429" style="mask-type:luminance" maskUnits="userSpaceOnUse" x="30" y="6" width="145" height="145">
<path d="M30.2 6.30908H174.2V150.309H30.2V6.30908Z" fill="white"/>
</mask>
<g mask="url(#mask2_1419_11429)">
<path d="M88.2514 131.484C87.4657 131.484 86.6674 131.301 85.9215 130.895C83.4995 129.599 82.5827 126.588 83.8656 124.167L86.406 119.401C87.7017 116.98 90.7129 116.063 93.1343 117.346C95.5562 118.643 96.4728 121.653 95.1899 124.075L92.6504 128.84C91.7599 130.529 90.0322 131.484 88.2514 131.484Z" fill="white"/>
</g>
<mask id="mask3_1419_11429" style="mask-type:luminance" maskUnits="userSpaceOnUse" x="-11" y="-13" width="145" height="145">
<path d="M-10.4636 -12.5909H133.536V131.409H-10.4636V-12.5909Z" fill="white"/>
</mask>
<g mask="url(#mask3_1419_11429)">
<path d="M47.5878 112.584C46.8022 112.584 46.0038 112.401 45.2579 111.995C42.8359 110.699 41.9191 107.688 43.202 105.267L45.7425 100.501C47.0381 98.08 50.0494 97.1633 52.4707 98.4462C54.8927 99.7425 55.8092 102.753 54.5263 105.175L51.9868 109.94C51.0963 111.629 49.3686 112.584 47.5878 112.584Z" fill="white"/>
</g>
<mask id="mask4_1419_11429" style="mask-type:luminance" maskUnits="userSpaceOnUse" x="37" y="-13" width="145" height="145">
<path d="M37.7273 -12.5909H181.727V131.409H37.7273V-12.5909Z" fill="white"/>
</mask>
<g mask="url(#mask4_1419_11429)">
<path d="M95.7787 112.584C94.9931 112.584 94.1947 112.401 93.4488 111.995C91.0269 110.699 90.11 107.688 91.3929 105.267L93.9334 100.501C95.229 98.08 98.2403 97.1633 100.662 98.4462C103.084 99.7425 104 102.753 102.717 105.175L100.178 109.94C99.2872 111.629 97.5596 112.584 95.7787 112.584Z" fill="white"/>
</g>
<mask id="mask5_1419_11429" style="mask-type:luminance" maskUnits="userSpaceOnUse" x="-40" y="-45" width="217" height="217">
<path d="M-39.28 -44.8436H176.916V171.353H-39.28V-44.8436Z" fill="white"/>
</mask>
<g mask="url(#mask5_1419_11429)">
<g opacity="0.249167">
<path d="M83.4474 111.353L82.3545 110.919L83.393 110.471C83.6806 110.347 83.8132 110.013 83.6891 109.725C83.5649 109.438 83.2311 109.305 82.9434 109.429L80.8631 110.327L80.1466 110.042L80.8427 109.742C81.1303 109.618 81.2628 109.284 81.1387 108.996C81.0144 108.709 80.6805 108.576 80.3928 108.701L78.6555 109.45L77.9071 109.153C78.0903 108.419 78.0691 107.67 77.8729 106.975L78.6145 106.655L80.3731 107.353C80.6642 107.469 80.9941 107.326 81.1098 107.035C81.2253 106.744 81.0829 106.414 80.7918 106.299L80.0877 106.019L80.795 105.714L82.9006 106.55C83.1919 106.665 83.5218 106.523 83.6374 106.232C83.753 105.941 83.6106 105.611 83.3193 105.495L82.2683 105.078L83.348 104.612C83.6356 104.488 83.7682 104.154 83.6441 103.866C83.52 103.579 83.186 103.446 82.8984 103.57L81.8188 104.036L82.2363 102.985C82.3519 102.694 82.2093 102.364 81.9181 102.248C81.627 102.133 81.2974 102.275 81.1818 102.566L80.3455 104.672L79.6381 104.977L79.9175 104.273C80.0329 103.982 79.8907 103.652 79.5996 103.537C79.3083 103.421 78.9784 103.563 78.863 103.854L78.165 105.613L77.4232 105.933C77.0519 105.313 76.5214 104.784 75.8616 104.414L76.1588 103.666L77.8964 102.916C78.1842 102.792 78.3168 102.458 78.1925 102.17C78.0683 101.883 77.7345 101.75 77.4468 101.874L76.7509 102.175L77.0353 101.458L79.1155 100.56C79.4033 100.436 79.5358 100.102 79.4116 99.8144C79.2876 99.5269 78.9537 99.3943 78.666 99.5186L77.6275 99.9668L78.0616 98.8734C78.1772 98.5823 78.0349 98.2526 77.7437 98.137C77.4524 98.0213 77.1225 98.1635 77.0069 98.4546L76.573 99.5475L76.1251 98.5095C76.0009 98.2219 75.6671 98.0893 75.3793 98.2136C75.0917 98.3377 74.9591 98.6717 75.0834 98.9592L75.9808 101.039L75.6964 101.755L75.3961 101.06C75.272 100.772 74.9382 100.64 74.6504 100.764C74.3631 100.888 74.2304 101.222 74.3546 101.509L75.1043 103.246L74.807 103.995C74.0734 103.812 73.3242 103.833 72.6288 104.029L72.3089 103.288L73.0072 101.529C73.1228 101.238 72.9806 100.908 72.6893 100.793C72.3981 100.677 72.0681 100.819 71.9525 101.11L71.6728 101.815L71.3678 101.107L72.2039 99.0017C72.3195 98.7106 72.1771 98.3809 71.8858 98.2652C71.5947 98.1496 71.265 98.2919 71.1494 98.583L70.732 99.6342L70.2657 98.5541C70.1416 98.2665 69.8078 98.134 69.52 98.258C69.2324 98.3823 69.0997 98.7163 69.2239 99.0039L69.69 100.083L68.6388 99.6659C68.3478 99.5506 68.0179 99.693 67.9023 99.9841C67.7869 100.275 67.9291 100.605 68.2203 100.721L70.3257 101.556L70.6312 102.264L69.9271 101.985C69.6358 101.869 69.3059 102.011 69.1903 102.302C69.0746 102.594 69.2171 102.923 69.5084 103.039L71.267 103.737L71.587 104.479C70.9673 104.85 70.4377 105.381 70.0679 106.041L69.3196 105.743L68.5699 104.006C68.4457 103.718 68.1119 103.586 67.8244 103.71C67.5367 103.834 67.4042 104.168 67.5281 104.455L67.8285 105.151L67.1124 104.867L66.2142 102.787C66.0899 102.499 65.7561 102.367 65.4685 102.49C65.1809 102.615 65.0483 102.949 65.1724 103.236L65.6208 104.275L64.5274 103.841C64.2363 103.725 63.9065 103.867 63.7908 104.159C63.6752 104.45 63.8176 104.78 64.1086 104.895L65.2017 105.329L64.1635 105.777C63.8759 105.901 63.7434 106.235 63.8675 106.523C63.9295 106.667 64.0439 106.772 64.179 106.825C64.3138 106.879 64.4691 106.881 64.613 106.819L66.6931 105.921L67.409 106.206L66.7137 106.506C66.4259 106.63 66.2933 106.964 66.4176 107.252C66.4796 107.396 66.5941 107.501 66.7291 107.554C66.864 107.608 67.0194 107.61 67.1633 107.548L68.9003 106.798L69.6491 107.095C69.4657 107.829 69.4871 108.578 69.6831 109.274L68.942 109.593L67.1832 108.895C66.8919 108.779 66.5621 108.922 66.4465 109.213C66.3309 109.504 66.4732 109.834 66.7645 109.95L67.4687 110.229L66.7614 110.535L64.6555 109.698C64.3644 109.583 64.0345 109.725 63.919 110.016C63.8033 110.307 63.9458 110.637 64.2369 110.753L65.2883 111.17L64.208 111.636C63.9203 111.761 63.7878 112.094 63.9119 112.382C63.9739 112.526 64.0885 112.631 64.2233 112.685C64.3584 112.738 64.5138 112.74 64.6576 112.678L65.7374 112.212L65.32 113.263C65.2044 113.555 65.3467 113.884 65.638 114C65.9291 114.115 66.2589 113.973 66.3745 113.682L67.2106 111.576L67.9179 111.271L67.6383 111.975C67.5227 112.266 67.6651 112.596 67.9564 112.712C68.2475 112.828 68.5772 112.685 68.6928 112.394L69.3911 110.635L70.1327 110.315C70.5043 110.935 71.0347 111.465 71.6943 111.834L71.3971 112.583L69.6599 113.333C69.3723 113.457 69.2397 113.791 69.3638 114.079C69.488 114.366 69.8218 114.499 70.1094 114.374L70.805 114.074L70.5206 114.79L68.4406 115.688C68.153 115.813 68.0204 116.147 68.1447 116.434C68.2688 116.722 68.6026 116.854 68.8903 116.73L69.9284 116.282L69.4944 117.375C69.3788 117.666 69.5212 117.996 69.8125 118.112C70.1035 118.227 70.4335 118.085 70.5491 117.794L70.9831 116.701L71.4313 117.739C71.4934 117.883 71.6077 117.988 71.7427 118.042C71.8776 118.095 72.0332 118.097 72.1768 118.035C72.4646 117.911 72.5972 117.577 72.4729 117.289L71.5752 115.209L71.8597 114.493L72.1601 115.189C72.2223 115.332 72.3367 115.437 72.4716 115.491C72.6066 115.545 72.7621 115.547 72.9059 115.485C73.1935 115.361 73.3261 115.027 73.2018 114.739L72.4518 113.002L72.749 112.253C73.4828 112.437 74.2321 112.415 74.9274 112.219L75.2476 112.961L74.5493 114.719C74.4337 115.01 74.5759 115.34 74.8672 115.456C75.1583 115.572 75.488 115.429 75.6036 115.138L75.8833 114.434L76.1886 115.141L75.3526 117.247C75.2369 117.538 75.3793 117.868 75.6704 117.983C75.9617 118.099 76.2914 117.957 76.4071 117.666L76.8244 116.614L77.2904 117.694C77.3525 117.838 77.4669 117.943 77.6019 117.997C77.7368 118.05 77.8922 118.052 78.0361 117.99C78.3236 117.866 78.4562 117.532 78.3323 117.244L77.8662 116.165L78.9174 116.582C79.2087 116.698 79.5384 116.556 79.6541 116.264C79.7696 115.973 79.6274 115.643 79.3362 115.528L77.2304 114.692L76.9251 113.984L77.6295 114.264C77.9209 114.379 78.2506 114.237 78.3662 113.946C78.4816 113.655 78.3393 113.325 78.0482 113.209L76.2892 112.511L75.9692 111.77C76.589 111.398 77.1183 110.867 77.4883 110.208L78.2368 110.505L78.9868 112.242C79.0488 112.386 79.1632 112.491 79.2983 112.545C79.4332 112.598 79.5885 112.601 79.7325 112.538C80.0202 112.414 80.1527 112.08 80.0286 111.793L79.7282 111.097L80.4443 111.382L81.3422 113.462C81.4043 113.605 81.5188 113.71 81.6538 113.764C81.7887 113.818 81.9441 113.819 82.0881 113.757C82.3757 113.633 82.5082 113.3 82.3839 113.012L81.9357 111.974L83.0288 112.408C83.3198 112.523 83.6498 112.381 83.7654 112.09C83.8811 111.798 83.7386 111.469 83.4474 111.353ZM76.8395 108.729L75.2603 108.102L76.8191 107.43C76.9155 107.849 76.9263 108.291 76.8395 108.729ZM76.3694 106.388L74.8108 107.061L75.4378 105.481C75.8158 105.719 76.1302 106.03 76.3694 106.388ZM74.3831 105.063L73.7561 106.642L73.0837 105.083C73.5031 104.987 73.9454 104.976 74.3831 105.063ZM72.0417 105.533L72.7145 107.091L71.1353 106.464C71.3725 106.086 71.6838 105.772 72.0417 105.533ZM70.7165 107.519L72.2957 108.146L70.7369 108.819C70.6407 108.399 70.6297 107.957 70.7165 107.519ZM71.1867 109.861L72.7452 109.188L72.1182 110.767C71.7402 110.53 71.4257 110.219 71.1867 109.861ZM73.1729 111.186L73.7999 109.606L74.4724 111.165C74.0528 111.262 73.6108 111.272 73.1729 111.186ZM75.5143 110.716L74.8417 109.157L76.4207 109.784C76.1835 110.162 75.8723 110.476 75.5143 110.716Z" fill="#FEFEFF"/>
</g>
</g>
</g>
</g>
<defs>
<clipPath id="clip0_1419_11429">
<rect width="144" height="144" fill="white" transform="translate(5 5)"/>
</clipPath>
</defs>
</svg>
