<svg width="30" height="23" viewBox="0 0 30 23" fill="none" xmlns="http://www.w3.org/2000/svg">
<path d="M6.50326 0.0715089C6.62137 0.0242702 6.74741 0 6.87461 0H10.341C10.6172 0 10.8452 0.223765 10.8828 0.497331C11.0347 1.60114 11.7384 4.15897 15 4.15897C18.2616 4.15897 18.9653 1.60114 19.1172 0.49733C19.1548 0.223764 19.3828 0 19.659 0H23.1254C23.2526 0 23.3786 0.0242702 23.4967 0.0715089L29.4774 2.4635C29.6822 2.5455 29.846 2.70549 29.9328 2.90827C30.0197 3.11106 30.0224 3.34004 29.9404 3.54483L27.6863 9.18163C27.6245 9.33592 27.5179 9.46817 27.3803 9.56132C27.2427 9.65448 27.0803 9.70427 26.9141 9.70427H23.3179V21.3494C23.3179 21.57 23.2303 21.7816 23.0743 21.9376C22.9183 22.0936 22.7068 22.1812 22.4862 22.1812H7.51385C7.29324 22.1812 7.08167 22.0936 6.92568 21.9376C6.76969 21.7816 6.68205 21.57 6.68205 21.3494V9.70427H3.08593C2.91973 9.70427 2.75735 9.65448 2.61972 9.56132C2.48208 9.46817 2.37551 9.33592 2.31374 9.18163L0.059579 3.54483C-0.0224058 3.34004 -0.0196813 3.11106 0.0671533 2.90827C0.153988 2.70549 0.31782 2.5455 0.522611 2.4635L6.50326 0.0715089Z" fill="#B5B5B5"/>
</svg>
