<svg width="80" height="80" viewBox="0 0 80 80" fill="none" xmlns="http://www.w3.org/2000/svg">
<path d="M37.0571 61.2505C37.2746 54.8882 26.7028 53.6926 25.9197 61.037C25.6152 65.4778 25.4847 70.0039 25.5282 74.0604C25.5282 74.6582 28.269 74.7436 33.4462 74.7009C38.6233 74.6582 38.8408 73.8042 36.7961 72.2243C36.8831 67.4846 36.8831 65.0935 37.0571 61.2505Z" fill="#829BF0"/>
<path d="M53.3423 61.0491C53.2173 54.3324 42.8401 54.1634 42.8401 61.387C42.7567 64.8932 42.7984 68.5261 43.0068 73.2996C43.0901 73.8066 45.7157 73.8066 50.0082 73.6798C55.2177 73.5531 55.7595 72.6238 53.634 71.0185C53.4256 68.3994 53.384 65.1889 53.3423 61.0491Z" fill="#829BF0"/>
<path d="M62.2668 46.6809C63.4987 49.5555 65.3678 54.0787 66.7272 56.8265C67.5343 58.4329 67.3644 59.8279 66.8122 61.0538C66.0475 62.7447 64.1784 63.8861 62.6491 64.0975C58.3587 64.7316 55.6399 59.4474 54.3231 56.4883C52.6664 52.7682 50.7123 48.71 52.8788 45.3704C55.5125 41.3967 60.6526 42.9186 62.2668 46.6809Z" fill="#829BF0"/>
<path d="M33.4351 7.71224C46.5 6.27605 58.804 12.4854 61.51 26.1715C79.0568 26.974 81.6782 48.7281 68.8669 57.9366C63.3281 61.8227 56.7744 62.7098 40.3692 62.7098C23.6681 62.7098 16.4802 62.7098 9.96888 57.5986C1.0475 50.5867 2.01997 35.4645 12.7172 31.3671C12.2098 18.6949 21.7654 9.31739 33.4351 7.71224Z" fill="#BFCBF5"/>
<path d="M28.8832 51.3249C27.6736 54.2481 25.7965 58.8477 24.8371 61.7708C24.2948 63.4903 23.1685 64.3931 21.9171 64.8229C20.2069 65.4677 18.1212 64.9519 16.9116 64.0062C13.4911 61.341 15.3682 55.6667 16.5361 52.6146C17.9961 48.7887 19.4978 44.447 23.3771 43.6302C27.9656 42.6845 30.4683 47.4991 28.8832 51.3249Z" fill="#829BF0"/>
<path d="M36.4261 31.5103C37.0501 31.5103 37.5781 32.5183 37.7701 33.5263C37.9621 34.6303 37.3861 35.7343 36.4741 35.7343C35.6101 35.7343 35.0341 34.7263 35.1301 33.6703C35.1781 32.6623 35.8501 31.5103 36.4261 31.5103Z" fill="#4B4682"/>
<path d="M50.826 31.5103C51.45 31.5103 51.978 32.5183 52.17 33.5263C52.362 34.6303 51.786 35.7343 50.874 35.7343C50.01 35.7343 49.434 34.7263 49.53 33.6703C49.578 32.6623 50.25 31.5103 50.826 31.5103Z" fill="#4B4682"/>
<path fill-rule="evenodd" clip-rule="evenodd" d="M38.4843 40.0009C38.5931 39.7592 38.8772 39.6514 39.119 39.7602C42.8389 41.4341 46.4334 41.4274 49.848 39.7663C50.0864 39.6503 50.3737 39.7495 50.4896 39.9879C50.6056 40.2263 50.5064 40.5136 50.268 40.6295C46.5786 42.4244 42.6851 42.4176 38.725 40.6356C38.4833 40.5268 38.3755 40.2427 38.4843 40.0009Z" fill="#4B4682"/>
</svg>
