<svg width="20" height="20" viewBox="0 0 20 20" fill="none" xmlns="http://www.w3.org/2000/svg">
<path d="M18.1934 10.6614C18.033 10.4789 17.9446 10.2443 17.9446 10.0014C17.9446 9.75845 18.033 9.52385 18.1934 9.34136L19.4734 7.90136C19.6144 7.74403 19.702 7.54606 19.7235 7.33587C19.7451 7.12567 19.6995 6.91405 19.5934 6.73136L17.5934 3.27136C17.4883 3.08888 17.3282 2.94424 17.1361 2.85805C16.944 2.77186 16.7295 2.74852 16.5234 2.79136L14.6434 3.17136C14.4041 3.22079 14.1551 3.18095 13.9432 3.05936C13.7314 2.93777 13.5714 2.74284 13.4934 2.51136L12.8834 0.68136C12.8163 0.482739 12.6885 0.310225 12.518 0.188202C12.3475 0.0661789 12.143 0.000818796 11.9334 0.00135996H7.93335C7.71529 -0.0100221 7.49949 0.0502863 7.31892 0.173074C7.13835 0.295862 7.00293 0.474379 6.93335 0.68136L6.37335 2.51136C6.29535 2.74284 6.13532 2.93777 5.92347 3.05936C5.71161 3.18095 5.46257 3.22079 5.22335 3.17136L3.29335 2.79136C3.0979 2.76374 2.89865 2.79458 2.7207 2.88C2.54275 2.96542 2.39405 3.10159 2.29335 3.27136L0.293353 6.73136C0.184513 6.91201 0.135575 7.12245 0.153536 7.33258C0.171496 7.54272 0.255436 7.7418 0.393353 7.90136L1.66335 9.34136C1.82367 9.52385 1.91209 9.75845 1.91209 10.0014C1.91209 10.2443 1.82367 10.4789 1.66335 10.6614L0.393353 12.1014C0.255436 12.2609 0.171496 12.46 0.153536 12.6701C0.135575 12.8803 0.184513 13.0907 0.293353 13.2714L2.29335 16.7314C2.39845 16.9138 2.55847 17.0585 2.75061 17.1447C2.94274 17.2309 3.15718 17.2542 3.36335 17.2114L5.24335 16.8314C5.48257 16.7819 5.73161 16.8218 5.94347 16.9434C6.15532 17.0649 6.31535 17.2599 6.39335 17.4914L7.00335 19.3214C7.07293 19.5283 7.20835 19.7069 7.38892 19.8296C7.56949 19.9524 7.78529 20.0127 8.00335 20.0014H12.0034C12.213 20.0019 12.4175 19.9365 12.588 19.8145C12.7585 19.6925 12.8863 19.52 12.9534 19.3214L13.5634 17.4914C13.6414 17.2599 13.8014 17.0649 14.0132 16.9434C14.2251 16.8218 14.4741 16.7819 14.7134 16.8314L16.5934 17.2114C16.7995 17.2542 17.014 17.2309 17.2061 17.1447C17.3982 17.0585 17.5583 16.9138 17.6634 16.7314L19.6634 13.2714C19.7695 13.0887 19.8151 12.877 19.7935 12.6669C19.772 12.4567 19.6844 12.2587 19.5434 12.1014L18.1934 10.6614ZM16.7034 12.0014L17.5034 12.9014L16.2234 15.1214L15.0434 14.8814C14.3231 14.7341 13.5739 14.8565 12.9379 15.2252C12.302 15.5938 11.8235 16.1832 11.5934 16.8814L11.2134 18.0014H8.65335L8.29335 16.8614C8.06321 16.1632 7.58473 15.5738 6.94876 15.2052C6.31278 14.8365 5.56357 14.7141 4.84335 14.8614L3.66335 15.1014L2.36335 12.8914L3.16335 11.9914C3.65531 11.4413 3.92729 10.7293 3.92729 9.99136C3.92729 9.25343 3.65531 8.54138 3.16335 7.99136L2.36335 7.09136L3.64335 4.89136L4.82335 5.13136C5.54357 5.27858 6.29278 5.15624 6.92876 4.78756C7.56473 4.41888 8.04321 3.82952 8.27335 3.13136L8.65335 2.00136H11.2134L11.5934 3.14136C11.8235 3.83952 12.302 4.42888 12.9379 4.79756C13.5739 5.16624 14.3231 5.28858 15.0434 5.14136L16.2234 4.90136L17.5034 7.12136L16.7034 8.02136C16.2169 8.57012 15.9483 9.27804 15.9483 10.0114C15.9483 10.7447 16.2169 11.4526 16.7034 12.0014ZM9.93335 6.00136C9.14223 6.00136 8.36887 6.23596 7.71107 6.67548C7.05327 7.11501 6.54059 7.73972 6.23783 8.47063C5.93508 9.20153 5.85587 10.0058 6.01021 10.7817C6.16455 11.5576 6.54552 12.2704 7.10493 12.8298C7.66434 13.3892 8.37707 13.7702 9.15299 13.9245C9.92892 14.0788 10.7332 13.9996 11.4641 13.6969C12.195 13.3941 12.8197 12.8814 13.2592 12.2236C13.6988 11.5658 13.9334 10.7925 13.9334 10.0014C13.9334 8.94049 13.5119 7.92308 12.7618 7.17293C12.0116 6.42279 10.9942 6.00136 9.93335 6.00136ZM9.93335 12.0014C9.53779 12.0014 9.15111 11.8841 8.82221 11.6643C8.49331 11.4445 8.23697 11.1322 8.08559 10.7667C7.93422 10.4013 7.89461 9.99914 7.97178 9.61118C8.04895 9.22322 8.23943 8.86685 8.51914 8.58715C8.79884 8.30744 9.15521 8.11696 9.54317 8.03979C9.93113 7.96262 10.3333 8.00222 10.6987 8.1536C11.0642 8.30498 11.3765 8.56132 11.5963 8.89022C11.8161 9.21912 11.9334 9.6058 11.9334 10.0014C11.9334 10.5318 11.7226 11.0405 11.3476 11.4156C10.9725 11.7906 10.4638 12.0014 9.93335 12.0014Z" fill="#141414"/>
</svg>
