<svg width="154" height="154" viewBox="0 0 154 154" fill="none" xmlns="http://www.w3.org/2000/svg">
<rect width="154" height="154" rx="15" fill="#A8B9F5"/>
<g clip-path="url(#clip0_1419_11428)">
<mask id="mask0_1419_11428" style="mask-type:luminance" maskUnits="userSpaceOnUse" x="5" y="5" width="144" height="144">
<path d="M149 5H5V149H149V5Z" fill="white"/>
</mask>
<g mask="url(#mask0_1419_11428)">
<path d="M131.51 68.0261C129.861 64.1513 127.491 60.656 124.481 57.6716C121.47 54.6866 117.974 52.3432 114.073 50.7068C110.251 49.1102 106.219 48.2459 102.056 48.1673C101.65 46.6493 101.126 45.1432 100.498 43.6775C98.7567 39.6059 96.283 35.9533 93.1152 32.8117C89.9599 29.6834 86.2814 27.2219 82.1969 25.5068C77.9557 23.7268 73.4654 22.8235 68.8445 22.8235C64.2231 22.8235 59.7199 23.7268 55.4916 25.5068C51.3943 27.2219 47.7283 29.6834 44.5739 32.8117C41.4189 35.9406 38.9316 39.5929 37.1905 43.6775C35.3841 47.9058 34.4674 52.3829 34.4674 57.0037C34.4674 57.8155 34.4936 58.6273 34.5595 59.4391C31.7316 60.9833 29.1525 63.0129 26.9401 65.4475C22.1749 70.723 19.5439 77.5304 19.5439 84.5995C19.5439 88.4742 20.3161 92.2442 21.8349 95.8053C23.3012 99.2219 25.3825 102.286 28.0403 104.916C28.9959 105.859 30.0039 106.723 31.0636 107.522L35.2007 97.9913C31.6792 94.5748 29.4932 89.8358 29.4932 84.5995C29.4932 75.0299 36.8109 67.0968 46.1707 65.9845C45.045 63.2091 44.4167 60.1849 44.4167 57.0037C44.4167 43.6251 55.3477 32.7855 68.8445 32.7855C82.3412 32.7855 93.2718 43.6251 93.2718 57.0037C93.2718 57.894 93.2193 58.7711 93.1152 59.6353C95.6674 58.6535 98.4294 58.0904 101.336 58.0904C113.942 58.0904 124.154 68.2229 124.154 80.7116C124.154 88.3304 120.357 95.0593 114.532 99.1566L112.424 111.357C117.386 109.577 121.889 106.631 125.515 102.678C131.052 96.6695 134.102 88.854 134.102 80.6982C134.102 76.339 133.239 72.0582 131.51 68.0261Z" fill="white"/>
<path d="M88.7295 63.4703C87.3156 63.4703 85.9019 62.8683 84.9201 61.7037C83.1525 59.609 83.4146 56.4673 85.5092 54.6999C90.431 50.5501 96.6756 48.2721 103.116 48.2721C105.866 48.2721 108.091 50.4977 108.091 53.247C108.091 55.9956 105.866 58.2212 103.116 58.2212C99.0188 58.2212 95.0526 59.6741 91.9237 62.3057C91.007 63.0779 89.8686 63.4703 88.7295 63.4703Z" fill="white"/>
<mask id="mask1_1419_11428" style="mask-type:luminance" maskUnits="userSpaceOnUse" x="-59" y="-58" width="217" height="217">
<path d="M-58.4631 -57.2383H157.733V158.958H-58.4631V-57.2383Z" fill="white"/>
</mask>
<g mask="url(#mask1_1419_11428)">
<g opacity="0.0420833">
<path d="M64.4605 120.732L63.5678 121.497L63.6545 120.369C63.6786 120.057 63.4448 119.784 63.1324 119.76C62.8202 119.736 62.5475 119.97 62.5232 120.282L62.3494 122.541L61.764 123.043L61.8222 122.287C61.8462 121.975 61.6125 121.702 61.3002 121.678C60.9877 121.654 60.7151 121.888 60.6912 122.2L60.546 124.087L59.9345 124.611C59.3704 124.107 58.6976 123.777 57.9905 123.627L58.0528 122.822L59.4894 121.591C59.7272 121.387 59.7548 121.029 59.5508 120.791C59.347 120.553 58.9888 120.525 58.751 120.729L58.1758 121.222L58.2348 120.454L59.9549 118.98C60.1928 118.776 60.2204 118.417 60.0166 118.18C59.8126 117.942 59.4545 117.914 59.2165 118.118L58.3579 118.854L58.4482 117.682C58.4723 117.369 58.2384 117.097 57.926 117.072C57.6136 117.048 57.3408 117.282 57.3168 117.595L57.2267 118.767L56.4905 117.908C56.2867 117.67 55.9287 117.643 55.6907 117.847C55.4529 118.051 55.4252 118.409 55.6291 118.646L57.1038 120.367L57.0445 121.135L56.5512 120.56C56.3472 120.322 55.9891 120.295 55.7514 120.499C55.5135 120.703 55.4859 121.061 55.6899 121.298L56.9216 122.735L56.8593 123.54C56.1381 123.58 55.4225 123.804 54.788 124.215L54.264 123.604L54.4091 121.717C54.4334 121.405 54.1994 121.132 53.8871 121.108C53.5748 121.084 53.3021 121.318 53.2779 121.63L53.2199 122.386L52.7183 121.801L52.8918 119.541C52.916 119.229 52.6823 118.956 52.3697 118.932C52.0575 118.908 51.7847 119.142 51.7608 119.454L51.674 120.582L50.9084 119.689C50.7046 119.451 50.3466 119.424 50.1086 119.628C49.8707 119.832 49.843 120.19 50.0468 120.427L50.812 121.32L49.6848 121.234C49.3725 121.209 49.0998 121.443 49.0758 121.756C49.0517 122.068 49.2856 122.341 49.5979 122.365L51.8563 122.539L52.3579 123.124L51.6027 123.066C51.2904 123.042 51.0177 123.276 50.9935 123.588C50.9695 123.9 51.2035 124.173 51.5157 124.197L53.4021 124.342L53.9264 124.954C53.4225 125.518 53.0926 126.191 52.9424 126.897L52.1375 126.835L50.906 125.399C50.7022 125.161 50.344 125.133 50.1061 125.337C49.8681 125.541 49.8406 125.899 50.0444 126.137L50.5378 126.713L49.7696 126.653L48.2952 124.933C48.0913 124.695 47.7332 124.668 47.4952 124.872C47.2574 125.076 47.2299 125.434 47.4337 125.671L48.1698 126.53L46.9968 126.44C46.6844 126.416 46.4117 126.65 46.3876 126.962C46.3637 127.275 46.5975 127.547 46.9098 127.572L48.0822 127.661L47.2234 128.397C46.9859 128.601 46.9583 128.96 47.1621 129.197C47.3661 129.435 47.7243 129.463 47.9619 129.259L49.6817 127.784L50.4504 127.844L49.8752 128.337C49.6372 128.541 49.6096 128.899 49.8135 129.137C50.0174 129.375 50.3756 129.402 50.6135 129.198L52.0502 127.967L52.8554 128.029C52.8957 128.75 53.1188 129.466 53.5304 130.1L52.9191 130.624L51.0323 130.479C50.72 130.455 50.4473 130.688 50.4232 131.001C50.3993 131.313 50.633 131.586 50.9452 131.61L51.7011 131.668L51.116 132.17L48.8566 131.996C48.5442 131.972 48.2716 132.206 48.2475 132.518C48.2236 132.831 48.4573 133.103 48.7696 133.127L49.8975 133.214L49.0043 133.98C48.7665 134.183 48.7388 134.542 48.9427 134.78C49.1467 135.017 49.505 135.045 49.7428 134.841L50.6357 134.076L50.5488 135.203C50.5248 135.516 50.7585 135.788 51.0708 135.812C51.227 135.824 51.3733 135.772 51.4837 135.677C51.5938 135.583 51.668 135.447 51.6803 135.29L51.8541 133.032L52.439 132.53L52.381 133.285C52.3568 133.598 52.5905 133.871 52.903 133.894C53.0593 133.907 53.2055 133.854 53.3158 133.76C53.426 133.665 53.5 133.529 53.5122 133.372L53.6572 131.486L54.2689 130.962C54.8329 131.466 55.5059 131.795 56.2128 131.946L56.1507 132.751L54.7139 133.982C54.476 134.186 54.4485 134.544 54.6525 134.782C54.8563 135.02 55.2143 135.047 55.4523 134.843L56.0276 134.35L55.9687 135.119L54.2483 136.593C54.0105 136.797 53.9828 137.155 54.1866 137.393C54.3906 137.631 54.7487 137.658 54.9865 137.454L55.8454 136.718L55.7551 137.891C55.7312 138.204 55.9649 138.476 56.2773 138.501C56.4335 138.513 56.58 138.46 56.6902 138.366C56.8005 138.271 56.8745 138.135 56.8865 137.978L56.9767 136.806L57.7127 137.664C57.9166 137.902 58.2745 137.93 58.5125 137.726C58.7503 137.522 58.7781 137.164 58.5741 136.926L57.0998 135.206L57.1588 134.438L57.6519 135.013C57.8558 135.251 58.214 135.278 58.452 135.075C58.6898 134.871 58.7172 134.513 58.5134 134.275L57.282 132.838L57.3441 132.033C58.0654 131.992 58.7811 131.769 59.4154 131.358L59.9395 131.969L59.7945 133.856C59.7705 134.168 60.0043 134.441 60.3167 134.465C60.629 134.489 60.9017 134.255 60.9256 133.943L60.9837 133.188L61.4853 133.773L61.3117 136.032C61.2877 136.344 61.5216 136.617 61.834 136.641C62.1464 136.665 62.4191 136.431 62.443 136.118L62.5296 134.991L63.2948 135.884C63.4987 136.122 63.857 136.149 64.0949 135.945C64.3327 135.742 64.3603 135.383 64.1564 135.145L63.3912 134.253L64.5188 134.339C64.6749 134.351 64.8214 134.299 64.9317 134.205C65.0419 134.11 65.1159 133.973 65.1278 133.817C65.152 133.505 64.9183 133.232 64.6058 133.208L62.3469 133.034L61.8452 132.449L62.601 132.507C62.7571 132.519 62.9033 132.467 63.0135 132.372C63.1238 132.278 63.1981 132.141 63.2101 131.985C63.2341 131.672 63.0004 131.4 62.6879 131.376L60.8011 131.231L60.2771 130.619C60.781 130.055 61.1107 129.382 61.2611 128.676L62.0664 128.737L63.2978 130.174C63.5016 130.412 63.8597 130.439 64.0977 130.236C64.3355 130.032 64.3629 129.674 64.1591 129.436L63.6659 128.86L64.4343 128.92L65.9086 130.64C66.1125 130.878 66.4704 130.905 66.7082 130.701C66.9462 130.497 66.974 130.139 66.77 129.901L66.0341 129.043L67.2067 129.133C67.3629 129.145 67.5092 129.093 67.6195 128.998C67.7297 128.904 67.8037 128.767 67.8159 128.611C67.8396 128.298 67.6059 128.026 67.2936 128.001L66.1211 127.911L66.9799 127.175C67.2179 126.971 67.2454 126.613 67.0415 126.375C66.8376 126.137 66.4795 126.11 66.2415 126.314L64.5213 127.788L63.753 127.729L64.3285 127.236C64.5663 127.032 64.5937 126.674 64.3899 126.436C64.1859 126.198 63.8279 126.171 63.5901 126.374L62.1533 127.606L61.3481 127.544C61.3077 126.823 61.0845 126.107 60.673 125.473L61.2845 124.949L63.1712 125.094C63.3274 125.106 63.4737 125.053 63.584 124.959C63.6942 124.864 63.7683 124.728 63.7803 124.571C63.8042 124.259 63.5705 123.986 63.2583 123.962L62.5028 123.904L63.0879 123.403L65.3468 123.577C65.5029 123.588 65.6491 123.536 65.7594 123.441C65.8696 123.347 65.9436 123.21 65.9558 123.054C65.9798 122.742 65.7461 122.469 65.4336 122.445L64.3063 122.359L65.1992 121.593C65.437 121.389 65.4645 121.031 65.2606 120.793C65.0566 120.555 64.6985 120.528 64.4605 120.732ZM59.0623 125.359L57.7722 126.464L57.9026 124.772C58.3189 124.882 58.7152 125.078 59.0623 125.359ZM56.7713 124.685L56.6411 126.377L55.5354 125.087C55.9213 124.863 56.3431 124.73 56.7713 124.685ZM54.6738 125.826L55.7795 127.116L54.087 126.985C54.1969 126.569 54.3932 126.173 54.6738 125.826ZM53.9998 128.117L55.6926 128.247L54.4025 129.353C54.1782 128.967 54.045 128.545 53.9998 128.117ZM55.141 130.214L56.4311 129.109L56.3007 130.801C55.8846 130.691 55.4881 130.495 55.141 130.214ZM57.4323 130.888L57.5622 129.196L58.6679 130.486C58.282 130.71 57.8604 130.843 57.4323 130.888ZM59.5295 129.747L58.4237 128.457L60.1166 128.588C60.0065 129.004 59.8102 129.4 59.5295 129.747ZM60.2035 127.456L58.5109 127.326L59.8008 126.22C60.0251 126.606 60.1584 127.028 60.2035 127.456Z" fill="#FEFEFF"/>
</g>
</g>
<mask id="mask2_1419_11428" style="mask-type:luminance" maskUnits="userSpaceOnUse" x="-10" y="-58" width="217" height="217">
<path d="M206.579 -57.2383H-9.61777V158.958H206.579V-57.2383Z" fill="white"/>
</mask>
<g mask="url(#mask2_1419_11428)">
<g opacity="0.70875">
<path d="M91.5011 110.13L91.8499 111.253L92.3765 110.252C92.5223 109.975 92.8653 109.868 93.1427 110.014C93.4197 110.16 93.5263 110.503 93.3807 110.78L92.326 112.785L92.5547 113.522L92.9076 112.851C93.0534 112.573 93.3964 112.467 93.6736 112.613C93.9509 112.759 94.0573 113.102 93.9113 113.379L93.0306 115.054L93.2695 115.823C94.0151 115.696 94.7604 115.775 95.439 116.024L95.8146 115.309L95.2533 113.502C95.1604 113.203 95.3277 112.885 95.627 112.792C95.9261 112.699 96.2439 112.866 96.3368 113.165L96.5616 113.889L96.9204 113.207L96.2483 111.044C96.1553 110.744 96.3226 110.426 96.6217 110.333C96.921 110.24 97.2389 110.408 97.3318 110.707L97.6673 111.787L98.2146 110.746C98.3604 110.469 98.7036 110.362 98.981 110.508C99.2582 110.654 99.3648 110.997 99.219 111.274L98.6715 112.315L99.7518 111.979C100.051 111.886 100.369 112.054 100.462 112.353C100.554 112.652 100.387 112.97 100.088 113.063L97.9244 113.735L97.5658 114.417L98.2895 114.193C98.5887 114.1 98.9067 114.267 98.9994 114.566C99.0924 114.865 98.9251 115.183 98.6259 115.276L96.8188 115.837L96.443 116.552C97.0323 116.97 97.5195 117.539 97.8378 118.226L98.6066 117.987L99.4878 116.312C99.6334 116.034 99.9767 115.928 100.254 116.074C100.531 116.22 100.638 116.563 100.492 116.84L100.139 117.511L100.875 117.282L101.93 115.277C102.076 115 102.419 114.893 102.696 115.039C102.973 115.185 103.08 115.528 102.934 115.805L102.407 116.806L103.531 116.457C103.83 116.364 104.148 116.531 104.241 116.831C104.334 117.13 104.167 117.448 103.867 117.541L102.745 117.89L103.745 118.416C104.022 118.562 104.129 118.905 103.983 119.182C103.837 119.459 103.494 119.566 103.217 119.42L101.212 118.366L100.476 118.594L101.146 118.947C101.424 119.093 101.53 119.436 101.384 119.713C101.239 119.99 100.895 120.097 100.618 119.951L98.9438 119.07L98.1744 119.309C98.3011 120.055 98.2224 120.8 97.9735 121.479L98.688 121.854L100.495 121.293C100.794 121.2 101.112 121.367 101.205 121.666C101.298 121.966 101.131 122.284 100.832 122.377L100.108 122.602L100.79 122.96L102.954 122.288C103.253 122.195 103.57 122.362 103.663 122.661C103.756 122.961 103.589 123.278 103.29 123.371L102.21 123.707L103.251 124.255C103.528 124.4 103.635 124.743 103.489 125.021C103.343 125.298 103 125.405 102.723 125.259L101.682 124.711L102.018 125.791C102.11 126.09 101.943 126.408 101.644 126.501C101.345 126.594 101.027 126.427 100.934 126.128L100.262 123.964L99.5801 123.606L99.8049 124.329C99.8978 124.628 99.7306 124.946 99.4315 125.039C99.1322 125.132 98.8143 124.965 98.7214 124.666L98.16 122.859L97.4453 122.483C97.0274 123.072 96.4576 123.559 95.7716 123.878L96.0105 124.646L97.6854 125.527C97.9626 125.673 98.0691 126.016 97.9235 126.293C97.7775 126.571 97.4345 126.677 97.1573 126.531L96.4864 126.179L96.715 126.914L98.7204 127.969C98.9977 128.115 99.104 128.459 98.9584 128.736C98.8124 129.013 98.4694 129.12 98.1922 128.974L97.1911 128.447L97.54 129.57C97.6329 129.87 97.4659 130.188 97.1666 130.28C96.8673 130.373 96.5492 130.206 96.4563 129.907L96.1075 128.784L95.5813 129.785C95.4354 130.062 95.0925 130.169 94.8152 130.023C94.6766 129.95 94.5805 129.828 94.5374 129.689C94.4943 129.55 94.5042 129.395 94.5768 129.257L95.6314 127.252L95.4029 126.516L95.0502 127.186C94.9044 127.464 94.5615 127.57 94.2842 127.424C94.1454 127.351 94.0494 127.229 94.0063 127.09C93.9633 126.952 93.9733 126.797 94.0461 126.658L94.9269 124.984L94.6879 124.214C93.9424 124.341 93.197 124.262 92.5185 124.013L92.1429 124.728L92.7043 126.535C92.7972 126.834 92.6299 127.152 92.3306 127.245C92.0315 127.338 91.7137 127.171 91.6207 126.871L91.396 126.148L91.0372 126.83L91.7093 128.993C91.8022 129.293 91.6352 129.61 91.3361 129.703C91.0368 129.796 90.7189 129.629 90.626 129.33L90.2904 128.25L89.7429 129.291C89.5969 129.568 89.2539 129.675 88.9765 129.529C88.8378 129.456 88.7417 129.334 88.6986 129.195C88.6555 129.056 88.6655 128.901 88.7384 128.763L89.2859 127.722L88.206 128.057C87.9067 128.15 87.5891 127.983 87.4961 127.684C87.4032 127.385 87.5701 127.067 87.8694 126.974L90.0329 126.302L90.3916 125.62L89.668 125.845C89.3689 125.938 89.0509 125.77 88.9579 125.471C88.865 125.172 89.0323 124.854 89.3314 124.761L91.1384 124.2L91.5143 123.485C90.9251 123.067 90.4377 122.498 90.1195 121.811L89.3505 122.05L88.4695 123.725C88.3237 124.002 87.9805 124.109 87.7033 123.963C87.4261 123.817 87.3195 123.474 87.4655 123.197L87.8182 122.526L87.0822 122.755L86.0273 124.76C85.8815 125.037 85.5383 125.144 85.261 124.998C84.9838 124.852 84.8772 124.509 85.0233 124.232L85.5497 123.231L84.4268 123.58C84.1275 123.673 83.8095 123.506 83.7165 123.206C83.6236 122.907 83.7909 122.589 84.0902 122.496L85.2131 122.147L84.2122 121.621C84.0736 121.548 83.9773 121.426 83.9342 121.287C83.8911 121.148 83.9013 120.993 83.9743 120.855C84.12 120.577 84.463 120.471 84.7403 120.617L86.7455 121.671L87.4817 121.443L86.8108 121.09C86.6723 121.017 86.5764 120.895 86.5334 120.756C86.4903 120.617 86.5 120.462 86.5729 120.323C86.7188 120.046 87.0617 119.94 87.339 120.086L89.0138 120.967L89.7829 120.728C89.6563 119.982 89.7352 119.237 89.9839 118.558L89.2691 118.182L87.4621 118.744C87.163 118.836 86.845 118.669 86.7521 118.37C86.6591 118.071 86.8265 117.753 87.1256 117.66L87.8492 117.435L87.1672 117.077L85.0037 117.749C84.7045 117.842 84.3869 117.675 84.2939 117.375C84.201 117.076 84.3679 116.758 84.6672 116.665L85.7471 116.33L84.7063 115.782C84.5676 115.709 84.4715 115.587 84.4284 115.449C84.3854 115.31 84.3954 115.155 84.4682 115.016C84.6143 114.739 84.9573 114.632 85.2346 114.778L86.2753 115.326L85.9398 114.245C85.8468 113.946 86.014 113.628 86.3133 113.535C86.6124 113.442 86.9303 113.61 87.0233 113.909L87.6954 116.072L88.3774 116.431L88.1526 115.707C88.0598 115.408 88.2271 115.09 88.5262 114.997C88.8254 114.905 89.1432 115.072 89.2361 115.371L89.7974 117.178L90.5121 117.554C90.9302 116.965 91.4998 116.478 92.1858 116.159L91.9469 115.39L90.2723 114.509C90.1335 114.436 90.0376 114.314 89.9944 114.175C89.9514 114.037 89.9612 113.882 90.0343 113.743C90.1803 113.466 90.5233 113.359 90.8003 113.505L91.4708 113.858L91.2423 113.122L89.2372 112.067C89.0987 111.994 89.0028 111.872 88.9597 111.733C88.9166 111.595 88.9267 111.44 88.9995 111.301C89.1453 111.024 89.4883 110.917 89.7656 111.063L90.7662 111.59L90.4174 110.466C90.3244 110.167 90.4917 109.849 90.791 109.756C91.0903 109.663 91.4082 109.831 91.5011 110.13ZM93.6102 116.92L94.1143 118.542L94.9045 117.04C94.4935 116.911 94.0536 116.867 93.6102 116.92ZM95.9087 117.568L95.1185 119.07L96.7409 118.566C96.5335 118.171 96.2473 117.834 95.9087 117.568ZM97.0776 119.65L95.4551 120.154L96.9575 120.944C97.0859 120.533 97.1305 120.093 97.0776 119.65ZM96.4293 121.949L94.9269 121.158L95.4309 122.781C95.8262 122.573 96.1633 122.287 96.4293 121.949ZM94.3472 123.117L93.8432 121.495L93.053 122.997C93.4639 123.125 93.9039 123.17 94.3472 123.117ZM92.0485 122.469L92.839 120.967L91.2165 121.471C91.424 121.866 91.7099 122.203 92.0485 122.469ZM90.8799 120.387L92.5025 119.883L90.9997 119.093C90.8714 119.504 90.8269 119.944 90.8799 120.387ZM91.5281 118.089L93.0305 118.879L92.5265 117.256C92.1312 117.464 91.7941 117.75 91.5281 118.089Z" fill="#FEFEFF"/>
</g>
</g>
</g>
</g>
<defs>
<clipPath id="clip0_1419_11428">
<rect width="144" height="144" fill="white" transform="translate(5 5)"/>
</clipPath>
</defs>
</svg>
