<svg width="20" height="16" viewBox="0 0 20 16" fill="none" xmlns="http://www.w3.org/2000/svg">
<path d="M11.002 4.00689C14.1706 4.00689 15.968 6.10418 16.2294 8.63702L16.3094 8.63701C18.3485 8.63701 20.0015 10.2857 20.0015 12.3195C20.0015 14.3533 18.3485 16.0021 16.3094 16.0021H5.69467C3.65559 16.0021 2.00259 14.3533 2.00259 12.3195C2.00259 10.2857 3.65559 8.63701 5.69469 8.63701L5.77464 8.63702C6.03757 6.08753 7.83351 4.00689 11.002 4.00689ZM11.002 5.50448C8.93071 5.50448 7.12533 7.13772 7.12533 9.3937C7.12533 9.75115 6.80638 10.0316 6.44117 10.0316L5.75061 10.0316C4.48962 10.0316 3.46738 11.0329 3.46738 12.268C3.46738 13.5032 4.48962 14.5045 5.75061 14.5045H16.2535C17.5145 14.5045 18.5367 13.5032 18.5367 12.268C18.5367 11.0329 17.5145 10.0316 16.2535 10.0316L15.5629 10.0316C15.1977 10.0316 14.8787 9.75115 14.8787 9.3937C14.8787 7.10878 13.0734 5.50448 11.002 5.50448ZM2.36766 8.16233C2.51297 8.51312 2.37237 8.911 2.05317 9.09698L1.96177 9.14225L1.0355 9.52592C0.652817 9.68443 0.21409 9.50271 0.0555777 9.12002C-0.0897256 8.76923 0.0508663 8.37135 0.370071 8.18537L0.461475 8.1401L1.38774 7.75643C1.77042 7.59792 2.20915 7.77964 2.36766 8.16233ZM8.85465 3.32912L8.68307 3.3867C8.14899 3.57538 7.66027 3.83077 7.22278 4.14477C6.68936 3.9709 6.09307 3.97925 5.53358 4.211C4.28779 4.72702 3.6962 6.15525 4.21222 7.40104C4.27283 7.54736 4.34602 7.68466 4.43002 7.8122C3.9378 7.9496 3.47684 8.16805 3.06348 8.45148C2.97466 8.30131 2.89547 8.14182 2.8264 7.97507C1.99335 5.96391 2.9484 3.65823 4.95956 2.82518C6.30185 2.26918 7.77535 2.5097 8.85465 3.32912ZM0.940914 3.3602L1.04642 3.3951L1.97269 3.77877C2.35537 3.93729 2.53709 4.37601 2.37858 4.7587C2.23448 5.10659 1.8588 5.2884 1.50417 5.19949L1.39866 5.16459L0.472394 4.78092C0.0897109 4.62241 -0.0920154 4.18368 0.0664972 3.801C0.2106 3.4531 0.586283 3.27129 0.940914 3.3602ZM4.75614 0.373778L4.80141 0.465181L5.18508 1.39145C5.34359 1.77413 5.16187 2.21286 4.77918 2.37137C4.42839 2.51667 4.03051 2.37608 3.84453 2.05688L3.79926 1.96547L3.41559 1.03921C3.25708 0.656523 3.4388 0.217797 3.82149 0.0592841C4.17228 -0.0860192 4.57017 0.054573 4.75614 0.373778ZM9.10948 0.0552725C9.45737 0.199375 9.63919 0.575059 9.55028 0.92969L9.51538 1.03519L9.13171 1.96146C8.97319 2.34414 8.53447 2.52587 8.15178 2.36736C7.80389 2.22326 7.62208 1.84757 7.71099 1.49294L7.74589 1.38744L8.12956 0.46117C8.28807 0.0784862 8.7268 -0.10324 9.10948 0.0552725Z" fill="#6E78E1"/>
</svg>
