<svg width="154" height="154" viewBox="0 0 154 154" fill="none" xmlns="http://www.w3.org/2000/svg">
<rect width="154" height="154" rx="15" fill="#A8B9F5"/>
<g clip-path="url(#clip0_1419_11426)">
<mask id="mask0_1419_11426" style="mask-type:luminance" maskUnits="userSpaceOnUse" x="5" y="5" width="144" height="144">
<path d="M149 5H5V149H149V5Z" fill="white"/>
</mask>
<g mask="url(#mask0_1419_11426)">
<path d="M132.532 68.8311C130.856 64.891 128.447 61.3563 125.384 58.3194C122.334 55.2954 118.773 52.9124 114.819 51.2505C110.892 49.6007 106.742 48.7365 102.462 48.6578C102.043 47.0611 101.493 45.49 100.839 43.9456C99.0713 39.8087 96.5581 36.1038 93.3505 32.9232C90.1435 29.7418 86.4126 27.2547 82.2628 25.5136C77.9557 23.7072 73.4002 22.7905 68.6999 22.7905C64.0008 22.7905 59.4452 23.7072 55.1383 25.5136C50.9884 27.2547 47.2574 29.7547 44.0506 32.9232C40.843 36.1038 38.3163 39.8087 36.5623 43.9456C34.7297 48.2393 33.8002 52.7947 33.8002 57.4814C33.8002 58.3584 33.8392 59.2227 33.9051 60.0868C30.9857 61.6708 28.3281 63.7386 26.0633 66.2527C21.2194 71.6065 18.5623 78.5054 18.5623 85.6658C18.5623 89.5931 19.3479 93.4163 20.8921 97.0291C22.3719 100.485 24.4921 103.601 27.189 106.271C28.1446 107.214 29.1526 108.091 30.213 108.889L34.3499 99.3594C30.7628 95.8772 28.5115 91.0205 28.5115 85.6792C28.5115 75.9136 35.9863 67.7969 45.5423 66.6712C44.4039 63.8307 43.7493 60.7414 43.7493 57.4942C43.7493 43.8275 54.9157 32.7525 68.6999 32.7525C82.4853 32.7525 93.6514 43.8275 93.6514 57.4942C93.6514 58.4109 93.5992 59.3012 93.4948 60.1911C96.0995 59.1963 98.9275 58.6205 101.899 58.6205C114.768 58.6205 125.214 68.9622 125.214 81.7386C125.214 89.5152 121.339 96.4005 115.396 100.59L113.288 112.817C118.289 111.01 122.805 108.025 126.457 104.046C132.074 97.9456 135.163 90.0253 135.163 81.7386C135.163 77.2616 134.273 72.9156 132.532 68.8311Z" fill="white"/>
<path d="M88.0615 64.0529C86.6475 64.0529 85.2343 63.4508 84.2525 62.2855C82.4852 60.191 82.7464 57.0493 84.8409 55.282C89.8423 51.0671 96.2042 48.7366 102.763 48.7366C105.512 48.7366 107.737 50.9622 107.737 53.7114C107.737 56.4607 105.512 58.6855 102.763 58.6855C98.5602 58.6855 94.4631 60.1782 91.2557 62.8878C90.3264 63.6607 89.1879 64.0529 88.0615 64.0529Z" fill="white"/>
<mask id="mask1_1419_11426" style="mask-type:luminance" maskUnits="userSpaceOnUse" x="-18" y="6" width="145" height="145">
<path d="M-17.9092 6.30908H126.091V150.309H-17.9092V6.30908Z" fill="white"/>
</mask>
<g mask="url(#mask1_1419_11426)">
<path d="M40.1422 131.484C39.3566 131.484 38.5582 131.301 37.8124 130.895C35.3904 129.599 34.4735 126.588 35.7564 124.167L38.2969 119.401C39.5926 116.98 42.6038 116.063 45.0251 117.346C47.4471 118.643 48.3636 121.653 47.0807 124.075L44.5413 128.84C43.6508 130.529 41.9231 131.484 40.1422 131.484Z" fill="white"/>
</g>
<mask id="mask2_1419_11426" style="mask-type:luminance" maskUnits="userSpaceOnUse" x="6" y="6" width="145" height="145">
<path d="M6.22729 6.30908H150.227V150.309H6.22729V6.30908Z" fill="white"/>
</mask>
<g mask="url(#mask2_1419_11426)">
<path d="M64.2787 131.484C63.4931 131.484 62.6947 131.301 61.9488 130.895C59.5269 129.599 58.61 126.588 59.8929 124.167L62.4334 119.401C63.729 116.98 66.7403 116.063 69.1616 117.346C71.5836 118.643 72.5001 121.653 71.2172 124.075L68.6777 128.84C67.7872 130.529 66.0596 131.484 64.2787 131.484Z" fill="white"/>
</g>
<mask id="mask3_1419_11426" style="mask-type:luminance" maskUnits="userSpaceOnUse" x="30" y="6" width="145" height="145">
<path d="M30.2 6.30908H174.2V150.309H30.2V6.30908Z" fill="white"/>
</mask>
<g mask="url(#mask3_1419_11426)">
<path d="M88.2514 131.484C87.4657 131.484 86.6674 131.301 85.9215 130.895C83.4995 129.599 82.5827 126.588 83.8656 124.167L86.406 119.401C87.7017 116.98 90.7129 116.063 93.1343 117.346C95.5562 118.643 96.4728 121.653 95.1899 124.075L92.6504 128.84C91.7599 130.529 90.0322 131.484 88.2514 131.484Z" fill="white"/>
</g>
<mask id="mask4_1419_11426" style="mask-type:luminance" maskUnits="userSpaceOnUse" x="-11" y="-13" width="145" height="145">
<path d="M-10.4636 -12.5909H133.536V131.409H-10.4636V-12.5909Z" fill="white"/>
</mask>
<g mask="url(#mask4_1419_11426)">
<path d="M50.9274 106.472C50.1418 106.472 49.3434 106.289 48.5975 105.883C46.1755 104.587 45.2587 101.576 46.5416 99.1543L49.0821 94.389C50.3777 91.9677 53.389 91.051 55.8103 92.3339C58.2323 93.6302 59.1488 96.6408 57.8659 99.0628L55.3264 103.827C54.4359 105.516 52.7082 106.472 50.9274 106.472Z" fill="white"/>
</g>
<mask id="mask5_1419_11426" style="mask-type:luminance" maskUnits="userSpaceOnUse" x="13" y="-13" width="145" height="145">
<path d="M13.7544 -12.5909H157.754V131.409H13.7544V-12.5909Z" fill="white"/>
</mask>
<g mask="url(#mask5_1419_11426)">
<path d="M71.8058 112.584C71.0202 112.584 70.2218 112.401 69.4759 111.995C67.054 110.699 66.1371 107.688 67.42 105.267L69.9605 100.501C71.2561 98.08 74.2674 97.1633 76.6887 98.4462C79.1107 99.7425 80.0272 102.753 78.7443 105.175L76.2048 109.94C75.3143 111.629 73.5867 112.584 71.8058 112.584Z" fill="white"/>
</g>
<mask id="mask6_1419_11426" style="mask-type:luminance" maskUnits="userSpaceOnUse" x="37" y="-13" width="145" height="145">
<path d="M37.7273 -12.5909H181.727V131.409H37.7273V-12.5909Z" fill="white"/>
</mask>
<g mask="url(#mask6_1419_11426)">
<g opacity="0.8325">
<path d="M101.118 102.812C100.332 102.812 99.5338 102.629 98.788 102.223C96.366 100.927 95.4491 97.916 96.732 95.4942L99.2725 90.729C100.568 88.3076 103.579 87.3909 106.001 88.6739C108.423 89.9702 109.339 92.9808 108.056 95.4027L105.517 100.167C104.626 101.856 102.899 102.812 101.118 102.812Z" fill="white"/>
</g>
</g>
</g>
</g>
<defs>
<clipPath id="clip0_1419_11426">
<rect width="144" height="144" fill="white" transform="translate(5 5)"/>
</clipPath>
</defs>
</svg>
