<svg width="158" height="282" viewBox="0 0 158 282" fill="none" xmlns="http://www.w3.org/2000/svg">
<rect x="1" y="1" width="156" height="279.652" rx="9" stroke="#E9E9E9" stroke-width="2" stroke-dasharray="10 10"/>
<path d="M55.8389 146.076V155.744H54.2129V150.896H51.8691V149.577H54.2129V146.076H55.8389ZM56.1758 157.722V159.04H47.1523V154.895H48.7783V157.722H56.1758ZM49.6133 148.713C49.6133 150.31 50.6826 151.95 52.7334 152.624L51.9131 153.928C50.4336 153.422 49.3862 152.419 48.8076 151.159C48.2217 152.558 47.1157 153.664 45.5557 154.206L44.7207 152.888C46.8301 152.199 47.958 150.456 47.958 148.698V148.347H45.2041V147.028H52.3525V148.347H49.6133V148.713ZM68.7441 146.076V155.744H67.1035V146.076H68.7441ZM69.1104 157.722V159.04H59.9844V154.821H61.625V157.722H69.1104ZM62.6504 148.098C62.6504 149.943 63.7344 151.687 65.8291 152.39L64.9941 153.679C63.4854 153.151 62.4087 152.097 61.8301 150.749C61.2295 152.192 60.1382 153.349 58.5781 153.913L57.7285 152.624C59.8818 151.862 60.9658 150.002 60.9658 148.098V146.809H62.6504V148.098ZM78.9688 149.24C78.9541 151.599 80.1406 154.001 82.1914 154.982L81.1953 156.286C79.7598 155.561 78.7271 154.162 78.1631 152.478C77.5845 154.279 76.5005 155.773 74.9844 156.535L73.9883 155.231C76.1123 154.221 77.3281 151.687 77.3428 149.24V147.131H78.9688V149.24ZM84.6084 146.062V151.247H86.6445V152.639H84.6084V159.304H82.9824V146.062H84.6084ZM92.2256 148.757C92.2256 150.397 93.3535 152.009 95.4629 152.668L94.6279 153.942C93.1265 153.452 92.0352 152.463 91.4346 151.203C90.834 152.573 89.7134 153.664 88.1387 154.206L87.3037 152.917C89.4277 152.214 90.5703 150.5 90.585 148.757V148.376H87.7285V147.072H95.0088V148.376H92.2256V148.757ZM98.2314 146.076V155.686H96.5908V146.076H98.2314ZM98.5977 157.722V159.04H89.4717V154.807H91.1123V157.722H98.5977ZM106.186 146.267C109.203 146.267 110.946 147.072 110.961 148.537C110.946 150.017 109.203 150.808 106.186 150.822C103.168 150.808 101.41 150.017 101.41 148.537C101.41 147.072 103.168 146.267 106.186 146.267ZM106.186 147.468C104.164 147.468 103.109 147.849 103.124 148.537C103.109 149.27 104.164 149.606 106.186 149.606C108.236 149.606 109.276 149.27 109.276 148.537C109.276 147.849 108.236 147.468 106.186 147.468ZM112.235 151.525V152.829H100.165V151.525H112.235ZM110.727 153.723V156.96H103.197V157.941H111.093V159.187H101.601V155.803H109.13V154.924H101.586V153.723H110.727ZM58.6001 177.016V178.349H53.356V182.318H51.7446V178.349H46.5298V177.016H58.6001ZM57.4722 170.629V171.918H53.3853C53.5391 173.229 55.2603 174.599 57.9116 174.921L57.311 176.21C55.1211 175.932 53.4219 174.965 52.5649 173.69C51.6934 174.979 49.9795 175.932 47.7749 176.21L47.189 174.921C49.833 174.599 51.5688 173.251 51.73 171.918H47.6431V170.629H51.7446V169.076H53.356V170.629H57.4722ZM69.8647 169.062V174.232H71.8276V175.595H69.8647V182.274H68.2388V169.062H69.8647ZM66.3638 170.438C66.3638 174.335 64.7524 177.748 60.3433 179.916L59.4204 178.656C62.6431 177.052 64.3862 174.796 64.7231 171.786H60.1382V170.438H66.3638ZM82.8286 169.062V174.335H84.8647V175.683H82.8286V182.304H81.2173V169.062H82.8286ZM80.1919 171.098V172.401H72.3843V171.098H75.519V169.252H77.145V171.098H80.1919ZM76.3394 173.266C78.2437 173.266 79.6646 174.555 79.6646 176.386C79.6646 178.217 78.2437 179.491 76.3394 179.491C74.4058 179.491 72.9849 178.217 72.9995 176.386C72.9849 174.555 74.4058 173.266 76.3394 173.266ZM76.3394 174.599C75.2993 174.599 74.5522 175.302 74.5522 176.386C74.5522 177.47 75.2993 178.158 76.3394 178.144C77.3501 178.158 78.0972 177.47 78.1118 176.386C78.0972 175.302 77.3501 174.599 76.3394 174.599ZM89.5522 172.533C89.5522 174.672 90.2993 176.898 92.0864 178.026L91.1929 179.271C89.999 178.554 89.2227 177.316 88.7905 175.858C88.3071 177.462 87.4575 178.817 86.2124 179.579L85.2017 178.363C87.1206 177.191 87.9849 174.862 87.9849 172.606V170.233H89.5522V172.533ZM96.8472 169.062V182.304H95.2798V169.062H96.8472ZM94.0933 169.296V181.659H92.5552V174.965H90.6655V173.617H92.5552V169.296H94.0933ZM110.485 179.359V180.692H98.3853V179.359H101.183V176.005C100.128 175.404 99.4912 174.459 99.4985 173.28C99.4839 171.171 101.564 169.779 104.406 169.779C107.262 169.779 109.342 171.171 109.342 173.28C109.342 174.438 108.727 175.368 107.702 175.976V179.359H110.485ZM104.406 171.068C102.428 171.068 101.081 171.903 101.095 173.28C101.081 174.643 102.428 175.492 104.406 175.492C106.383 175.492 107.746 174.643 107.746 173.28C107.746 171.903 106.383 171.068 104.406 171.068ZM102.794 179.359H106.046V176.591C105.541 176.708 104.992 176.767 104.406 176.767C103.834 176.767 103.292 176.708 102.794 176.605V179.359Z" fill="#E9E9E9"/>
<path d="M89.2857 107.714H80.7143V116.286C80.7143 116.74 80.5337 117.176 80.2122 117.498C79.8907 117.819 79.4547 118 79 118C78.5453 118 78.1093 117.819 77.7878 117.498C77.4663 117.176 77.2857 116.74 77.2857 116.286V107.714H68.7143C68.2596 107.714 67.8236 107.534 67.5021 107.212C67.1806 106.891 67 106.455 67 106C67 105.545 67.1806 105.109 67.5021 104.788C67.8236 104.466 68.2596 104.286 68.7143 104.286H77.2857V95.7143C77.2857 95.2596 77.4663 94.8236 77.7878 94.5021C78.1093 94.1806 78.5453 94 79 94C79.4547 94 79.8907 94.1806 80.2122 94.5021C80.5337 94.8236 80.7143 95.2596 80.7143 95.7143V104.286H89.2857C89.7404 104.286 90.1764 104.466 90.4979 104.788C90.8194 105.109 91 105.545 91 106C91 106.455 90.8194 106.891 90.4979 107.212C90.1764 107.534 89.7404 107.714 89.2857 107.714Z" fill="#E9E9E9"/>
</svg>
