<svg width="84" height="84" viewBox="0 0 84 84" fill="none" xmlns="http://www.w3.org/2000/svg">
<g filter="url(#filter0_d_781_28333)">
<circle cx="41" cy="37" r="32" fill="#829BF0"/>
<path d="M54.7143 39.2857H43.2857V50.7143C43.2857 51.3205 43.0449 51.9019 42.6162 52.3305C42.1876 52.7592 41.6062 53 41 53C40.3938 53 39.8124 52.7592 39.3838 52.3305C38.9551 51.9019 38.7143 51.3205 38.7143 50.7143V39.2857H27.2857C26.6795 39.2857 26.0981 39.0449 25.6695 38.6162C25.2408 38.1876 25 37.6062 25 37C25 36.3938 25.2408 35.8124 25.6695 35.3838C26.0981 34.9551 26.6795 34.7143 27.2857 34.7143H38.7143V23.2857C38.7143 22.6795 38.9551 22.0981 39.3838 21.6695C39.8124 21.2408 40.3938 21 41 21C41.6062 21 42.1876 21.2408 42.6162 21.6695C43.0449 22.0981 43.2857 22.6795 43.2857 23.2857V34.7143H54.7143C55.3205 34.7143 55.9019 34.9551 56.3305 35.3838C56.7592 35.8124 57 36.3938 57 37C57 37.6062 56.7592 38.1876 56.3305 38.6162C55.9019 39.0449 55.3205 39.2857 54.7143 39.2857Z" fill="#EDEEFA"/>
</g>
<defs>
<filter id="filter0_d_781_28333" x="0" y="0" width="84" height="84" filterUnits="userSpaceOnUse" color-interpolation-filters="sRGB">
<feFlood flood-opacity="0" result="BackgroundImageFix"/>
<feColorMatrix in="SourceAlpha" type="matrix" values="0 0 0 0 0 0 0 0 0 0 0 0 0 0 0 0 0 0 127 0" result="hardAlpha"/>
<feOffset dx="1" dy="5"/>
<feGaussianBlur stdDeviation="5"/>
<feComposite in2="hardAlpha" operator="out"/>
<feColorMatrix type="matrix" values="0 0 0 0 0.369278 0 0 0 0 0.379051 0 0 0 0 0.481667 0 0 0 0.2 0"/>
<feBlend mode="normal" in2="BackgroundImageFix" result="effect1_dropShadow_781_28333"/>
<feBlend mode="normal" in="SourceGraphic" in2="effect1_dropShadow_781_28333" result="shape"/>
</filter>
</defs>
</svg>
