<svg width="154" height="154" viewBox="0 0 154 154" fill="none" xmlns="http://www.w3.org/2000/svg">
<rect width="154" height="154" rx="15" fill="#A8B9F5"/>
<g clip-path="url(#clip0_1419_11430)">
<mask id="mask0_1419_11430" style="mask-type:luminance" maskUnits="userSpaceOnUse" x="5" y="5" width="144" height="144">
<path d="M149 5H5V149H149V5Z" fill="white"/>
</mask>
<g mask="url(#mask0_1419_11430)">
<path d="M52.7629 68.6569C60.8036 68.6569 67.3181 75.2396 67.3181 83.364C67.3181 83.903 67.2877 84.4422 67.2269 84.9661C68.7454 84.3736 70.3931 84.0321 72.1244 84.0321C79.6333 84.0321 85.7227 90.1824 85.7227 97.7751C85.7227 104.904 80.3471 110.766 73.4679 111.45C73.0735 111.495 72.671 111.518 72.2608 111.518H40.5916C34.3883 111.518 29.3163 106.392 29.3163 100.128C29.3163 94.3201 33.6747 89.4986 39.2555 88.8232C38.587 87.1375 38.2074 85.3 38.2074 83.3714C38.2152 75.2396 44.7297 68.6569 52.7629 68.6569ZM52.7629 62.8862C50.0143 62.8862 47.3416 63.4332 44.8283 64.5035C42.4064 65.5364 40.2349 67.0168 38.3667 68.8997C36.5068 70.7827 35.049 72.9692 34.0239 75.4068C32.9685 77.9274 32.4294 80.6076 32.4294 83.3562C32.4294 83.9105 32.4524 84.4648 32.4976 85.019C30.774 85.9607 29.2025 87.2056 27.8664 88.709C25.0721 91.8603 23.5383 95.9073 23.5383 100.113C23.5383 102.414 23.9862 104.654 24.8822 106.772C25.7401 108.807 26.9625 110.644 28.5192 112.216C30.0834 113.795 31.8977 115.041 33.9253 115.907C36.036 116.81 38.2759 117.273 40.5764 117.273H72.2456C72.8302 117.273 73.4379 117.242 74.0526 117.174C78.8133 116.696 83.2173 114.464 86.4442 110.888C89.6937 107.289 91.4781 102.634 91.4781 97.7673C91.4781 95.1401 90.9694 92.5965 89.9595 90.1898C88.9879 87.8662 87.5983 85.7783 85.8213 83.9939C84.0449 82.2022 81.9721 80.7901 79.6637 79.8027C77.3633 78.8236 74.9336 78.2993 72.428 78.2615C72.1774 77.2898 71.8585 76.3407 71.4711 75.4068C70.4538 72.9692 68.9883 70.7827 67.1283 68.8997C65.268 67.0168 63.0888 65.5364 60.6667 64.5035C58.1839 63.4332 55.519 62.8862 52.7629 62.8862Z" fill="white"/>
<path d="M63.9545 87.2513C63.1422 87.2513 62.3374 86.91 61.7679 86.2493C60.7276 85.0421 60.8644 83.2196 62.0715 82.1797C64.987 79.6739 68.7078 78.2921 72.5341 78.2921C74.1287 78.2921 75.4197 79.583 75.4197 81.1772C75.4197 82.7717 74.1287 84.0627 72.5341 84.0627C70.0895 84.0627 67.7053 84.9509 65.8375 86.5607C65.291 87.0237 64.6226 87.2513 63.9545 87.2513Z" fill="white"/>
<mask id="mask1_1419_11430" style="mask-type:alpha" maskUnits="userSpaceOnUse" x="5" y="5" width="144" height="144">
<path fill-rule="evenodd" clip-rule="evenodd" d="M5 5H149V149H5V5ZM42.4784 56.3426C45.6072 55.0102 48.9344 54.3293 52.3562 54.3293C55.7872 54.3293 59.1047 55.0102 62.1956 56.3426C65.2108 57.6285 67.9237 59.4714 70.2396 61.8154C72.5552 64.1596 74.3796 66.8816 75.646 69.9162C76.1283 71.0788 76.5253 72.2603 76.8372 73.47C79.9565 73.517 82.9812 74.1698 85.8449 75.3886C88.7186 76.6178 91.2991 78.3758 93.5106 80.6062C95.7227 82.8276 97.4527 85.4269 98.6622 88.3195C99.9195 91.3156 100.553 94.4822 100.553 97.7528C100.553 103.812 98.3313 109.606 94.286 114.086C90.2688 118.538 84.7863 121.317 78.8597 121.912C78.0945 121.997 77.338 122.035 76.6102 122.035H37.1852C34.3213 122.035 31.5328 121.459 28.9052 120.334C26.3811 119.257 24.1224 117.706 22.1751 115.74C20.2372 113.783 18.7155 111.496 17.6475 108.963C16.5321 106.326 15.9745 103.537 15.9745 100.673C15.9745 95.4372 17.8838 90.3991 21.3625 86.4761C23.0258 84.6045 24.9822 83.0547 27.1278 81.8824C27.0716 81.1924 27.043 80.5024 27.043 79.8124C27.043 76.3906 27.7141 73.0541 29.028 69.9162C30.3041 66.8816 32.119 64.1596 34.4344 61.8154C36.7601 59.4714 39.4633 57.6285 42.4784 56.3426Z" fill="white"/>
</mask>
<g mask="url(#mask1_1419_11430)">
<path d="M75.8261 43.4635C88.0258 43.4635 97.9098 53.451 97.9098 65.7777C97.9098 66.5955 97.8637 67.4136 97.7714 68.2085C100.075 67.3095 102.575 66.7914 105.202 66.7914C116.595 66.7914 125.834 76.1228 125.834 87.6428C125.834 98.4595 117.678 107.353 107.241 108.39C106.642 108.459 106.031 108.493 105.409 108.493H57.3593C47.9474 108.493 40.2519 100.717 40.2519 91.2135C40.2519 82.4008 46.8647 75.0855 55.332 74.0606C54.3178 71.503 53.7418 68.715 53.7418 65.789C53.7537 53.451 63.6378 43.4635 75.8261 43.4635ZM75.8261 34.708C71.6557 34.708 67.6007 35.5379 63.7874 37.1618C60.1127 38.7289 56.8181 40.975 53.9836 43.8318C51.1617 46.6888 48.9498 50.0063 47.3945 53.7048C45.7932 57.5291 44.9753 61.5955 44.9753 65.7659C44.9753 66.6069 45.0101 67.4478 45.0787 68.2888C42.4636 69.7176 40.0793 71.6064 38.052 73.8874C33.8124 78.6686 31.4854 84.8089 31.4854 91.1904C31.4854 94.6813 32.1649 98.0794 33.5244 101.293C34.826 104.381 36.6806 107.169 39.0425 109.554C41.4157 111.949 44.1686 113.839 47.2449 115.153C50.4473 116.523 53.8458 117.226 57.3362 117.226H105.386C106.273 117.226 107.195 117.18 108.128 117.076C115.351 116.35 122.033 112.964 126.929 107.538C131.859 102.077 134.566 95.0154 134.566 87.631C134.566 83.645 133.795 79.7856 132.262 76.1341C130.788 72.6087 128.68 69.4408 125.984 66.7335C123.288 64.015 120.143 61.8725 116.641 60.3744C113.151 58.8889 109.464 58.0933 105.663 58.036C105.283 56.5617 104.799 55.1217 104.211 53.7048C102.667 50.0063 100.444 46.6888 97.6218 43.8318C94.7993 40.975 91.4929 38.7289 87.818 37.1618C84.051 35.5379 80.0077 34.708 75.8261 34.708Z" fill="white"/>
<path d="M92.8062 71.6757C91.5737 71.6757 90.3526 71.1577 89.4886 70.1554C87.9102 68.3238 88.1177 65.5586 89.9493 63.9808C94.3728 60.1789 100.018 58.0824 105.824 58.0824C108.243 58.0824 110.202 60.0409 110.202 62.4597C110.202 64.8791 108.243 66.8377 105.824 66.8377C102.115 66.8377 98.4971 68.1854 95.6632 70.6278C94.834 71.3304 93.8199 71.6757 92.8062 71.6757Z" fill="white"/>
</g>
</g>
</g>
<defs>
<clipPath id="clip0_1419_11430">
<rect width="144" height="144" fill="white" transform="translate(5 5)"/>
</clipPath>
</defs>
</svg>
