<svg width="38" height="34" viewBox="0 0 38 34" fill="none" xmlns="http://www.w3.org/2000/svg">
<path d="M30.5419 0.921122C30.3933 0.675984 30.1886 0.465875 29.9429 0.306406C29.6973 0.146937 29.4171 0.0422078 29.1231 0C28.3117 0 27.4351 0.610314 26.4972 1.26772C26.2656 1.42972 26.0301 1.5936 25.7907 1.75371C24.7182 2.46386 23.4873 3.10996 22.4346 3.3134C20.7922 3.63363 18.9063 3.18343 17.3945 2.54109C15.6729 1.78573 14.6776 3.52437 13.9078 4.86933C13.7634 5.11986 13.6268 5.35908 13.4962 5.5644C12.9223 6.45539 12.2001 7.51779 11.3789 8.5896C11.0512 8.56089 10.7211 8.61044 10.4186 8.73374C10.1161 8.85704 9.85065 9.05022 9.64633 9.29578C9.442 9.54134 9.30523 9.83153 9.24841 10.1401C9.19158 10.4486 9.21649 10.7658 9.32087 11.0629C8.71139 11.7749 8.13357 12.4568 7.58544 13.1104C7.20576 13.0084 6.80271 13.0168 6.42804 13.1344C6.05338 13.252 5.72421 13.4736 5.4828 13.7706C5.24138 14.0677 5.09875 14.4266 5.07321 14.8014C5.04767 15.1761 5.14039 15.5496 5.33946 15.8738C3.21815 18.5731 1.75777 20.7676 0.914788 22.721C0.202408 24.3787 -0.102332 25.9289 0.0302501 27.5093C0.162832 29.0671 0.707011 30.5176 1.46886 31.985C2.50181 33.9723 5.03472 34.5166 6.88889 33.4976L36.0213 17.4862C36.9302 16.9866 37.5935 16.1638 37.8652 15.1987C38.1368 14.2336 37.9946 13.2053 37.4698 12.34L36.4804 10.7087L24.4847 17.3016C24.0304 17.5475 23.4924 17.6123 22.9882 17.482C22.4839 17.3517 22.0542 17.0368 21.7929 16.606C21.5316 16.1752 21.46 15.6636 21.5935 15.1827C21.7271 14.7018 22.0551 14.2907 22.5058 14.0391L34.5015 7.44621L30.5419 0.921122Z" fill="#5DC24E"/>
</svg>
