<svg width="40" height="32" viewBox="0 0 40 32" fill="none" xmlns="http://www.w3.org/2000/svg">
<path fill-rule="evenodd" clip-rule="evenodd" d="M24.1663 2.00419H23.9962C19.7862 2.00387 15.7456 3.66186 12.75 6.61891C9.75438 9.57596 8.04507 13.5939 7.99244 17.802L0.762734 23.4212C0.541387 23.5972 0.359468 23.8177 0.228749 24.0684C0.0980306 24.3191 0.0214246 24.5945 0.00388786 24.8766C-0.0136489 25.1588 0.0282744 25.4415 0.126945 25.7065C0.225616 25.9715 0.378836 26.2128 0.576691 26.4148C0.863031 26.7074 1.20554 26.9391 1.58367 27.0962C1.9618 27.2532 2.36776 27.3323 2.77721 27.3287C3.21731 27.3307 3.64942 27.2447 4.08752 27.1967C4.63165 27.1367 5.52186 27.0927 7.18025 27.8286C9.30875 28.7745 11.4673 29.8443 13.4377 30.6142C15.4742 31.4081 17.5827 32 19.8692 32C24.3183 32 28.8254 29.7763 34.5407 24.2731C35.7617 24.2081 36.981 24.1141 38.1976 23.9911C38.6914 23.942 39.1493 23.7112 39.4824 23.3435C39.8155 22.9758 40 22.4975 40 22.0014V18.002C39.9999 14.8148 39.0479 11.7003 37.2658 9.05752C35.4838 6.4147 32.953 4.36395 29.9976 3.16803V3.00406C29.9987 2.29568 29.7489 1.60978 29.2925 1.06785C28.8362 0.525926 28.2027 0.162939 27.5042 0.0431818C26.8058 -0.0765752 26.0875 0.0546267 25.4765 0.41355C24.8656 0.772474 24.4014 1.33596 24.1663 2.00419ZM7.11824 23.5492L10.9932 20.5336C17.1686 22.8433 22.6859 24.0191 28.4573 24.2971C24.8264 27.1467 22.1558 28.0006 19.8672 28.0006C18.2809 28.0006 16.6985 27.5926 14.8901 26.8867C13.0176 26.1568 11.1752 25.2269 8.80263 24.1731C8.25517 23.9275 7.69176 23.719 7.11623 23.5492H7.11824Z" fill="#2DBBAC"/>
</svg>
