<svg width="56" height="56" viewBox="0 0 56 56" fill="none" xmlns="http://www.w3.org/2000/svg">
<g filter="url(#filter0_d_778_22485)">
<rect x="9" y="5" width="36" height="36" rx="10" fill="#829BF0"/>
<path d="M35.775 19.85C35.4767 19.85 35.1905 19.9685 34.9795 20.1795C34.7686 20.3905 34.65 20.6766 34.65 20.975V24.7775L32.985 23.1125C32.3971 22.5292 31.6025 22.2019 30.7744 22.2019C29.9463 22.2019 29.1517 22.5292 28.5638 23.1125L27.7763 23.9112L24.9863 21.11C24.3984 20.5267 23.6038 20.1994 22.7756 20.1994C21.9475 20.1994 21.1529 20.5267 20.565 21.11L18.9 22.7862V16.475C18.9 16.1766 19.0186 15.8905 19.2295 15.6795C19.4405 15.4685 19.7267 15.35 20.025 15.35H29.025C29.3234 15.35 29.6095 15.2314 29.8205 15.0205C30.0315 14.8095 30.15 14.5233 30.15 14.225C30.15 13.9266 30.0315 13.6405 29.8205 13.4295C29.6095 13.2185 29.3234 13.1 29.025 13.1H20.025C19.1299 13.1 18.2715 13.4556 17.6385 14.0885C17.0056 14.7214 16.65 15.5799 16.65 16.475V30.2225C16.653 31.051 16.9834 31.8448 17.5693 32.4307C18.1552 33.0166 18.949 33.347 19.7775 33.35H33.7725C34.0774 33.3475 34.3804 33.3021 34.6725 33.215C35.3221 33.0328 35.894 32.6425 36.3005 32.1039C36.7069 31.5654 36.9254 30.9084 36.9225 30.2337V20.975C36.9226 20.8253 36.8927 20.6772 36.8348 20.5392C36.7768 20.4012 36.692 20.2762 36.5851 20.1714C36.4782 20.0667 36.3516 19.9843 36.2125 19.9291C36.0734 19.8739 35.9246 19.847 35.775 19.85ZM20.025 31.1C19.7267 31.1 19.4405 30.9814 19.2295 30.7705C19.0186 30.5595 18.9 30.2733 18.9 29.975V25.9587L22.1513 22.7075C22.3157 22.544 22.5381 22.4522 22.77 22.4522C23.0019 22.4522 23.2244 22.544 23.3888 22.7075L31.7925 31.1H20.025ZM34.65 29.975C34.6428 30.1928 34.5724 30.4039 34.4475 30.5825L29.3625 25.475L30.1613 24.6875C30.2419 24.6052 30.3382 24.5398 30.4444 24.4951C30.5507 24.4505 30.6648 24.4275 30.78 24.4275C30.8953 24.4275 31.0094 24.4505 31.1156 24.4951C31.2219 24.5398 31.3181 24.6052 31.3988 24.6875L34.65 27.9612V29.975ZM38.025 13.1H36.9V11.975C36.9 11.6766 36.7815 11.3905 36.5705 11.1795C36.3595 10.9685 36.0734 10.85 35.775 10.85C35.4767 10.85 35.1905 10.9685 34.9795 11.1795C34.7686 11.3905 34.65 11.6766 34.65 11.975V13.1H33.525C33.2267 13.1 32.9405 13.2185 32.7295 13.4295C32.5185 13.6405 32.4 13.9266 32.4 14.225C32.4 14.5233 32.5185 14.8095 32.7295 15.0205C32.9405 15.2314 33.2267 15.35 33.525 15.35H34.65V16.475C34.65 16.7733 34.7686 17.0595 34.9795 17.2705C35.1905 17.4814 35.4767 17.6 35.775 17.6C36.0734 17.6 36.3595 17.4814 36.5705 17.2705C36.7815 17.0595 36.9 16.7733 36.9 16.475V15.35H38.025C38.3234 15.35 38.6095 15.2314 38.8205 15.0205C39.0315 14.8095 39.15 14.5233 39.15 14.225C39.15 13.9266 39.0315 13.6405 38.8205 13.4295C38.6095 13.2185 38.3234 13.1 38.025 13.1Z" fill="white"/>
</g>
<defs>
<filter id="filter0_d_778_22485" x="0" y="0" width="56" height="56" filterUnits="userSpaceOnUse" color-interpolation-filters="sRGB">
<feFlood flood-opacity="0" result="BackgroundImageFix"/>
<feColorMatrix in="SourceAlpha" type="matrix" values="0 0 0 0 0 0 0 0 0 0 0 0 0 0 0 0 0 0 127 0" result="hardAlpha"/>
<feOffset dx="1" dy="5"/>
<feGaussianBlur stdDeviation="5"/>
<feComposite in2="hardAlpha" operator="out"/>
<feColorMatrix type="matrix" values="0 0 0 0 0.369278 0 0 0 0 0.379051 0 0 0 0 0.481667 0 0 0 0.2 0"/>
<feBlend mode="normal" in2="BackgroundImageFix" result="effect1_dropShadow_778_22485"/>
<feBlend mode="normal" in="SourceGraphic" in2="effect1_dropShadow_778_22485" result="shape"/>
</filter>
</defs>
</svg>
