<svg width="42" height="36" viewBox="0 0 42 36" fill="none" xmlns="http://www.w3.org/2000/svg">
<path fill-rule="evenodd" clip-rule="evenodd" d="M8.51574 1.80105C9.63161 0.677171 11.1451 0.0456017 12.7235 0.0452623C14.2907 0.0452623 16.588 -0.394185 17.2902 1.46547C17.5766 2.22261 18.0847 2.87425 18.7472 3.33403C19.4097 3.79381 20.1954 4.04001 21 4.04001C21.8046 4.04001 22.5903 3.79381 23.2528 3.33403C23.9153 2.87425 24.4234 2.22261 24.7098 1.46547C25.412 -0.392187 27.7113 0.0472597 29.2766 0.0472597C30.8539 0.0475988 32.3666 0.678392 33.4823 1.80105L40.8383 9.20573C41.5821 9.9549 42 10.9709 42 12.0302C42 13.0895 41.5821 14.1055 40.8383 14.8546L37.9062 17.8069C36.8746 18.8456 35.4344 19.1832 34.1369 18.8576L34.6765 29.7079C34.7169 30.519 34.593 31.3299 34.3125 32.0914C34.0321 32.8528 33.6008 33.5489 33.0449 34.1374C32.4891 34.7258 31.8202 35.1944 31.0789 35.5146C30.3377 35.8348 29.5396 35.9999 28.733 36H13.267C12.4604 35.9999 11.6623 35.8348 10.9211 35.5146C10.1798 35.1944 9.51095 34.7258 8.95508 34.1374C8.3992 33.5489 7.96793 32.8528 7.68745 32.0914C7.40697 31.3299 7.28313 30.519 7.32346 29.7079L7.86306 18.8576C7.19821 19.026 6.50132 19.0177 5.8406 18.8335C5.17988 18.6493 4.57797 18.2956 4.09378 17.8069L1.16168 14.8546C0.417856 14.1055 0 13.0895 0 12.0302C0 10.9709 0.417856 9.9549 1.16168 9.20573L8.51574 1.80105Z" fill="#EAB408"/>
</svg>
