<svg width="10" height="8" viewBox="0 0 10 8" fill="none" xmlns="http://www.w3.org/2000/svg">
<path d="M2.04856 0.404883C2.16667 0.357644 2.29271 0.333374 2.41991 0.333374H3.11368C3.38982 0.333374 3.61542 0.561523 3.70308 0.823384C3.83661 1.22231 4.16961 1.7197 5 1.7197C5.83039 1.7197 6.16339 1.22231 6.29692 0.823384C6.38458 0.561523 6.61018 0.333374 6.88632 0.333374H7.58009C7.70729 0.333374 7.83333 0.357644 7.95144 0.404883L9.8258 1.15454C9.89406 1.18187 9.94867 1.2352 9.97762 1.3028C10.0066 1.37039 10.0075 1.44672 9.98014 1.51499L9.22875 3.39392C9.20816 3.44535 9.17264 3.48943 9.12676 3.52048C9.08088 3.55153 9.02676 3.56813 8.97136 3.56813H7.77265V7.44984C7.77265 7.52338 7.74344 7.5939 7.69144 7.6459C7.63944 7.6979 7.56892 7.72711 7.49538 7.72711H2.50462C2.43108 7.72711 2.36056 7.6979 2.30856 7.6459C2.25656 7.5939 2.22735 7.52338 2.22735 7.44984V3.56813H1.02864C0.973244 3.56813 0.919116 3.55153 0.873239 3.52048C0.827361 3.48943 0.791837 3.44535 0.771248 3.39392L0.0198597 1.51499C-0.00746859 1.44672 -0.00656043 1.37039 0.0223844 1.3028C0.0513293 1.2352 0.10594 1.18187 0.174204 1.15454L2.04856 0.404883Z" fill="#6E78E1"/>
</svg>
