<svg width="13" height="14" viewBox="0 0 13 14" fill="none" xmlns="http://www.w3.org/2000/svg">
<circle cx="6.61737" cy="6.80243" r="6.32099" fill="white"/>
<path d="M9.86809 7.34416H7.1591V10.0532C7.1591 10.1968 7.10202 10.3347 7.00041 10.4363C6.8988 10.5379 6.76099 10.595 6.6173 10.595C6.47361 10.595 6.3358 10.5379 6.23419 10.4363C6.13258 10.3347 6.0755 10.1968 6.0755 10.0532V7.34416H3.36651C3.22281 7.34416 3.085 7.28708 2.9834 7.18547C2.88179 7.08386 2.82471 6.94605 2.82471 6.80236C2.82471 6.65866 2.88179 6.52086 2.9834 6.41925C3.085 6.31764 3.22281 6.26056 3.36651 6.26056H6.0755V3.55156C6.0755 3.40787 6.13258 3.27006 6.23419 3.16845C6.3358 3.06685 6.47361 3.00977 6.6173 3.00977C6.76099 3.00977 6.8988 3.06685 7.00041 3.16845C7.10202 3.27006 7.1591 3.40787 7.1591 3.55156V6.26056H9.86809C10.0118 6.26056 10.1496 6.31764 10.2512 6.41925C10.3528 6.52086 10.4099 6.65866 10.4099 6.80236C10.4099 6.94605 10.3528 7.08386 10.2512 7.18547C10.1496 7.28708 10.0118 7.34416 9.86809 7.34416Z" fill="#829BF0"/>
</svg>
