<svg width="154" height="154" viewBox="0 0 154 154" fill="none" xmlns="http://www.w3.org/2000/svg">
<rect width="154" height="154" rx="15" fill="#A8B9F5"/>
<g clip-path="url(#clip0_1419_11431)">
<mask id="mask0_1419_11431" style="mask-type:luminance" maskUnits="userSpaceOnUse" x="13" y="13" width="128" height="128">
<path d="M141 13H13V141H141V13Z" fill="white"/>
</mask>
<g mask="url(#mask0_1419_11431)">
<path d="M76.942 111.339C67.7488 111.339 59.1148 107.767 52.6216 101.261C46.1289 94.769 42.5449 86.1229 42.5449 76.9416C42.5449 67.749 46.117 59.1152 52.6216 52.6219C59.1148 46.1287 67.7608 42.5447 76.942 42.5447C86.1346 42.5447 94.7688 46.1173 101.262 52.6219C107.755 59.1152 111.339 67.7604 111.339 76.9416C111.339 86.1342 107.766 94.769 101.262 101.261C94.7688 107.755 86.1346 111.339 76.942 111.339ZM76.942 51.3883C62.8499 51.3883 51.3887 62.8501 51.3887 76.9416C51.3887 91.0333 62.8499 102.495 76.942 102.495C91.0334 102.495 102.495 91.0333 102.495 76.9416C102.495 62.8501 91.0334 51.3883 76.942 51.3883Z" fill="white"/>
<path d="M100.979 33.9852C98.3774 32.5297 97.4491 29.245 98.9045 26.6429L100.609 23.595C102.064 20.9938 105.349 20.0655 107.951 21.521C110.553 22.976 111.481 26.2608 110.026 28.862L108.321 31.9099C106.865 34.512 103.581 35.4402 100.979 33.9852Z" fill="white"/>
<path d="M59.5002 29.0994C58.2981 28.427 57.3402 27.29 56.9367 25.8602L55.9862 22.4986C55.1782 19.6392 56.8484 16.6531 59.7078 15.8451C62.5672 15.0371 65.5533 16.7073 66.3613 19.5667L67.3118 22.9283C68.1197 25.7876 66.4494 28.7737 63.5902 29.5818C62.1727 29.993 60.7023 29.7718 59.5002 29.0994Z" fill="white"/>
<path d="M26.7123 54.9715L23.6644 53.2667C21.0631 51.8117 20.1349 48.5268 21.5898 45.9257C23.0453 43.3235 26.3302 42.3952 28.9315 43.8502L31.9794 45.5551C34.5814 47.0105 35.5095 50.2953 34.054 52.8975C32.5991 55.4986 29.3143 56.427 26.7123 54.9715Z" fill="white"/>
<path d="M18.4652 97.4003C17.2637 96.7282 16.3182 95.5973 15.9016 94.161C15.0936 91.3017 16.7639 88.3156 19.6232 87.5077L22.985 86.5582C25.8443 85.7499 28.8306 87.4203 29.6385 90.2798C30.4465 93.139 28.7765 96.1245 25.9172 96.9327L22.5551 97.8827C21.138 98.2933 19.6673 98.0727 18.4652 97.4003Z" fill="white"/>
<path d="M45.9951 132.286C43.3931 130.831 42.4644 127.546 43.9198 124.944L45.6246 121.897C47.0801 119.295 50.3649 118.366 52.9669 119.822C55.5682 121.277 56.4964 124.562 55.0409 127.164L53.3361 130.211C51.8806 132.813 48.5963 133.741 45.9951 132.286Z" fill="white"/>
<path d="M90.1288 137.485C88.9265 136.813 87.9687 135.675 87.5648 134.246L86.6149 130.884C85.807 128.024 87.4769 125.039 90.3362 124.231C93.1953 123.423 96.1817 125.093 96.9895 127.952L97.9394 131.314C98.7473 134.173 97.077 137.159 94.2178 137.967C92.8009 138.378 91.3303 138.157 90.1288 137.485Z" fill="white"/>
<path d="M125.014 109.956L121.966 108.251C119.364 106.796 118.436 103.511 119.891 100.91C121.346 98.3079 124.631 97.3795 127.233 98.8349L130.281 100.54C132.883 101.995 133.811 105.28 132.355 107.882C130.9 110.483 127.616 111.412 125.014 109.956Z" fill="white"/>
<path d="M126.851 66.7721C125.65 66.1 124.704 64.9696 124.287 63.5327C123.48 60.6734 125.15 57.6873 128.009 56.8792L131.371 55.9297C134.23 55.1217 137.216 56.7917 138.024 59.6509C138.832 62.5103 137.161 65.4964 134.302 66.3044L130.941 67.2543C129.524 67.6658 128.053 67.4446 126.851 66.7721Z" fill="white"/>
</g>
</g>
<defs>
<clipPath id="clip0_1419_11431">
<rect width="128" height="128" fill="white" transform="translate(13 13)"/>
</clipPath>
</defs>
</svg>
