<svg width="15" height="15" viewBox="0 0 15 15" fill="none" xmlns="http://www.w3.org/2000/svg">
<path d="M10.0261 1.26126C10.43 0.857305 10.9724 0.622074 11.5433 0.603271C12.1142 0.584469 12.6708 0.783503 13.1004 1.16001L13.2084 1.26126L13.7386 1.79151C14.1424 2.19532 14.3775 2.73754 14.3963 3.30826C14.4151 3.87898 14.2162 4.43549 13.8399 4.86501L13.7386 4.97301L5.32964 13.3828C5.21075 13.5016 5.06672 13.5924 4.90814 13.6483L4.78664 13.6835L1.44614 14.4545C1.32911 14.4815 1.20731 14.4801 1.09095 14.4503C0.97459 14.4205 0.867076 14.3633 0.777435 14.2833C0.687793 14.2034 0.618641 14.1031 0.575784 13.9909C0.532928 13.8787 0.517618 13.7579 0.531141 13.6385L0.546141 13.5538L1.31639 10.2125C1.35444 10.0486 1.42877 9.89536 1.53389 9.76401L1.61714 9.67026L10.0261 1.26126ZM9.49589 3.91251L2.75339 10.655L2.27639 12.7235L4.34489 12.2458L11.0874 5.50326L9.49589 3.91251ZM12.1479 2.32176C12.0187 2.19262 11.8469 2.11505 11.6647 2.10359C11.4824 2.09213 11.3022 2.14757 11.1579 2.25951L11.0874 2.32176L10.5564 2.85201L12.1479 4.44276L12.6781 3.91251C12.8073 3.78336 12.8848 3.61154 12.8963 3.42927C12.9078 3.247 12.8523 3.06681 12.7404 2.92251L12.6781 2.85201L12.1479 2.32176Z" fill="#141414"/>
</svg>
