<svg width="23" height="23" viewBox="0 0 23 23" fill="none" xmlns="http://www.w3.org/2000/svg">
<path d="M6.09 13.1194C6.46221 13.1194 6.81918 12.9715 7.08238 12.7083C7.34558 12.4451 7.49344 12.0882 7.49344 11.7159C7.49344 11.3437 7.34558 10.9868 7.08238 10.7236C6.81918 10.4604 6.46221 10.3125 6.09 10.3125C5.71779 10.3125 5.36082 10.4604 5.09762 10.7236C4.83442 10.9868 4.68656 11.3437 4.68656 11.7159C4.68656 12.0882 4.83442 12.4451 5.09762 12.7083C5.36082 12.9715 5.71779 13.1194 6.09 13.1194ZM7.49438 16.4044C7.49438 16.7766 7.34651 17.1336 7.08332 17.3968C6.82012 17.66 6.46315 17.8078 6.09094 17.8078C5.71872 17.8078 5.36175 17.66 5.09856 17.3968C4.83536 17.1336 4.6875 16.7766 4.6875 16.4044C4.6875 16.0322 4.83536 15.6752 5.09856 15.412C5.36175 15.1488 5.71872 15.0009 6.09094 15.0009C6.46315 15.0009 6.82012 15.1488 7.08332 15.412C7.34651 15.6752 7.49438 16.0322 7.49438 16.4044ZM11.25 13.1194C11.6222 13.1194 11.9792 12.9715 12.2424 12.7083C12.5056 12.4451 12.6534 12.0882 12.6534 11.7159C12.6534 11.3437 12.5056 10.9868 12.2424 10.7236C11.9792 10.4604 11.6222 10.3125 11.25 10.3125C10.8778 10.3125 10.5208 10.4604 10.2576 10.7236C9.99442 10.9868 9.84656 11.3437 9.84656 11.7159C9.84656 12.0882 9.99442 12.4451 10.2576 12.7083C10.5208 12.9715 10.8778 13.1194 11.25 13.1194ZM12.6544 16.4044C12.6544 16.7766 12.5065 17.1336 12.2433 17.3968C11.9801 17.66 11.6232 17.8078 11.2509 17.8078C10.8787 17.8078 10.5218 17.66 10.2586 17.3968C9.99536 17.1336 9.8475 16.7766 9.8475 16.4044C9.8475 16.0322 9.99536 15.6752 10.2586 15.412C10.5218 15.1488 10.8787 15.0009 11.2509 15.0009C11.6232 15.0009 11.9801 15.1488 12.2433 15.412C12.5065 15.6752 12.6544 16.0322 12.6544 16.4044ZM16.4044 13.1194C16.7766 13.1194 17.1336 12.9715 17.3968 12.7083C17.66 12.4451 17.8078 12.0882 17.8078 11.7159C17.8078 11.3437 17.66 10.9868 17.3968 10.7236C17.1336 10.4604 16.7766 10.3125 16.4044 10.3125C16.0322 10.3125 15.6752 10.4604 15.412 10.7236C15.1488 10.9868 15.0009 11.3437 15.0009 11.7159C15.0009 12.0882 15.1488 12.4451 15.412 12.7083C15.6752 12.9715 16.0322 13.1194 16.4044 13.1194ZM22.5 4.6875C22.5 3.4443 22.0061 2.25201 21.1271 1.37294C20.248 0.49386 19.0557 0 17.8125 0H4.6875C3.4443 0 2.25201 0.49386 1.37294 1.37294C0.49386 2.25201 0 3.4443 0 4.6875V17.8125C0 19.0557 0.49386 20.248 1.37294 21.1271C2.25201 22.0061 3.4443 22.5 4.6875 22.5H17.8125C19.0557 22.5 20.248 22.0061 21.1271 21.1271C22.0061 20.248 22.5 19.0557 22.5 17.8125V4.6875ZM1.875 7.5H20.625V17.8125C20.625 18.5584 20.3287 19.2738 19.8012 19.8012C19.2738 20.3287 18.5584 20.625 17.8125 20.625H4.6875C3.94158 20.625 3.22621 20.3287 2.69876 19.8012C2.17132 19.2738 1.875 18.5584 1.875 17.8125V7.5ZM4.6875 1.875H17.8125C18.5584 1.875 19.2738 2.17132 19.8012 2.69876C20.3287 3.22621 20.625 3.94158 20.625 4.6875V5.625H1.875V4.6875C1.875 3.94158 2.17132 3.22621 2.69876 2.69876C3.22621 2.17132 3.94158 1.875 4.6875 1.875Z" fill="#141414"/>
</svg>
