<svg width="25" height="24" viewBox="0 0 25 24" fill="none" xmlns="http://www.w3.org/2000/svg">
<circle cx="12.5" cy="12" r="12" fill="#F8D8D2"/>
<circle cx="8" cy="9.5" r="1.5" fill="#DF6E59"/>
<circle cx="17" cy="9.5" r="1.5" fill="#DF6E59"/>
<path d="M17.5 16C17.5 16 16.1364 15 12.5 15C8.86364 15 7.5 16 7.5 16" stroke="#DF6E59" stroke-width="1.5" stroke-linecap="round"/>
<path d="M3.96445 11C4.30819 11 5.26303 12.5726 5.454 13.7823C5.68316 15.0726 5.03387 16 4.00265 16C3.04781 16 2.39851 15.2339 2.51309 13.9839C2.55128 12.7339 3.6589 11 3.96445 11Z" fill="white"/>
<path d="M19.9645 14C20.3082 14 21.263 15.5726 21.454 16.7823C21.6832 18.0726 21.0339 19 20.0026 19C19.0478 19 18.3985 18.2339 18.5131 16.9839C18.5513 15.7339 19.6589 14 19.9645 14Z" fill="white"/>
</svg>
