<svg width="12" height="12" viewBox="0 0 12 12" fill="none" xmlns="http://www.w3.org/2000/svg">
<path d="M11.0306 9.96948C11.1715 10.1104 11.2506 10.3015 11.2506 10.5007C11.2506 10.7 11.1715 10.8911 11.0306 11.032C10.8897 11.1729 10.6986 11.252 10.4993 11.252C10.3001 11.252 10.109 11.1729 9.9681 11.032L5.99997 7.06261L2.0306 11.0307C1.8897 11.1716 1.69861 11.2508 1.49935 11.2508C1.30009 11.2508 1.10899 11.1716 0.968098 11.0307C0.827202 10.8898 0.748047 10.6987 0.748047 10.4995C0.748047 10.3002 0.827202 10.1091 0.968098 9.96824L4.93747 6.00011L0.969348 2.03073C0.828451 1.88984 0.749297 1.69874 0.749297 1.49948C0.749297 1.30023 0.828451 1.10913 0.969348 0.968235C1.11024 0.827338 1.30134 0.748183 1.5006 0.748183C1.69986 0.748183 1.89095 0.827338 2.03185 0.968235L5.99997 4.93761L9.96935 0.967609C10.1102 0.826713 10.3013 0.747559 10.5006 0.747559C10.6999 0.747559 10.891 0.826713 11.0318 0.967609C11.1727 1.10851 11.2519 1.2996 11.2519 1.49886C11.2519 1.69812 11.1727 1.88921 11.0318 2.03011L7.06247 6.00011L11.0306 9.96948Z" fill="#141414"/>
</svg>
