<svg width="18" height="15" viewBox="0 0 18 15" fill="none" xmlns="http://www.w3.org/2000/svg">
<path d="M8.99993 0.000671387C12.1685 0.000671387 13.9659 2.09796 14.2273 4.6308L14.3073 4.6308C16.3464 4.6308 17.9994 6.27952 17.9994 8.31332C17.9994 10.3471 16.3464 11.9959 14.3073 11.9959L13.7245 11.9957L12.1428 14.6302C11.9357 14.9889 11.477 15.1118 11.1183 14.9047C10.7894 14.7148 10.6588 14.3136 10.7988 13.9717L10.8437 13.8802L11.9925 11.9957H9.85649L8.27458 14.6302C8.06747 14.9889 7.60878 15.1118 7.25006 14.9047C6.92123 14.7148 6.79055 14.3136 6.93058 13.9717L6.97554 13.8802L8.12449 11.9957H5.98749L4.40637 14.6302C4.19926 14.9889 3.74057 15.1118 3.38185 14.9047C3.05303 14.7148 2.92235 14.3136 3.06238 13.9717L3.10733 13.8802L4.25549 11.9957L3.69257 11.9959C1.65349 11.9959 0.000488281 10.3471 0.000488281 8.31332C0.000488281 6.27952 1.65349 4.6308 3.69259 4.6308L3.77253 4.6308C4.03547 2.08131 5.8314 0.000671387 8.99993 0.000671387ZM8.99993 1.49826C6.92861 1.49826 5.12322 3.1315 5.12322 5.38748C5.12322 5.74494 4.80427 6.02543 4.43906 6.02541L3.74851 6.02539C2.48751 6.02539 1.46528 7.02668 1.46528 8.26183C1.46528 9.49698 2.48751 10.4983 3.74851 10.4983H14.2514C15.5124 10.4983 16.5346 9.49698 16.5346 8.26183C16.5346 7.02668 15.5124 6.02539 14.2514 6.02539L13.5608 6.02541C13.1956 6.02543 12.8766 5.74494 12.8766 5.38748C12.8766 3.10256 11.0713 1.49826 8.99993 1.49826Z" fill="white"/>
</svg>
