<svg width="180" height="130" viewBox="0 0 180 130" fill="none" xmlns="http://www.w3.org/2000/svg">
<g clip-path="url(#clip0_1353_16772)">
<path d="M116.885 57.9756C121.032 54.2881 115.553 47.016 110.453 50.943C107.468 53.4221 104.532 56.0605 101.996 58.5245C101.618 58.8837 103.181 60.6341 106.26 63.8179C109.34 67.0017 110.008 66.6235 109.8 64.4067C112.845 61.6131 114.355 60.1765 116.885 57.9756Z" fill="#829BF0"/>
<path d="M127.08 68.2617C131.291 64.1019 125.012 57.2837 120.4 61.6705C118.11 63.7458 115.816 65.9789 112.897 69.0126C112.624 69.3744 114.24 71.0735 116.964 73.7745C120.251 77.0688 121.178 76.8551 120.895 74.5047C122.439 72.7794 124.463 70.8027 127.08 68.2617Z" fill="#829BF0"/>
<path d="M142.523 64.5146C141.433 67.0412 139.676 70.9728 138.744 73.5033C138.206 74.9906 137.214 75.7292 136.098 76.1226C134.558 76.6632 132.701 76.1692 131.642 75.3265C128.647 72.9873 130.376 68.0546 131.469 65.4227C132.842 62.1134 134.251 58.41 137.69 57.7589C141.816 57.0196 143.949 61.2066 142.523 64.5146Z" fill="#829BF0"/>
<path d="M149.924 22.3376C158.768 29.7991 162.268 41.4185 155.172 51.4564C165.305 63.1364 153.006 78.0201 139.354 75.4406C133.512 74.2676 128.969 70.6259 119.016 60.1615C108.883 49.5082 104.521 44.9233 103.834 37.6658C102.898 27.7166 113.144 19.153 122.25 23.4881C130.033 15.4684 141.819 15.8686 149.924 22.3376Z" fill="#BFCBF5"/>
<path d="M137.609 37.8528C137.942 38.2034 137.658 39.0388 137.194 39.6854C136.677 40.3833 135.748 40.6497 135.261 40.1373C134.799 39.6518 135.058 38.7894 135.702 38.279C136.294 37.7672 137.301 37.5291 137.609 37.8528Z" fill="#4B4682"/>
<path d="M145.305 45.9438C145.638 46.2944 145.354 47.1298 144.89 47.7764C144.373 48.4744 143.444 48.7407 142.957 48.2283C142.495 47.7429 142.754 46.8805 143.398 46.37C143.991 45.8583 144.997 45.6202 145.305 45.9438Z" fill="#4B4682"/>
<path d="M134.061 43.8984C135.142 46.9795 137.143 49.0832 140.013 50.1555" stroke="#4B4682" stroke-width="2" stroke-miterlimit="10" stroke-linecap="round"/>
<path d="M119.371 45.953C116.793 46.9153 112.753 48.4466 110.329 49.5707C108.917 50.2462 107.658 50.0568 106.618 49.5042C105.162 48.7832 104.203 47.1268 104.052 45.7803C103.621 41.9783 108.335 39.8057 110.969 38.7394C114.267 37.4002 117.914 35.7802 120.812 37.801C124.228 40.2033 122.746 44.6947 119.371 45.953Z" fill="#829BF0"/>
</g>
<path d="M124.995 59.547C125.563 56.9543 125.867 54.267 125.867 51.5027C125.867 30.7893 109.078 14 88.3646 14C73.7265 14 61.0575 22.3912 54.8771 34.6223C54.1624 34.5102 53.4441 34.4121 52.7189 34.3385C22.7174 31.2763 0 55.3216 0 81.5427C0 107.764 21.2564 129.02 47.4775 129.02H105.718V129.013C126.33 128.894 143 112.154 143 91.5139C143 78.6557 136.045 66.3475 124.995 59.547Z" fill="white"/>
<path d="M100.795 54.3826C96.3809 54.9081 92.117 56.6494 88.2104 59.1895C91.5073 65.1387 94.5485 79.1041 94.2086 88.5498C109.502 86.1568 121.723 74.5248 124.998 59.5434C118.24 55.3916 109.957 53.2894 100.795 54.3826Z" fill="#6E78E1"/>
<path d="M69.6202 83.9812C72.3074 74.8543 79.3252 64.9601 88.2104 59.1897C81.2837 46.5837 69.2593 36.8647 54.8805 34.6188C52.3158 39.6956 50.8618 45.4275 50.8618 51.5028C50.8618 65.3841 58.4086 77.4961 69.6202 83.9812Z" fill="#6E78E1"/>
<path d="M69.6204 83.9812C68.8531 86.5949 68.4362 89.142 68.4362 91.514C68.4362 92.2813 68.4677 93.0416 68.5097 93.7983C68.5167 93.9385 68.5308 94.0786 68.5413 94.2188C69.0598 100.525 74.3363 105.483 80.7759 105.483C85.8176 105.483 89.9273 102.666 92.061 98.3705C92.3273 97.8345 92.7477 96.85 92.9054 96.2649C93.3048 95.0316 93.5431 93.8929 93.7778 92.6982C94.0196 91.4684 94.1562 90.067 94.2087 88.5569C92.3063 88.8547 90.3547 89.0124 88.3682 89.0124C81.5326 89.0054 75.1351 87.1695 69.6204 83.9812Z" fill="#6E78E1"/>
<path d="M40.1023 109.242C40.1023 109.817 40.1233 110.384 40.1583 110.948C40.1654 111.054 40.1724 111.159 40.1794 111.264C40.5683 115.976 44.5133 119.683 49.3238 119.683C53.0902 119.683 56.1628 117.577 57.757 114.364C57.9567 113.965 58.2685 113.229 58.3877 112.791C58.6855 111.87 58.8641 111.019 59.0393 110.125C60.3427 103.468 57.736 90.2421 54.8805 85.0848C46.3422 90.631 40.1023 101.278 40.1023 109.242Z" fill="#6E78E1"/>
<defs>
<clipPath id="clip0_1353_16772">
<rect width="67" height="67" fill="white" transform="translate(133.546) rotate(46.4334)"/>
</clipPath>
</defs>
</svg>
