<svg width="18" height="16" viewBox="0 0 18 16" fill="none" xmlns="http://www.w3.org/2000/svg">
<path d="M16.5044 8.57729L9.71195 15.3033C9.32223 15.6892 8.69442 15.6892 8.30471 15.3033L1.51221 8.57729C1.01777 8.09625 0.628313 7.51806 0.368353 6.87914C0.108393 6.24022 -0.0164335 5.5544 0.00173297 4.86487C0.0198994 4.17535 0.180666 3.49705 0.473908 2.8727C0.767151 2.24834 1.18652 1.69146 1.7056 1.23711C2.22468 0.782755 2.83223 0.440782 3.49 0.232722C4.14776 0.0246626 4.84149 -0.0449767 5.5275 0.0281886C6.21351 0.101354 6.87693 0.315739 7.476 0.657845C8.07506 0.99995 8.59679 1.46236 9.00833 2.01597C9.42165 1.46638 9.94398 1.00801 10.5426 0.669535C11.1413 0.33106 11.8034 0.119771 12.4875 0.0488924C13.1715 -0.0219865 13.8629 0.0490703 14.5182 0.257615C15.1736 0.466161 15.7788 0.807705 16.2961 1.26087C16.8134 1.71404 17.2315 2.26907 17.5243 2.89124C17.8172 3.5134 17.9784 4.1893 17.998 4.87664C18.0175 5.56397 17.895 6.24795 17.638 6.88575C17.381 7.52355 16.9951 8.10145 16.5044 8.58329" fill="#EC5B47"/>
</svg>
