<svg width="24" height="24" viewBox="0 0 24 24" fill="none" xmlns="http://www.w3.org/2000/svg">
<path d="M11.1429 0V6.85714H0V5.14286C0 3.77889 0.541835 2.47078 1.50631 1.50631C2.47078 0.541835 3.77889 0 5.14286 0H11.1429ZM12.8571 0V15.4286H24V5.14286C24 3.77889 23.4582 2.47078 22.4937 1.50631C21.5292 0.541835 20.2211 0 18.8571 0H12.8571ZM24 17.1429H12.8571V24H18.8571C20.2211 24 21.5292 23.4582 22.4937 22.4937C23.4582 21.5292 24 20.2211 24 18.8571V17.1429ZM11.1429 24V8.57143H0V18.8571C0 20.2211 0.541835 21.5292 1.50631 22.4937C2.47078 23.4582 3.77889 24 5.14286 24H11.1429Z" fill="#B5B5B5"/>
</svg>
