<svg width="154" height="154" viewBox="0 0 154 154" fill="none" xmlns="http://www.w3.org/2000/svg">
<rect width="154" height="154" rx="15" fill="#A8B9F5"/>
<g clip-path="url(#clip0_1419_11427)">
<mask id="mask0_1419_11427" style="mask-type:luminance" maskUnits="userSpaceOnUse" x="5" y="5" width="144" height="144">
<path d="M149 5H5V149H149V5Z" fill="white"/>
</mask>
<g mask="url(#mask0_1419_11427)">
<path d="M99.441 128.036H54.3696C50.9135 128.036 47.5358 127.356 44.3546 125.995C38.778 123.834 34.0128 120.104 30.57 115.208C27.0225 110.155 25.1375 104.198 25.1375 98.0059C25.1375 89.9815 28.2657 82.4413 33.9342 76.7728C39.6027 71.1042 47.1562 67.9753 55.168 67.9753C59.4877 67.9753 63.6898 68.892 67.5646 70.6593C70.3664 66.3913 74.0449 62.7262 78.3646 59.9118C84.3602 56.0107 91.3252 53.9424 98.5118 53.9424C108.409 53.9424 117.716 57.7911 124.72 64.7947C131.723 71.7977 135.572 81.0924 135.572 90.9893C135.572 99.8131 132.417 108.361 126.671 115.05C121.028 121.635 113.239 126.047 104.717 127.487C102.963 127.854 101.196 128.036 99.441 128.036ZM55.1808 77.9118C44.1059 77.9118 35.0995 86.9182 35.0995 97.9931C35.0995 106.24 40.2835 113.767 48.0069 116.739L48.1904 116.818C50.154 117.656 52.2353 118.088 54.3696 118.088H99.441C100.528 118.088 101.641 117.97 102.753 117.734L102.989 117.695C116.106 115.522 125.636 104.29 125.636 90.9893C125.636 76.0397 113.475 63.8781 98.5253 63.8781C88.0653 63.8781 78.4305 70.0177 73.9926 79.5348L71.4919 84.8888L66.6487 81.5118C63.2449 79.1551 59.2915 77.9118 55.1808 77.9118Z" fill="white"/>
<path d="M68.7432 87.1406C66.5698 87.1406 64.58 85.7005 63.9516 83.5145C63.3886 81.4985 62.1191 79.7572 60.4042 78.5792C58.126 77.0341 57.5372 73.945 59.0816 71.6675C60.6265 69.3894 63.7158 68.7999 65.994 70.345C69.6591 72.8321 72.3432 76.5502 73.534 80.8177C74.2805 83.4621 72.7356 86.2112 70.0913 86.9572C69.6463 87.0755 69.188 87.1406 68.7432 87.1406Z" fill="white"/>
<mask id="mask1_1419_11427" style="mask-type:alpha" maskUnits="userSpaceOnUse" x="4" y="14" width="116" height="83">
<path d="M73.5636 14.6545L11.2181 22.1818C11.2181 22.1818 2.70905 51.6364 4.18177 80.6C5.6545 109.564 25.2909 90.9091 25.2909 90.9091L40.7843 73.0914L63.7454 74.0545C63.7454 74.0545 87.9475 60.8784 91.3307 58.3047C97.9454 53.2727 111.854 61.7818 111.854 61.7818C111.854 61.7818 120.527 41.3273 119.873 40.0182C119.218 38.7091 73.5636 14.6545 73.5636 14.6545Z" fill="white"/>
</mask>
<g mask="url(#mask1_1419_11427)">
<mask id="mask2_1419_11427" style="mask-type:luminance" maskUnits="userSpaceOnUse" x="1" y="7" width="123" height="123">
<path d="M123.146 78.1453L52.4531 129.507L1.09137 58.8136L71.7847 7.45189L123.146 78.1453Z" fill="white"/>
</mask>
<g mask="url(#mask2_1419_11427)">
<path d="M82.0658 95.8515C83.7247 94.6463 86.0433 95.0135 87.2485 96.6723L88.6602 98.6154C89.8651 100.274 89.4978 102.592 87.839 103.798C86.1807 105.002 83.8621 104.635 82.6572 102.977L81.2455 101.034C80.0403 99.3749 80.4075 97.0564 82.0658 95.8515Z" fill="white"/>
<path d="M97.0731 71.3596C97.8395 70.8028 98.8256 70.5324 99.8347 70.6926L102.208 71.0681C104.226 71.3878 105.609 73.2915 105.289 75.3098C104.97 77.3281 103.066 78.7113 101.048 78.3916L98.6748 78.0161C96.6566 77.6963 95.2734 75.7927 95.593 73.7744C95.7448 72.7708 96.3068 71.9164 97.0731 71.3596Z" fill="white"/>
<path d="M90.3691 43.4289L92.3122 42.0172C93.9706 40.8123 96.2893 41.1796 97.494 42.8378C98.6993 44.4967 98.3321 46.8155 96.6737 48.0203L94.7307 49.432C93.0718 50.6372 90.7532 50.2699 89.5479 48.611C88.3432 46.9528 88.7103 44.6341 90.3691 43.4289Z" fill="white"/>
<path d="M66.2534 26.0492C67.0194 25.4927 67.998 25.2283 69.015 25.3822C71.0333 25.7019 72.4164 27.6055 72.0967 29.6238L71.7205 31.9966C71.401 34.015 69.4972 35.3982 67.4788 35.0784C65.4606 34.7588 64.0778 32.8555 64.3973 30.8371L64.7733 28.464C64.9254 27.4607 65.487 26.606 66.2534 26.0492Z" fill="white"/>
<path d="M36.5348 33.1833C38.1937 31.9781 40.512 32.3449 41.7172 34.0037L43.1289 35.9468C44.3342 37.6056 43.9668 39.9242 42.308 41.1294C40.6497 42.3343 38.3311 41.9671 37.1259 40.3082L35.7142 38.3651C34.509 36.7063 34.8765 34.3882 36.5348 33.1833Z" fill="white"/>
<path d="M20.567 59.2423C21.3334 58.6854 22.32 58.4153 23.3288 58.5751L25.7018 58.951C27.7202 59.2708 29.1031 61.1741 28.7833 63.1923C28.4639 65.2106 26.56 66.5938 24.5417 66.274L22.1691 65.8982C20.151 65.5786 18.7679 63.6749 19.0874 61.6566C19.2394 60.6535 19.801 59.7988 20.567 59.2423Z" fill="white"/>
<path d="M27.7007 88.9603L29.644 87.5484C31.3027 86.3433 33.6213 86.7106 34.8261 88.3688C36.0314 90.0278 35.6642 92.3464 34.0055 93.5515L32.0622 94.9634C30.4034 96.1686 28.0853 95.8009 26.88 94.142C25.6752 92.4838 26.0419 90.1655 27.7007 88.9603Z" fill="white"/>
<path d="M45.2235 45.1417C51.4638 40.6079 59.0862 38.7745 66.702 39.988C74.3111 41.1931 81.0079 45.2945 85.5359 51.5267C90.0694 57.7665 91.9027 65.3888 90.6897 73.0043C89.4844 80.6141 85.3831 87.3109 79.151 91.8388C72.9111 96.3724 65.2883 98.2054 57.6729 96.9924C50.0632 95.787 43.3666 91.6863 38.8386 85.4542C34.3051 79.2143 32.472 71.591 33.6852 63.9761C34.8903 56.3662 38.9836 49.6753 45.2235 45.1417ZM74.7895 85.8358C84.3551 78.886 86.4823 65.4534 79.5328 55.8882C72.5831 46.3229 59.1507 44.195 49.585 51.1448C40.0199 58.0943 37.8922 71.5273 44.8419 81.0926C51.7914 90.6578 65.2244 92.7853 74.7895 85.8358Z" fill="white"/>
</g>
</g>
</g>
</g>
<defs>
<clipPath id="clip0_1419_11427">
<rect width="144" height="144" fill="white" transform="translate(5 5)"/>
</clipPath>
</defs>
</svg>
