<svg width="24" height="24" viewBox="0 0 24 24" fill="none" xmlns="http://www.w3.org/2000/svg">
<path d="M24 7.33333V19.6667C24 20.8159 23.5435 21.9181 22.7308 22.7308C21.9181 23.5435 20.8159 24 19.6667 24H4.33333C3.18406 24 2.08186 23.5435 1.2692 22.7308C0.456546 21.9181 0 20.8159 0 19.6667V7.33333H24ZM5.66667 16C5.22464 16 4.80072 16.1756 4.48816 16.4882C4.17559 16.8007 4 17.2246 4 17.6667C4 18.1087 4.17559 18.5326 4.48816 18.8452C4.80072 19.1577 5.22464 19.3333 5.66667 19.3333C6.10869 19.3333 6.53262 19.1577 6.84518 18.8452C7.15774 18.5326 7.33333 18.1087 7.33333 17.6667C7.33333 17.2246 7.15774 16.8007 6.84518 16.4882C6.53262 16.1756 6.10869 16 5.66667 16ZM12 16C11.558 16 11.134 16.1756 10.8215 16.4882C10.5089 16.8007 10.3333 17.2246 10.3333 17.6667C10.3333 18.1087 10.5089 18.5326 10.8215 18.8452C11.134 19.1577 11.558 19.3333 12 19.3333C12.442 19.3333 12.866 19.1577 13.1785 18.8452C13.4911 18.5326 13.6667 18.1087 13.6667 17.6667C13.6667 17.2246 13.4911 16.8007 13.1785 16.4882C12.866 16.1756 12.442 16 12 16ZM5.66667 10C5.22464 10 4.80072 10.1756 4.48816 10.4882C4.17559 10.8007 4 11.2246 4 11.6667C4 12.1087 4.17559 12.5326 4.48816 12.8452C4.80072 13.1577 5.22464 13.3333 5.66667 13.3333C6.10869 13.3333 6.53262 13.1577 6.84518 12.8452C7.15774 12.5326 7.33333 12.1087 7.33333 11.6667C7.33333 11.2246 7.15774 10.8007 6.84518 10.4882C6.53262 10.1756 6.10869 10 5.66667 10ZM12 10C11.558 10 11.134 10.1756 10.8215 10.4882C10.5089 10.8007 10.3333 11.2246 10.3333 11.6667C10.3333 12.1087 10.5089 12.5326 10.8215 12.8452C11.134 13.1577 11.558 13.3333 12 13.3333C12.442 13.3333 12.866 13.1577 13.1785 12.8452C13.4911 12.5326 13.6667 12.1087 13.6667 11.6667C13.6667 11.2246 13.4911 10.8007 13.1785 10.4882C12.866 10.1756 12.442 10 12 10ZM18.3333 10C17.8913 10 17.4674 10.1756 17.1548 10.4882C16.8423 10.8007 16.6667 11.2246 16.6667 11.6667C16.6667 12.1087 16.8423 12.5326 17.1548 12.8452C17.4674 13.1577 17.8913 13.3333 18.3333 13.3333C18.7754 13.3333 19.1993 13.1577 19.5118 12.8452C19.8244 12.5326 20 12.1087 20 11.6667C20 11.2246 19.8244 10.8007 19.5118 10.4882C19.1993 10.1756 18.7754 10 18.3333 10ZM19.6667 0C20.8159 0 21.9181 0.456546 22.7308 1.2692C23.5435 2.08186 24 3.18406 24 4.33333V5.33333H0V4.33333C0 3.18406 0.456546 2.08186 1.2692 1.2692C2.08186 0.456546 3.18406 0 4.33333 0H19.6667Z" fill="#6E78E1"/>
</svg>
