<svg width="4" height="10" viewBox="0 0 4 10" fill="none" xmlns="http://www.w3.org/2000/svg">
<path d="M3.297 7.65909V9.09091C3.297 9.20171 3.25421 9.29759 3.16865 9.37855C3.08308 9.45952 2.98176 9.5 2.86466 9.5H1.13533C1.01824 9.5 0.916917 9.45952 0.831351 9.37855C0.745785 9.29759 0.703002 9.20171 0.703002 9.09091V7.65909C0.703002 7.5483 0.745785 7.45242 0.831351 7.37145C0.916917 7.29048 1.01824 7.25 1.13533 7.25H2.86466C2.98176 7.25 3.08308 7.29048 3.16865 7.37145C3.25421 7.45242 3.297 7.5483 3.297 7.65909ZM3.49965 0.909091L3.31051 5.81818C3.306 5.92898 3.25984 6.02486 3.17203 6.10582C3.08421 6.18679 2.98176 6.22727 2.86466 6.22727H1.13533C1.01824 6.22727 0.915791 6.18679 0.827973 6.10582C0.740156 6.02486 0.693995 5.92898 0.689492 5.81818L0.500346 0.909091C0.495843 0.798295 0.535248 0.702415 0.618562 0.621449C0.701876 0.540483 0.802078 0.5 0.919169 0.5H3.08083C3.19792 0.5 3.29812 0.540483 3.38144 0.621449C3.46475 0.702415 3.50416 0.798295 3.49965 0.909091Z" fill="#EC5B47"/>
</svg>
