<svg width="80" height="80" viewBox="0 0 80 80" fill="none" xmlns="http://www.w3.org/2000/svg">
<path d="M37.0571 61.2502C37.2746 54.888 26.7028 53.6924 25.9197 61.0367C25.6152 65.4775 25.4847 70.0037 25.5282 74.0601C25.5282 74.6579 28.269 74.7433 33.4462 74.7006C38.6233 74.6579 38.8408 73.804 36.7961 72.2241C36.8831 67.4844 36.8831 65.0932 37.0571 61.2502Z" fill="#829BF0"/>
<path d="M53.3425 61.0488C53.2175 54.3321 42.8403 54.1632 42.8403 61.3868C42.7569 64.893 42.7986 68.5259 43.007 73.2994C43.0904 73.8063 45.7159 73.8063 50.0085 73.6796C55.2179 73.5529 55.7597 72.6235 53.6343 71.0183C53.4259 68.3992 53.3842 65.1887 53.3425 61.0488Z" fill="#829BF0"/>
<path d="M62.2668 46.6811C63.4987 49.5557 65.3678 54.079 66.7272 56.8267C67.5343 58.4331 67.3644 59.8281 66.8122 61.0541C66.0475 62.745 64.1784 63.8864 62.6491 64.0977C58.3587 64.7318 55.6399 59.4477 54.3231 56.4885C52.6664 52.7685 50.7123 48.7102 52.8788 45.3707C55.5125 41.397 60.6526 42.9188 62.2668 46.6811Z" fill="#829BF0"/>
<path d="M33.4351 7.71249C46.5 6.2763 58.804 12.4857 61.51 26.1717C79.0568 26.9743 81.6782 48.7283 68.8669 57.9368C63.3281 61.823 56.7744 62.71 40.3692 62.71C23.6681 62.71 16.4802 62.71 9.96888 57.5989C1.0475 50.5869 2.01997 35.4647 12.7172 31.3673C12.2098 18.6951 21.7654 9.31764 33.4351 7.71249Z" fill="#BFCBF5"/>
<path d="M28.8832 51.3252C27.6736 54.2483 25.7965 58.848 24.8371 61.7711C24.2948 63.4906 23.1685 64.3933 21.9171 64.8232C20.2069 65.468 18.1212 64.9521 16.9116 64.0064C13.4911 61.3412 15.3682 55.6669 16.5361 52.6148C17.9961 48.7889 19.4978 44.4472 23.3771 43.6305C27.9656 42.6848 30.4683 47.4993 28.8832 51.3252Z" fill="#829BF0"/>
<path d="M36.4263 31.51C37.0503 31.51 37.5783 32.518 37.7703 33.526C37.9623 34.63 37.3863 35.734 36.4743 35.734C35.6103 35.734 35.0343 34.726 35.1303 33.67C35.1783 32.662 35.8503 31.51 36.4263 31.51Z" fill="#4B4682"/>
<path d="M50.8262 31.51C51.4502 31.51 51.9782 32.518 52.1702 33.526C52.3622 34.63 51.7862 35.734 50.8742 35.734C50.0102 35.734 49.4342 34.726 49.5302 33.67C49.5782 32.662 50.2502 31.51 50.8262 31.51Z" fill="#4B4682"/>
<path fill-rule="evenodd" clip-rule="evenodd" d="M38.7253 41.2483C42.6853 39.4662 46.5788 39.4595 50.2682 41.2543C50.5066 41.3703 50.6059 41.6576 50.4899 41.896C50.3739 42.1343 50.0866 42.2336 49.8483 42.1176C46.4337 40.4564 42.8392 40.4497 39.1192 42.1237C38.8775 42.2325 38.5933 42.1247 38.4845 41.8829C38.3757 41.6412 38.4835 41.357 38.7253 41.2483Z" fill="#4B4682"/>
<path fill-rule="evenodd" clip-rule="evenodd" d="M49.9143 28.7741C49.6305 29.1611 49.6305 29.1612 49.6306 29.1612L49.6311 29.1616L49.6321 29.1623L49.6347 29.1643L49.6433 29.1704C49.6504 29.1755 49.6603 29.1825 49.673 29.1914C49.6985 29.2092 49.7352 29.2344 49.7831 29.2662C49.8788 29.3298 50.0192 29.4196 50.2034 29.5289C50.5719 29.7475 51.1161 30.044 51.83 30.3641C52.0719 30.4725 52.3559 30.3643 52.4643 30.1224C52.5727 29.8805 52.4646 29.5965 52.2227 29.4881C51.5445 29.1841 51.0327 28.9046 50.6932 28.7032C50.5235 28.6025 50.3968 28.5214 50.314 28.4664C50.2727 28.4389 50.2422 28.418 50.2229 28.4045C50.2132 28.3977 50.2063 28.3928 50.2022 28.3899L50.1981 28.3869C50.1982 28.387 50.198 28.3869 50.1981 28.3869C49.9843 28.2303 49.684 28.2765 49.5272 28.4902C49.3705 28.704 49.4168 29.0045 49.6306 29.1612L49.9143 28.7741Z" fill="#4B4682"/>
<path fill-rule="evenodd" clip-rule="evenodd" d="M37.3426 28.3869C37.5563 28.2302 37.8566 28.2765 38.0134 28.4902C38.1701 28.704 38.1239 29.0043 37.9101 29.1611L37.6373 28.789C37.9101 29.1611 37.9102 29.1611 37.9101 29.1611L37.9095 29.1616L37.9085 29.1623L37.9059 29.1642L37.8973 29.1704C37.8902 29.1755 37.8803 29.1825 37.8676 29.1914C37.8421 29.2092 37.8054 29.2344 37.7575 29.2662C37.6618 29.3297 37.5214 29.4196 37.3372 29.5289C36.9687 29.7474 36.4245 30.044 35.7106 30.364C35.4687 30.4725 35.1847 30.3643 35.0763 30.1224C34.9679 29.8805 35.076 29.5965 35.318 29.488C35.9961 29.1841 36.5079 28.9046 36.8474 28.7032C37.0172 28.6025 37.1438 28.5213 37.2266 28.4664C37.268 28.4389 37.2984 28.418 37.3177 28.4045C37.3274 28.3977 37.3343 28.3928 37.3384 28.3899L37.3426 28.3869Z" fill="#4B4682"/>
<path d="M31.2003 36.31C31.6323 36.31 32.8323 38.182 33.0723 39.622C33.3603 41.158 32.5443 42.262 31.2483 42.262C30.0483 42.262 29.2323 41.35 29.3763 39.862C29.4243 38.374 30.8163 36.31 31.2003 36.31Z" fill="#D0F0F9"/>
</svg>
