<svg width="18" height="16" viewBox="0 0 18 16" fill="none" xmlns="http://www.w3.org/2000/svg">
<path d="M6.74993 14.1512C7.16415 14.1512 7.49993 14.487 7.49993 14.9012C7.49993 15.3154 7.16415 15.6512 6.74993 15.6512C6.33572 15.6512 5.99993 15.3154 5.99993 14.9012C5.99993 14.487 6.33572 14.1512 6.74993 14.1512ZM11.2499 14.1512C11.6641 14.1512 11.9999 14.487 11.9999 14.9012C11.9999 15.3154 11.6641 15.6512 11.2499 15.6512C10.8357 15.6512 10.4999 15.3154 10.4999 14.9012C10.4999 14.487 10.8357 14.1512 11.2499 14.1512ZM4.49993 13.1512C4.91415 13.1512 5.24993 13.487 5.24993 13.9012C5.24993 14.3154 4.91415 14.6512 4.49993 14.6512C4.08572 14.6512 3.74993 14.3154 3.74993 13.9012C3.74993 13.487 4.08572 13.1512 4.49993 13.1512ZM8.99993 13.1512C9.41415 13.1512 9.74993 13.487 9.74993 13.9012C9.74993 14.3154 9.41415 14.6512 8.99993 14.6512C8.58572 14.6512 8.24993 14.3154 8.24993 13.9012C8.24993 13.487 8.58572 13.1512 8.99993 13.1512ZM13.4999 13.1512C13.9141 13.1512 14.2499 13.487 14.2499 13.9012C14.2499 14.3154 13.9141 14.6512 13.4999 14.6512C13.0857 14.6512 12.7499 14.3154 12.7499 13.9012C12.7499 13.487 13.0857 13.1512 13.4999 13.1512ZM8.99993 0.000671387C12.1685 0.000671387 13.9659 2.09796 14.2273 4.6308L14.3073 4.6308C16.3464 4.6308 17.9994 6.27952 17.9994 8.31332C17.9994 10.3471 16.3464 11.9959 14.3073 11.9959H3.69257C1.65349 11.9959 0.000488281 10.3471 0.000488281 8.31332C0.000488281 6.27952 1.65349 4.6308 3.69259 4.6308L3.77253 4.6308C4.03547 2.08131 5.8314 0.000671387 8.99993 0.000671387ZM8.99993 1.49826C6.92861 1.49826 5.12322 3.1315 5.12322 5.38748C5.12322 5.74494 4.80427 6.02543 4.43906 6.02541L3.74851 6.02539C2.48751 6.02539 1.46528 7.02668 1.46528 8.26183C1.46528 9.49698 2.48751 10.4983 3.74851 10.4983H14.2514C15.5124 10.4983 16.5346 9.49698 16.5346 8.26183C16.5346 7.02668 15.5124 6.02539 14.2514 6.02539L13.5608 6.02541C13.1956 6.02543 12.8766 5.74494 12.8766 5.38748C12.8766 3.10256 11.0713 1.49826 8.99993 1.49826Z" fill="#6E78E1"/>
</svg>
