<svg width="108" height="108" viewBox="0 0 108 108" fill="none" xmlns="http://www.w3.org/2000/svg">
<path d="M49.299 83.6722C49.6049 74.7253 34.7383 73.044 33.637 83.372C33.2088 89.6168 33.0252 95.9817 33.0864 101.686C33.0864 102.527 36.9407 102.647 44.2211 102.587C51.5015 102.527 51.8074 101.326 48.9319 99.1042C49.0543 92.439 49.0543 89.0764 49.299 83.6722Z" fill="#829BF0"/>
<path d="M72.2004 83.389C72.0246 73.9436 57.4316 73.706 57.4316 83.8642C57.3144 88.7948 57.373 93.9036 57.666 100.616C57.7832 101.329 61.4754 101.329 67.5119 101.151C74.8377 100.973 75.5995 99.6659 72.6106 97.4085C72.3176 93.7254 72.259 89.2106 72.2004 83.389Z" fill="#829BF0"/>
<path d="M84.7503 63.1843C86.4826 67.2267 89.1111 73.5875 91.0227 77.4516C92.1577 79.7106 91.9187 81.6723 91.1422 83.3963C90.0669 85.7742 87.4384 87.3792 85.2879 87.6764C79.2544 88.5681 75.4312 81.1373 73.5794 76.976C71.2496 71.7447 68.5017 66.0378 71.5483 61.3415C75.252 55.7535 82.4802 57.8936 84.7503 63.1843Z" fill="#829BF0"/>
<path d="M44.2056 8.38474C62.5783 6.3651 79.8806 15.0971 83.6859 34.343C108.361 35.4716 112.048 66.0632 94.0317 79.0127C86.2427 84.4776 77.0266 85.725 53.9568 85.725C30.4708 85.725 20.3629 85.725 11.2063 78.5375C-1.33939 68.6769 0.0281477 47.4113 15.0711 41.6494C14.3576 23.829 27.7952 10.642 44.2056 8.38474Z" fill="#BFCBF5"/>
<path d="M37.8047 69.7151C36.1036 73.8258 33.4639 80.294 32.1148 84.4046C31.3522 86.8227 29.7684 88.0921 28.0086 88.6966C25.6036 89.6034 22.6706 88.878 20.9695 87.5481C16.1595 83.8001 18.7991 75.8206 20.4416 71.5286C22.4947 66.1485 24.6064 60.043 30.0617 58.8944C36.5142 57.5645 40.0338 64.335 37.8047 69.7151Z" fill="#829BF0"/>
<path d="M48.4124 41.85C49.2899 41.85 50.0324 43.2675 50.3024 44.685C50.5724 46.2375 49.7624 47.79 48.4799 47.79C47.2649 47.79 46.4549 46.3725 46.5899 44.8875C46.6574 43.47 47.6024 41.85 48.4124 41.85Z" fill="#4B4682"/>
<path d="M68.6624 41.85C69.5399 41.85 70.2824 43.2675 70.5524 44.685C70.8224 46.2375 70.0124 47.79 68.7299 47.79C67.5149 47.79 66.7049 46.3725 66.8399 44.8875C66.9074 43.47 67.8524 41.85 68.6624 41.85Z" fill="#4B4682"/>
<path fill-rule="evenodd" clip-rule="evenodd" d="M51.645 55.2745C57.2138 52.7686 62.6891 52.7591 67.8773 55.2831C68.2125 55.4462 68.352 55.8501 68.189 56.1854C68.0259 56.5206 67.6219 56.6601 67.2867 56.4971C62.4849 54.1611 57.4302 54.1516 52.199 56.5056C51.859 56.6586 51.4594 56.507 51.3064 56.1671C51.1535 55.8271 51.305 55.4275 51.645 55.2745Z" fill="#4B4682"/>
</svg>
