<svg width="80" height="80" viewBox="0 0 80 80" fill="none" xmlns="http://www.w3.org/2000/svg">
<path d="M37.0571 61.2502C37.2746 54.888 26.7028 53.6924 25.9197 61.0367C25.6152 65.4775 25.4847 70.0037 25.5282 74.0601C25.5282 74.6579 28.269 74.7433 33.4462 74.7006C38.6233 74.6579 38.8408 73.804 36.7961 72.2241C36.8831 67.4844 36.8831 65.0932 37.0571 61.2502Z" fill="#829BF0"/>
<path d="M53.3425 61.0488C53.2175 54.3321 42.8403 54.1632 42.8403 61.3868C42.7569 64.893 42.7986 68.5259 43.007 73.2994C43.0904 73.8063 45.7159 73.8063 50.0085 73.6796C55.2179 73.5529 55.7597 72.6235 53.6343 71.0183C53.4259 68.3992 53.3842 65.1887 53.3425 61.0488Z" fill="#829BF0"/>
<path d="M62.2668 46.6811C63.4987 49.5557 65.3678 54.079 66.7272 56.8267C67.5343 58.4331 67.3644 59.8281 66.8122 61.0541C66.0475 62.745 64.1784 63.8864 62.6491 64.0977C58.3587 64.7318 55.6399 59.4477 54.3231 56.4885C52.6664 52.7685 50.7123 48.7102 52.8788 45.3707C55.5125 41.397 60.6526 42.9188 62.2668 46.6811Z" fill="#829BF0"/>
<path d="M33.4351 7.71249C46.5 6.2763 58.804 12.4857 61.51 26.1717C79.0568 26.9743 81.6782 48.7283 68.8669 57.9368C63.3281 61.823 56.7744 62.71 40.3692 62.71C23.6681 62.71 16.4802 62.71 9.96888 57.5989C1.0475 50.5869 2.01997 35.4647 12.7172 31.3673C12.2098 18.6951 21.7654 9.31764 33.4351 7.71249Z" fill="#BFCBF5"/>
<path d="M28.8832 51.3252C27.6736 54.2483 25.7965 58.848 24.8371 61.7711C24.2948 63.4906 23.1685 64.3933 21.9171 64.8232C20.2069 65.468 18.1212 64.9521 16.9116 64.0064C13.4911 61.3412 15.3682 55.6669 16.5361 52.6148C17.9961 48.7889 19.4978 44.4472 23.3771 43.6305C27.9656 42.6848 30.4683 47.4993 28.8832 51.3252Z" fill="#829BF0"/>
<path fill-rule="evenodd" clip-rule="evenodd" d="M48.8613 40.9991C48.5253 40.9623 48.136 41.0219 47.5702 41.2256L47.5666 41.2269L47.563 41.2281C47.0566 41.4014 46.6449 41.4527 46.2752 41.4284C45.9279 41.4056 45.6392 41.3161 45.3998 41.2418C45.3897 41.2387 45.3796 41.2356 45.3697 41.2325C45.1187 41.1548 44.9094 41.0932 44.6515 41.0776C44.3975 41.0621 44.0723 41.0907 43.6155 41.2319C43.0045 41.4266 42.5388 41.4726 42.1392 41.4314C41.8089 41.3974 41.5372 41.3021 41.3281 41.2288C41.2916 41.216 41.2569 41.2038 41.2242 41.1928C41.0022 41.1179 40.8164 41.0707 40.5588 41.0905C40.289 41.1113 39.9051 41.2093 39.3116 41.4946C39.0727 41.6094 38.7859 41.5089 38.671 41.2699C38.5562 41.031 38.6567 40.7442 38.8957 40.6294C39.5502 40.3147 40.0543 40.1666 40.485 40.1334C40.9279 40.0992 41.2551 40.19 41.5311 40.2831C41.5782 40.299 41.6224 40.3144 41.6645 40.329C41.871 40.4005 42.0279 40.4549 42.2376 40.4765C42.4781 40.5013 42.8097 40.4814 43.3257 40.3167L43.3297 40.3154L43.3297 40.3154C43.8799 40.1451 44.3222 40.0958 44.7097 40.1193C45.0939 40.1427 45.4006 40.2371 45.6536 40.3154C45.9123 40.3955 46.106 40.4553 46.3381 40.4705C46.5618 40.4852 46.8451 40.4587 47.2488 40.321C47.8814 40.0936 48.427 39.9858 48.9659 40.0448C49.5082 40.1042 49.9893 40.3267 50.5012 40.6595C50.7235 40.804 50.7866 41.1013 50.6421 41.3236C50.4976 41.5458 50.2003 41.6089 49.978 41.4644C49.53 41.1732 49.195 41.0357 48.8613 40.9991Z" fill="#4B4682"/>
<path fill-rule="evenodd" clip-rule="evenodd" d="M35.1617 32.8496C35.2702 32.6077 35.5542 32.4995 35.7961 32.608L35.8155 32.6167C36.4952 32.9214 37.0281 33.1603 37.3899 33.3513C37.5704 33.4466 37.7344 33.5433 37.8587 33.6436C37.9212 33.694 37.991 33.759 38.048 33.8404C38.1057 33.9226 38.1677 34.0467 38.1677 34.204C38.1677 34.5446 37.8991 34.717 37.7881 34.7779C37.6485 34.8545 37.472 34.9118 37.2906 34.9607C36.925 35.0592 36.3891 35.1608 35.7138 35.2889L35.6892 35.2936C35.4287 35.343 35.1776 35.1719 35.1282 34.9114C35.0788 34.651 35.2499 34.3998 35.5103 34.3504C36.033 34.2512 36.4428 34.1733 36.7526 34.1039C36.4288 33.9438 35.9838 33.7442 35.4034 33.484C35.1615 33.3755 35.0533 33.0915 35.1617 32.8496ZM37.3397 33.9281C37.34 33.9281 37.3373 33.93 37.3308 33.9338C37.3361 33.9299 37.3394 33.928 37.3397 33.9281Z" fill="#4B4682"/>
<path fill-rule="evenodd" clip-rule="evenodd" d="M52.5019 32.8976C52.6103 33.1395 52.5021 33.4235 52.2602 33.532C51.6797 33.7922 51.2347 33.9918 50.911 34.1519C51.2208 34.2213 51.6306 34.2992 52.1533 34.3984C52.4137 34.4478 52.5848 34.6989 52.5354 34.9594C52.486 35.2199 52.2349 35.3909 51.9744 35.3415L51.9499 35.3369C51.2745 35.2088 50.7386 35.1072 50.373 35.0087C50.1916 34.9598 50.0151 34.9024 49.8755 34.8259C49.7645 34.765 49.4958 34.5926 49.4958 34.252C49.4958 34.0947 49.5579 33.9706 49.6156 33.8883C49.6726 33.807 49.7424 33.742 49.8049 33.6916C49.9292 33.5913 50.0932 33.4946 50.2737 33.3992C50.6355 33.2082 51.1684 32.9693 51.8481 32.6646L51.8675 32.6559C52.1094 32.5475 52.3934 32.6557 52.5019 32.8976ZM50.3239 33.976C50.3242 33.976 50.3275 33.9779 50.3328 33.9818C50.3263 33.978 50.3236 33.9761 50.3239 33.976Z" fill="#4B4682"/>
<path fill-rule="evenodd" clip-rule="evenodd" d="M36.0739 29.8737C36.1823 29.6318 36.4663 29.5236 36.7082 29.632C37.4221 29.952 37.9663 30.2486 38.3348 30.4672C38.519 30.5765 38.6594 30.6663 38.7551 30.7299C38.803 30.7616 38.8397 30.7869 38.8651 30.8046C38.8779 30.8135 38.8878 30.8206 38.8949 30.8257L38.9034 30.8318L38.9061 30.8338L38.9076 30.8348C38.9076 30.8349 38.9077 30.8349 38.6306 31.2129L38.9076 30.8348C39.1214 30.9916 39.1677 31.2921 39.0109 31.5059C38.8543 31.7195 38.5543 31.7658 38.3405 31.6095C38.3405 31.6094 38.3406 31.6095 38.3405 31.6095L38.3401 31.6092L38.336 31.6062C38.3319 31.6032 38.325 31.5983 38.3153 31.5916C38.2959 31.5781 38.2655 31.5571 38.2241 31.5297C38.1414 31.4747 38.0147 31.3936 37.845 31.2928C37.5054 31.0914 36.9936 30.812 36.3155 30.508C36.0736 30.3996 35.9654 30.1156 36.0739 29.8737Z" fill="#4B4682"/>
<path fill-rule="evenodd" clip-rule="evenodd" d="M51.5418 29.8737C51.6502 30.1156 51.542 30.3996 51.3001 30.508C50.622 30.812 50.1102 31.0914 49.7707 31.2928C49.6009 31.3936 49.4743 31.4747 49.3915 31.5297C49.3501 31.5571 49.3197 31.5781 49.3003 31.5916C49.2907 31.5983 49.2838 31.6032 49.2796 31.6062L49.2756 31.6091C49.0618 31.7658 48.7614 31.7196 48.6047 31.5059C48.4479 31.2921 48.4941 30.9917 48.7079 30.8349L48.9918 31.222C48.7079 30.8349 48.7078 30.835 48.7079 30.8349L48.7086 30.8344L48.7095 30.8338L48.7122 30.8318L48.7207 30.8257C48.7278 30.8206 48.7377 30.8135 48.7505 30.8046C48.7759 30.7869 48.8127 30.7616 48.8605 30.7299C48.9563 30.6663 49.0966 30.5765 49.2809 30.4672C49.6493 30.2486 50.1935 29.952 50.9074 29.632C51.1493 29.5236 51.4333 29.6318 51.5418 29.8737Z" fill="#4B4682"/>
</svg>
