<svg width="38" height="33" viewBox="0 0 38 33" fill="none" xmlns="http://www.w3.org/2000/svg">
<path fill-rule="evenodd" clip-rule="evenodd" d="M7.63117 2.15426C8.62048 1.14828 9.96616 0.579208 11.3722 0.5722C12.7684 0.565541 14.8131 0.16429 15.4467 1.81802C15.705 2.49131 16.1604 3.06968 16.7526 3.47646C17.3447 3.88325 18.0457 4.09925 18.7625 4.09583C19.4793 4.09241 20.1782 3.86974 20.7665 3.45732C21.3547 3.0449 21.8046 2.46222 22.0565 1.78649C22.6742 0.128577 24.7244 0.510297 26.1189 0.503646C27.5241 0.497246 28.8743 1.05277 29.8731 2.04817L36.4578 8.61351C37.1236 9.27776 37.5002 10.1811 37.5047 11.1248C37.5092 12.0685 37.1413 12.9754 36.4818 13.6459L33.8822 16.2885C32.9676 17.2182 31.686 17.5251 30.5288 17.2405L31.0556 26.9044C31.0949 27.6269 30.9881 28.3498 30.7414 29.0293C30.4948 29.7089 30.1135 30.3308 29.6208 30.8574C29.1281 31.3841 28.5342 31.8043 27.8753 32.0927C27.2163 32.3811 26.5059 32.5316 25.7874 32.5351L12.0092 32.6008C11.2907 32.6042 10.5789 32.4605 9.91723 32.1784C9.25552 31.8963 8.65766 31.4817 8.15995 30.9598C7.66224 30.4379 7.27508 29.8196 7.02197 29.1425C6.76886 28.4653 6.65509 27.7434 6.68758 27.0207L7.12219 17.3521C6.5306 17.505 5.90973 17.5006 5.32034 17.3393C4.73094 17.178 4.19322 16.8655 3.75979 16.4321L1.13513 13.8145C0.469297 13.1503 0.0927254 12.247 0.0882245 11.3032C0.0837235 10.3595 0.451662 9.45267 1.11113 8.7821L7.63117 2.15426Z" fill="#829BF0"/>
</svg>
