<svg width="338" height="88" viewBox="0 0 338 88" fill="none" xmlns="http://www.w3.org/2000/svg">
<g filter="url(#filter0_d_778_27195)">
<rect x="5" y="5" width="328" height="78" rx="9" stroke="#6E78E1" stroke-width="2" stroke-dasharray="10 10"/>
<path d="M126.858 42.4816V43.8146H124.896V50.5822H123.27V37.3693H124.896V42.4816H126.858ZM116.604 38.6583V45.9679C118.37 45.9386 120.252 45.7848 122.244 45.3673L122.42 46.7443C120.193 47.1837 118.069 47.3156 116.106 47.3156H114.993V38.6583H116.604ZM131.78 38.2921C133.875 38.2775 135.413 39.6105 135.428 41.4855C135.413 43.3751 133.875 44.6935 131.78 44.6935C129.7 44.6935 128.147 43.3751 128.147 41.4855C128.147 39.6105 129.7 38.2775 131.78 38.2921ZM131.78 39.6984C130.623 39.6984 129.759 40.3868 129.759 41.4855C129.759 42.5988 130.623 43.2726 131.78 43.2726C132.952 43.2726 133.831 42.5988 133.831 41.4855C133.831 40.3868 132.952 39.6984 131.78 39.6984ZM138.519 37.3693V50.6261H136.893V37.3693H138.519ZM127.547 46.5245C129.935 46.5245 133.245 46.4952 136.102 46.0851L136.233 47.2716C133.26 47.8429 130.081 47.8575 127.752 47.8575L127.547 46.5245ZM154.778 38.5411V39.7423C154.764 41.3536 154.793 43.1993 154.192 45.9972L152.596 45.8361C152.823 44.774 152.962 43.8292 153.05 42.9796L145.242 43.4191L145.008 42.0275L153.138 41.7345C153.167 41.046 153.174 40.4308 153.182 39.8595H145.418V38.5411H154.778ZM156.082 47.6378V48.9855H144.012V47.6378H148.465V44.3712H150.076V47.6378H156.082ZM167.991 37.3693V50.6261H166.351V37.3693H167.991ZM164.183 38.5704V39.9034H159.437V46.0558C161.875 46.0485 163.406 45.9752 165.164 45.6603L165.325 47.0079C163.436 47.3595 161.722 47.4327 158.924 47.4327H157.796V38.5704H164.183ZM185.569 45.3234V46.6564H180.325V50.6261H178.714V46.6564H173.499V45.3234H185.569ZM184.441 38.9366V40.2257H180.354C180.508 41.5367 182.229 42.9064 184.881 43.2286L184.28 44.5177C182.09 44.2394 180.391 43.2726 179.534 41.9982C178.663 43.2872 176.949 44.2394 174.744 44.5177L174.158 43.2286C176.802 42.9064 178.538 41.5587 178.699 40.2257H174.612V38.9366H178.714V37.3839H180.325V38.9366H184.441ZM196.834 37.3693V42.5402H198.797V43.9025H196.834V50.5822H195.208V37.3693H196.834ZM193.333 38.7462C193.333 42.6427 191.722 46.0558 187.312 48.2238L186.39 46.964C189.612 45.36 191.355 43.1041 191.692 40.0939H187.107V38.7462H193.333ZM209.798 37.3693V42.6427H211.834V43.9904H209.798V50.6115H208.187V37.3693H209.798ZM207.161 39.4054V40.7091H199.354V39.4054H202.488V37.5597H204.114V39.4054H207.161ZM203.309 41.5734C205.213 41.5734 206.634 42.8624 206.634 44.6935C206.634 46.5245 205.213 47.799 203.309 47.799C201.375 47.799 199.954 46.5245 199.969 44.6935C199.954 42.8624 201.375 41.5734 203.309 41.5734ZM203.309 42.9064C202.269 42.9064 201.521 43.6095 201.521 44.6935C201.521 45.7775 202.269 46.4659 203.309 46.4513C204.319 46.4659 205.066 45.7775 205.081 44.6935C205.066 43.6095 204.319 42.9064 203.309 42.9064ZM223.45 37.3693V50.6115H221.81V37.3693H223.45ZM219.495 38.7755C219.495 42.7159 217.972 46.0704 213.328 48.2677L212.479 46.964C215.943 45.316 217.554 43.0748 217.84 40.0646H213.152V38.7755H219.495Z" fill="#6E78E1"/>
</g>
<defs>
<filter id="filter0_d_778_27195" x="0" y="0" width="338" height="88" filterUnits="userSpaceOnUse" color-interpolation-filters="sRGB">
<feFlood flood-opacity="0" result="BackgroundImageFix"/>
<feColorMatrix in="SourceAlpha" type="matrix" values="0 0 0 0 0 0 0 0 0 0 0 0 0 0 0 0 0 0 127 0" result="hardAlpha"/>
<feOffset/>
<feGaussianBlur stdDeviation="2"/>
<feComposite in2="hardAlpha" operator="out"/>
<feColorMatrix type="matrix" values="0 0 0 0 0 0 0 0 0 0 0 0 0 0 0 0 0 0 0.25 0"/>
<feBlend mode="normal" in2="BackgroundImageFix" result="effect1_dropShadow_778_27195"/>
<feBlend mode="normal" in="SourceGraphic" in2="effect1_dropShadow_778_27195" result="shape"/>
</filter>
</defs>
</svg>
