<svg width="43" height="34" viewBox="0 0 43 34" fill="none" xmlns="http://www.w3.org/2000/svg">
<path d="M37.1789 13.4637C37.3478 12.6973 37.4384 11.903 37.4384 11.0858C37.4384 4.96293 32.4446 0 26.2835 0C21.9295 0 18.1612 2.48043 16.3228 6.09595C16.1103 6.06281 15.8966 6.03381 15.6809 6.01206C6.75716 5.10689 0 12.2147 0 19.9656C0 27.7166 6.32259 34 14.1219 34H31.4452V33.9979C37.576 33.9627 42.5344 29.0143 42.5344 22.9132C42.5344 19.1122 40.4658 15.4739 37.1789 13.4637Z" fill="#6E78E1"/>
<path d="M29.981 11.9372C28.6679 12.0925 27.3996 12.6072 26.2377 13.3581C27.2183 15.1167 28.1229 19.2448 28.0218 22.037C32.5707 21.3297 36.2056 17.8912 37.18 13.4627C35.1697 12.2354 32.7062 11.614 29.981 11.9372Z" fill="white"/>
<path d="M20.7083 20.6866C21.5077 17.9887 23.595 15.0639 26.2379 13.3582C24.1776 9.63184 20.601 6.7589 16.3241 6.09503C15.5613 7.59572 15.1288 9.29007 15.1288 11.0859C15.1288 15.1892 17.3735 18.7696 20.7083 20.6866Z" fill="white"/>
<path d="M20.708 20.6864C20.4797 21.459 20.3557 22.2119 20.3557 22.9131C20.3557 23.1399 20.3651 23.3646 20.3776 23.5883C20.3797 23.6298 20.3838 23.6712 20.387 23.7126C20.5412 25.5768 22.1107 27.0423 24.0261 27.0423C25.5257 27.0423 26.7481 26.2096 27.3828 24.9399C27.462 24.7814 27.587 24.4904 27.6339 24.3175C27.7527 23.9529 27.8236 23.6163 27.8934 23.2631C27.9653 22.8996 28.006 22.4854 28.0216 22.039C27.4557 22.127 26.8753 22.1736 26.2844 22.1736C24.2512 22.1716 22.3483 21.6289 20.708 20.6864Z" fill="white"/>
<path d="M11.9281 28.1538C11.9281 28.3236 11.9344 28.4914 11.9448 28.6581C11.9469 28.6892 11.9489 28.7203 11.951 28.7513C12.0667 30.1443 13.2401 31.2401 14.671 31.2401C15.7913 31.2401 16.7052 30.6176 17.1794 29.6679C17.2388 29.5498 17.3315 29.3324 17.367 29.2029C17.4555 28.9305 17.5087 28.6788 17.5608 28.4147C17.9485 26.447 17.1731 22.5373 16.3238 21.0128C13.7841 22.6523 11.9281 25.7997 11.9281 28.1538Z" fill="white"/>
</svg>
