<svg width="108" height="108" viewBox="0 0 108 108" fill="none" xmlns="http://www.w3.org/2000/svg">
<path d="M49.2992 83.6721C49.6051 74.7252 34.7385 73.0439 33.6373 83.3719C33.209 89.6167 33.0255 95.9816 33.0867 101.686C33.0867 102.527 36.941 102.647 44.2213 102.587C51.5017 102.527 51.8076 101.326 48.9322 99.1041C49.0545 92.4389 49.0545 89.0763 49.2992 83.6721Z" fill="#829BF0"/>
<path d="M72.2004 83.3889C72.0246 73.9435 57.4316 73.7059 57.4316 83.8641C57.3144 88.7947 57.373 93.9035 57.666 100.616C57.7832 101.329 61.4754 101.329 67.5119 101.151C74.8377 100.973 75.5995 99.6658 72.6106 97.4084C72.3176 93.7253 72.259 89.2106 72.2004 83.3889Z" fill="#829BF0"/>
<path d="M84.7505 63.1842C86.4829 67.2265 89.1113 73.5874 91.0229 77.4514C92.1579 79.7104 91.919 81.6721 91.1424 83.3961C90.0671 85.774 87.4387 87.379 85.2881 87.6763C79.2547 88.568 75.4315 81.1371 73.5796 76.9758C71.2499 71.7445 68.502 66.0376 71.5486 61.3413C75.2523 55.7533 82.4805 57.8934 84.7505 63.1842Z" fill="#829BF0"/>
<path d="M44.2059 8.38483C62.5785 6.36519 79.8809 15.0971 83.6862 34.3431C108.361 35.4717 112.048 66.0633 94.0319 79.0128C86.2429 84.4777 77.0268 85.7251 53.957 85.7251C30.471 85.7251 20.3631 85.7251 11.2065 78.5376C-1.33915 68.677 0.0283918 47.4114 15.0713 41.6495C14.3578 23.8291 27.7954 10.6421 44.2059 8.38483Z" fill="#BFCBF5"/>
<path d="M37.8047 69.7152C36.1036 73.8258 33.4639 80.2941 32.1148 84.4047C31.3522 86.8228 29.7684 88.0922 28.0086 88.6967C25.6036 89.6035 22.6706 88.8781 20.9695 87.5481C16.1595 83.8002 18.7991 75.8207 20.4416 71.5287C22.4947 66.1486 24.6064 60.0431 30.0617 58.8945C36.5142 57.5646 40.0338 64.3351 37.8047 69.7152Z" fill="#829BF0"/>
<path d="M48.4124 41.8501C49.2899 41.8501 50.0324 43.2676 50.3024 44.6851C50.5724 46.2376 49.7624 47.7901 48.4799 47.7901C47.2649 47.7901 46.4549 46.3726 46.5899 44.8876C46.6574 43.4701 47.6024 41.8501 48.4124 41.8501Z" fill="#4B4682"/>
<path d="M68.6624 41.8501C69.5399 41.8501 70.2824 43.2676 70.5524 44.6851C70.8224 46.2376 70.0124 47.7901 68.7299 47.7901C67.5149 47.7901 66.7049 46.3726 66.8399 44.8876C66.9074 43.4701 67.8524 41.8501 68.6624 41.8501Z" fill="#4B4682"/>
<path fill-rule="evenodd" clip-rule="evenodd" d="M51.6452 55.2745C57.2141 52.7686 62.6893 52.7591 67.8775 55.2831C68.2127 55.4462 68.3523 55.8501 68.1892 56.1854C68.0261 56.5206 67.6222 56.6601 67.2869 56.4971C62.4851 54.1611 57.4304 54.1516 52.1992 56.5056C51.8593 56.6586 51.4597 56.507 51.3067 56.1671C51.1537 55.8271 51.3053 55.4275 51.6452 55.2745Z" fill="#4B4682"/>
</svg>
