<svg width="40" height="36" viewBox="0 0 40 36" fill="none" xmlns="http://www.w3.org/2000/svg">
<path fill-rule="evenodd" clip-rule="evenodd" d="M23.0414 0C23.9684 6.3297e-05 24.8827 0.21713 25.7117 0.634L29.751 2.666C30.9649 3.27602 32.0417 4.12921 32.9153 5.1731C33.789 6.21698 34.4409 7.42947 34.831 8.736L39.3319 23.814C39.6015 24.7164 39.5455 25.6854 39.1738 26.5504C38.8022 27.4153 38.1387 28.1206 37.3003 28.542L35.2866 29.552C34.8964 29.7481 34.4529 29.8099 34.0244 29.7279C33.5958 29.6459 33.2059 29.4246 32.9148 29.098L31.9398 28L31.4065 31.504C31.0742 32.7913 30.3261 33.9312 29.2795 34.7449C28.233 35.5587 26.9473 36.0001 25.6242 36H14.3778C13.0547 36.0001 11.769 35.5587 10.7225 34.7449C9.67593 33.9312 8.9278 32.7913 8.59548 31.504L8.06221 28L7.08721 29.098C6.79593 29.425 6.4057 29.6466 5.97672 29.7287C5.54773 29.8107 5.1038 29.7486 4.71339 29.552L2.69971 28.542C1.86133 28.1206 1.19784 27.4153 0.826182 26.5504C0.454524 25.6854 0.39855 24.7164 0.668128 23.814L5.16905 8.736C5.55913 7.42947 6.21104 6.21698 7.08466 5.1731C7.95827 4.12921 9.03514 3.27602 10.249 2.666L14.2903 0.634C15.1193 0.21713 16.0336 6.3297e-05 16.9606 0H23.0414ZM23.0414 4H16.9606C16.7299 4.00027 16.5009 4.04088 16.2841 4.12L16.0711 4.212L14.1609 5.172L20.001 14.3L25.8411 5.168L23.9308 4.208C23.7243 4.10479 23.5014 4.03846 23.2722 4.012L23.0414 4Z" fill="#E6962D"/>
</svg>
