<svg width="18" height="16" viewBox="0 0 18 16" fill="none" xmlns="http://www.w3.org/2000/svg">
<mask id="path-1-inside-1_759_16168" fill="white">
<path d="M16.5044 8.57729L9.71189 15.3033C9.32217 15.6892 8.69436 15.6892 8.30465 15.3033L1.51215 8.57729C1.01771 8.09625 0.628252 7.51806 0.368292 6.87914C0.108332 6.24022 -0.0164945 5.5544 0.00167194 4.86487C0.0198384 4.17535 0.180605 3.49705 0.473847 2.8727C0.76709 2.24834 1.18646 1.69146 1.70554 1.23711C2.22462 0.782755 2.83217 0.440782 3.48994 0.232722C4.1477 0.0246626 4.84143 -0.0449767 5.52744 0.0281886C6.21345 0.101354 6.87687 0.315739 7.47594 0.657845C8.075 0.99995 8.59673 1.46236 9.00827 2.01597C9.42159 1.46638 9.94392 1.00801 10.5426 0.669535C11.1412 0.33106 11.8033 0.119771 12.4874 0.0488924C13.1715 -0.0219865 13.8628 0.0490703 14.5182 0.257615C15.1735 0.466161 15.7788 0.807705 16.296 1.26087C16.8133 1.71404 17.2314 2.26907 17.5243 2.89124C17.8171 3.5134 17.9784 4.1893 17.9979 4.87664C18.0175 5.56397 17.8949 6.24795 17.6379 6.88575C17.3809 7.52355 16.995 8.10145 16.5044 8.58329"/>
</mask>
<path d="M17.6771 9.76159C18.3312 9.11392 18.3363 8.05866 17.6887 7.40459C17.041 6.75053 15.9858 6.74533 15.3317 7.393L17.6771 9.76159ZM1.51215 8.57729L2.68485 7.393L2.67963 7.38783L2.67437 7.38271L1.51215 8.57729ZM9.00827 2.01597L7.67069 3.01029L9.00052 4.79919L10.3403 3.01772L9.00827 2.01597ZM15.3366 7.39414C14.6799 8.03908 14.6703 9.09431 15.3152 9.75106C15.9602 10.4078 17.0154 10.4174 17.6722 9.77244L15.3366 7.39414ZM8.30465 15.3033L7.13195 16.4876L8.30465 15.3033ZM15.3317 7.393L8.53919 14.119L10.8846 16.4876L17.6771 9.76159L15.3317 7.393ZM9.47735 14.119L2.68485 7.393L0.339453 9.76159L7.13195 16.4876L9.47735 14.119ZM2.67437 7.38271C2.34485 7.06211 2.0853 6.67679 1.91207 6.25102L-1.17548 7.50726C-0.828798 8.35933 -0.309418 9.13039 0.349933 9.77187L2.67437 7.38271ZM1.91207 6.25102C1.73883 5.82525 1.65566 5.36824 1.66776 4.90877L-1.66442 4.82098C-1.68864 5.74056 -1.52217 6.65518 -1.17548 7.50726L1.91207 6.25102ZM1.66776 4.90877C1.67987 4.4493 1.78699 3.9973 1.98241 3.58123L-1.03472 2.16416C-1.42578 2.99681 -1.64019 3.9014 -1.66442 4.82098L1.66776 4.90877ZM1.98241 3.58123C2.17783 3.16516 2.4573 2.79403 2.80326 2.49122L0.60782 -0.0170051C-0.0843897 0.588883 -0.643646 1.33152 -1.03472 2.16416L1.98241 3.58123ZM2.80326 2.49122C3.14921 2.1884 3.55415 1.96047 3.99258 1.82179L2.9873 -1.35634C2.11019 -1.0789 1.30003 -0.622892 0.60782 -0.0170051L2.80326 2.49122ZM3.99258 1.82179C4.43101 1.68311 4.89342 1.63669 5.35069 1.68546L5.70419 -1.62908C4.78945 -1.72664 3.8644 -1.63378 2.9873 -1.35634L3.99258 1.82179ZM5.35069 1.68546C5.80795 1.73423 6.25015 1.87713 6.64943 2.10514L8.30244 -0.789453C7.50359 -1.24565 6.61894 -1.53152 5.70419 -1.62908L5.35069 1.68546ZM6.64943 2.10514C7.04872 2.33316 7.39643 2.64135 7.67069 3.01029L10.3458 1.02165C9.79703 0.28338 9.10129 -0.333259 8.30244 -0.789453L6.64943 2.10514ZM10.3403 3.01772C10.6157 2.65146 10.9639 2.34596 11.3629 2.12036L9.72228 -0.781294C8.92399 -0.329942 8.22744 0.281307 7.67625 1.01422L10.3403 3.01772ZM11.3629 2.12036C11.7619 1.89476 12.2032 1.75393 12.6592 1.70668L12.3156 -1.6089C11.4034 -1.51439 10.5206 -1.23265 9.72228 -0.781294L11.3629 2.12036ZM12.6592 1.70668C13.1151 1.65944 13.576 1.7068 14.0128 1.84581L15.0236 -1.33058C14.1497 -1.60866 13.2278 -1.70341 12.3156 -1.6089L12.6592 1.70668ZM14.0128 1.84581C14.4496 1.98481 14.853 2.21246 15.1978 2.51449L17.3943 0.00725871C16.7046 -0.597052 15.8975 -1.05249 15.0236 -1.33058L14.0128 1.84581ZM15.1978 2.51449C15.5425 2.81651 15.8211 3.1864 16.0163 3.60102L19.0323 2.18146C18.6417 1.35174 18.0841 0.611571 17.3943 0.00725871L15.1978 2.51449ZM16.0163 3.60102C16.2114 4.01562 16.3189 4.46603 16.3319 4.92404L19.6639 4.82924C19.6378 3.91258 19.4228 3.01118 19.0323 2.18146L16.0163 3.60102ZM16.3319 4.92404C16.345 5.38206 16.2633 5.83783 16.092 6.26286L19.1838 7.50864C19.5266 6.65806 19.69 5.74589 19.6639 4.82924L16.3319 4.92404ZM16.092 6.26286C15.9208 6.68788 15.6636 7.07301 15.3366 7.39414L17.6722 9.77244C18.3265 9.1299 18.8411 8.35922 19.1838 7.50864L16.092 6.26286ZM8.53919 14.119C8.799 13.8617 9.21754 13.8617 9.47735 14.119L7.13195 16.4876C8.17119 17.5166 9.84535 17.5166 10.8846 16.4876L8.53919 14.119Z" fill="#EC5B47" mask="url(#path-1-inside-1_759_16168)"/>
</svg>
