<svg width="18" height="15" viewBox="0 0 18 15" fill="none" xmlns="http://www.w3.org/2000/svg">
<path d="M11.4979 13.5C11.9122 13.5 12.2479 13.8358 12.2479 14.25C12.2479 14.6642 11.9122 15 11.4979 15C11.0837 15 10.7479 14.6642 10.7479 14.25C10.7479 13.8358 11.0837 13.5 11.4979 13.5ZM8.99993 0.000671387C12.1685 0.000671387 13.9659 2.09796 14.2273 4.6308L14.3073 4.6308C16.3464 4.6308 17.9994 6.27952 17.9994 8.31332C17.9994 10.3471 16.3464 11.9959 14.3073 11.9959L13.0002 11.9969C12.9053 12.3023 12.6204 12.5241 12.2838 12.5241C11.9472 12.5241 11.6623 12.3023 11.5674 11.9969L5.98749 11.9957L4.40866 14.6227C4.20155 14.9815 3.74286 15.1044 3.38414 14.8973C3.05531 14.7074 2.92464 14.3062 3.06466 13.9643L3.10962 13.8727L4.25549 11.9957L3.69257 11.9959C1.65349 11.9959 0.000488281 10.3471 0.000488281 8.31332C0.000488281 6.27952 1.65349 4.6308 3.69259 4.6308L3.77253 4.6308C4.03547 2.08131 5.8314 0.000671387 8.99993 0.000671387ZM8.5777 12.7045C8.90653 12.8944 9.0372 13.2956 8.89717 13.6375L8.85222 13.7291L8.28549 14.6278C8.07838 14.9865 7.61969 15.1094 7.26097 14.9023C6.93214 14.7125 6.80146 14.3112 6.94149 13.9694L6.98645 13.8778L7.55318 12.9791C7.76029 12.6203 8.21898 12.4974 8.5777 12.7045ZM14.2499 13C14.6641 13 14.9999 13.3358 14.9999 13.75C14.9999 14.1642 14.6641 14.5 14.2499 14.5C13.8357 14.5 13.4999 14.1642 13.4999 13.75C13.4999 13.3358 13.8357 13 14.2499 13ZM8.99993 1.49826C6.92861 1.49826 5.12322 3.1315 5.12322 5.38748C5.12322 5.74494 4.80427 6.02543 4.43906 6.02541L3.74851 6.02539C2.48751 6.02539 1.46528 7.02668 1.46528 8.26183C1.46528 9.49698 2.48751 10.4983 3.74851 10.4983H14.2514C15.5124 10.4983 16.5346 9.49698 16.5346 8.26183C16.5346 7.02668 15.5124 6.02539 14.2514 6.02539L13.5608 6.02541C13.1956 6.02543 12.8766 5.74494 12.8766 5.38748C12.8766 3.10256 11.0713 1.49826 8.99993 1.49826Z" fill="#6E78E1"/>
</svg>
